SplineFontDB: 3.0
FontName: PollerOne-Regular
FullName: Poller One
FamilyName: Poller One
Weight: Regular
Copyright: Copyright (c) 2011, Sorkin Type Co (www.sorkintype.com)\nwith Reserved Font Names "Poller" and "Poller One".
Version: 1.002
ItalicAngle: 0
UnderlinePosition: -50
UnderlineWidth: 50
Ascent: 1638
Descent: 410
LayerCount: 2
Layer: 0 1 "Back"  1
Layer: 1 1 "Fore"  0
XUID: [1021 631 1661839179 8719661]
FSType: 0
OS2Version: 3
OS2_WeightWidthSlopeOnly: 0
OS2_UseTypoMetrics: 1
CreationTime: 1304757360
ModificationTime: 1316792968
PfmFamily: 33
TTFWeight: 400
TTFWidth: 5
LineGap: 0
VLineGap: 0
Panose: 2 1 8 5 7 7 0 6 0 3
OS2TypoAscent: 1920
OS2TypoAOffset: 0
OS2TypoDescent: -514
OS2TypoDOffset: 0
OS2TypoLinegap: 0
OS2WinAscent: 1920
OS2WinAOffset: 0
OS2WinDescent: 514
OS2WinDOffset: 0
HheadAscent: 1920
HheadAOffset: 0
HheadDescent: -514
HheadDOffset: 0
OS2SubXSize: 1434
OS2SubYSize: 1331
OS2SubXOff: 0
OS2SubYOff: 287
OS2SupXSize: 1434
OS2SupYSize: 1331
OS2SupXOff: 0
OS2SupYOff: 977
OS2StrikeYSize: 102
OS2StrikeYPos: 512
OS2Vendor: 'STC '
OS2CodePages: 20000111.40000000
OS2UnicodeRanges: 800000ef.00000002.00000000.00000000
MarkAttachClasses: 1
DEI: 91125
TtTable: prep
PUSHW_1
 511
SCANCTRL
PUSHB_1
 4
SVTCA[y-axis]
EndTTInstrs
ShortTable: maxp 16
  1
  0
  241
  106
  5
  0
  0
  1
  0
  0
  0
  0
  0
  0
  0
  0
EndShort
LangName: 1033 "" "" "Regular" "" "" "Version 1.002" "" "Poller is a trademark of Sorkin Type Co." "Yvonne Sch+AJ8A-ttler" "Yvonne Sch+AJ8A-ttler" "Poller is a high contrast semi-extended style sans serif. Poller's is both readable and full of personality. Because of the higher contrast it is best used from medium sizes to larger display settings. Voltaire was inspired by hand lettering on early 20th century German posters." "www.sorkintype.com" "www.ysch.de" "This Font Software is licensed under the SIL Open Font License, Version 1.1." "http://scripts.sil.org/OFL" "" "" "" "Poller" 
GaspTable: 1 65535 3
Encoding: UnicodeBmp

StartChar: e
Encoding: 101 101 4
Width: 1449
Flags: W
LayerCount: 2
Fore
SplineSet
75 501 m 0,0,1
 75 587 75 587 102 658 c 128,-1,2
 129 729 129 729 176.5 785.5 c 128,-1,3
 224 842 224 842 289 884 c 128,-1,4
 354 926 354 926 430 954 c 128,-1,5
 506 982 506 982 589 996 c 128,-1,6
 672 1010 672 1010 757 1010 c 0,7,8
 869 1010 869 1010 960.5 987.5 c 128,-1,9
 1052 965 1052 965 1123.5 926 c 128,-1,10
 1195 887 1195 887 1247.5 835 c 128,-1,11
 1300 783 1300 783 1334.5 724.5 c 128,-1,12
 1369 666 1369 666 1385.5 604 c 128,-1,13
 1402 542 1402 542 1402 483 c 1,14,-1
 646 392 l 1,15,16
 668 281 668 281 734 220 c 128,-1,17
 800 159 800 159 919 159 c 0,18,19
 984 159 984 159 1040.5 175 c 128,-1,20
 1097 191 1097 191 1129 214 c 1,21,-1
 1209 74 l 1,22,23
 1172 55 1172 55 1128.5 38 c 128,-1,24
 1085 21 1085 21 1032.5 8.5 c 128,-1,25
 980 -4 980 -4 916.5 -11.5 c 128,-1,26
 853 -19 853 -19 777 -19 c 0,27,28
 595 -19 595 -19 463 23.5 c 128,-1,29
 331 66 331 66 244.5 137.5 c 128,-1,30
 158 209 158 209 116.5 303 c 128,-1,31
 75 397 75 397 75 501 c 0,0,1
917 585 m 1,32,33
 917 715 917 715 884.5 774 c 128,-1,34
 852 833 852 833 788 833 c 0,35,36
 755 833 755 833 727 817 c 128,-1,37
 699 801 699 801 679 767 c 128,-1,38
 659 733 659 733 647 679.5 c 128,-1,39
 635 626 635 626 634 550 c 1,40,-1
 917 585 l 1,32,33
EndSplineSet
EndChar

StartChar: i
Encoding: 105 105 5
Width: 823
Flags: W
LayerCount: 2
Fore
SplineSet
411 1156 m 0,0,1
 337 1156 337 1156 283.5 1172 c 128,-1,2
 230 1188 230 1188 196 1216.5 c 128,-1,3
 162 1245 162 1245 146 1282.5 c 128,-1,4
 130 1320 130 1320 130 1364 c 0,5,6
 130 1407 130 1407 146 1445 c 128,-1,7
 162 1483 162 1483 196 1511.5 c 128,-1,8
 230 1540 230 1540 283.5 1556 c 128,-1,9
 337 1572 337 1572 411 1572 c 0,10,11
 486 1572 486 1572 539 1556 c 128,-1,12
 592 1540 592 1540 626.5 1511.5 c 128,-1,13
 661 1483 661 1483 677 1445 c 128,-1,14
 693 1407 693 1407 693 1364 c 0,15,16
 693 1320 693 1320 677 1282.5 c 128,-1,17
 661 1245 661 1245 626.5 1216.5 c 128,-1,18
 592 1188 592 1188 539 1172 c 128,-1,19
 486 1156 486 1156 411 1156 c 0,0,1
140 991 m 1,20,-1
 683 991 l 1,21,-1
 683 0 l 1,22,-1
 140 0 l 1,23,-1
 140 991 l 1,20,-1
EndSplineSet
EndChar

StartChar: s
Encoding: 115 115 6
Width: 1240
Flags: W
LayerCount: 2
Fore
SplineSet
179 256 m 1,0,1
 220 234 220 234 258 216 c 128,-1,2
 296 198 296 198 334 185.5 c 128,-1,3
 372 173 372 173 410.5 166 c 128,-1,4
 449 159 449 159 491 159 c 0,5,6
 557 159 557 159 586 175 c 128,-1,7
 615 191 615 191 615 217 c 0,8,9
 615 233 615 233 605.5 244 c 128,-1,10
 596 255 596 255 579 263.5 c 128,-1,11
 562 272 562 272 539 279.5 c 128,-1,12
 516 287 516 287 488 295 c 2,13,-1
 431 312 l 2,14,15
 347 337 347 337 286 370.5 c 128,-1,16
 225 404 225 404 186 446 c 128,-1,17
 147 488 147 488 128 536.5 c 128,-1,18
 109 585 109 585 109 640 c 0,19,20
 109 711 109 711 141 777.5 c 128,-1,21
 173 844 173 844 240 896 c 128,-1,22
 307 948 307 948 411.5 979 c 128,-1,23
 516 1010 516 1010 660 1010 c 0,24,25
 714 1010 714 1010 772.5 1003.5 c 128,-1,26
 831 997 831 997 886 987 c 128,-1,27
 941 977 941 977 989 964.5 c 128,-1,28
 1037 952 1037 952 1070 939 c 1,29,-1
 982 778 l 1,30,31
 960 790 960 790 930.5 799.5 c 128,-1,32
 901 809 901 809 870 816.5 c 128,-1,33
 839 824 839 824 810.5 828 c 128,-1,34
 782 832 782 832 762 832 c 0,35,36
 704 832 704 832 679 816 c 128,-1,37
 654 800 654 800 654 777 c 0,38,39
 654 768 654 768 659 758 c 128,-1,40
 664 748 664 748 679 737 c 128,-1,41
 694 726 694 726 721 714 c 128,-1,42
 748 702 748 702 792 689 c 2,43,-1
 848 672 l 2,44,45
 941 644 941 644 1002.5 609 c 128,-1,46
 1064 574 1064 574 1101.5 533.5 c 128,-1,47
 1139 493 1139 493 1154.5 448 c 128,-1,48
 1170 403 1170 403 1170 356 c 0,49,50
 1170 284 1170 284 1135 216 c 128,-1,51
 1100 148 1100 148 1023.5 96 c 128,-1,52
 947 44 947 44 826 12.5 c 128,-1,53
 705 -19 705 -19 533 -19 c 0,54,55
 459 -19 459 -19 397 -13 c 128,-1,56
 335 -7 335 -7 280 5 c 128,-1,57
 225 17 225 17 174.5 34.5 c 128,-1,58
 124 52 124 52 75 74 c 1,59,-1
 179 256 l 1,0,1
EndSplineSet
EndChar

StartChar: d
Encoding: 100 100 7
Width: 1669
Flags: W
LayerCount: 2
Fore
SplineSet
75 495 m 0,0,1
 75 612 75 612 115.5 707 c 128,-1,2
 156 802 156 802 232 869.5 c 128,-1,3
 308 937 308 937 416.5 973.5 c 128,-1,4
 525 1010 525 1010 660 1010 c 0,5,6
 763 1010 763 1010 845 985.5 c 128,-1,7
 927 961 927 961 986 921 c 1,8,-1
 986 1651 l 1,9,-1
 1529 1651 l 1,10,-1
 1529 0 l 1,11,-1
 1029 0 l 1,12,-1
 988 124 l 1,13,14
 960 97 960 97 921 71 c 128,-1,15
 882 45 882 45 835 25 c 128,-1,16
 788 5 788 5 733.5 -7 c 128,-1,17
 679 -19 679 -19 619 -19 c 0,18,19
 506 -19 506 -19 407 14 c 128,-1,20
 308 47 308 47 234 111.5 c 128,-1,21
 160 176 160 176 117.5 272.5 c 128,-1,22
 75 369 75 369 75 495 c 0,0,1
635 514 m 0,23,24
 635 428 635 428 651.5 367 c 128,-1,25
 668 306 668 306 697 267.5 c 128,-1,26
 726 229 726 229 766 211 c 128,-1,27
 806 193 806 193 854 193 c 0,28,29
 892 193 892 193 925.5 206.5 c 128,-1,30
 959 220 959 220 986 241 c 1,31,-1
 986 789 l 1,32,33
 961 811 961 811 929.5 823 c 128,-1,34
 898 835 898 835 868 835 c 0,35,36
 818 835 818 835 775.5 816.5 c 128,-1,37
 733 798 733 798 701.5 759 c 128,-1,38
 670 720 670 720 652.5 659.5 c 128,-1,39
 635 599 635 599 635 514 c 0,23,24
EndSplineSet
EndChar

StartChar: o
Encoding: 111 111 8
Width: 1574
Flags: W
LayerCount: 2
Fore
SplineSet
75 495 m 0,0,1
 75 613 75 613 123.5 708 c 128,-1,2
 172 803 172 803 263.5 870 c 128,-1,3
 355 937 355 937 487 973.5 c 128,-1,4
 619 1010 619 1010 787 1010 c 256,5,6
 955 1010 955 1010 1087 973.5 c 128,-1,7
 1219 937 1219 937 1310.5 870 c 128,-1,8
 1402 803 1402 803 1450.5 708 c 128,-1,9
 1499 613 1499 613 1499 495 c 0,10,11
 1499 378 1499 378 1450.5 283 c 128,-1,12
 1402 188 1402 188 1310.5 121 c 128,-1,13
 1219 54 1219 54 1087 17.5 c 128,-1,14
 955 -19 955 -19 787 -19 c 256,15,16
 619 -19 619 -19 487 17.5 c 128,-1,17
 355 54 355 54 263.5 121 c 128,-1,18
 172 188 172 188 123.5 283 c 128,-1,19
 75 378 75 378 75 495 c 0,0,1
787 164 m 0,20,21
 824 164 824 164 853 179 c 128,-1,22
 882 194 882 194 901 231.5 c 128,-1,23
 920 269 920 269 930 333 c 128,-1,24
 940 397 940 397 940 495 c 0,25,26
 940 594 940 594 930 658 c 128,-1,27
 920 722 920 722 901 759.5 c 128,-1,28
 882 797 882 797 853 812 c 128,-1,29
 824 827 824 827 787 827 c 0,30,31
 749 827 749 827 720.5 812 c 128,-1,32
 692 797 692 797 673 759.5 c 128,-1,33
 654 722 654 722 644 658 c 128,-1,34
 634 594 634 594 634 495 c 0,35,36
 634 397 634 397 644 333 c 128,-1,37
 654 269 654 269 673 231.5 c 128,-1,38
 692 194 692 194 720.5 179 c 128,-1,39
 749 164 749 164 787 164 c 0,20,21
EndSplineSet
EndChar

StartChar: q
Encoding: 113 113 9
Width: 1670
Flags: W
LayerCount: 2
Fore
SplineSet
75 495 m 0,0,1
 75 612 75 612 115.5 707 c 128,-1,2
 156 802 156 802 232 869.5 c 128,-1,3
 308 937 308 937 416.5 973.5 c 128,-1,4
 525 1010 525 1010 660 1010 c 0,5,6
 769 1010 769 1010 855.5 981.5 c 128,-1,7
 942 953 942 953 1001 904 c 1,8,-1
 1029 991 l 1,9,-1
 1529 991 l 1,10,-1
 1530 -494 l 1,11,-1
 987 -494 l 1,12,-1
 986 122 l 1,13,14
 958 95 958 95 919 69.5 c 128,-1,15
 880 44 880 44 833 24.5 c 128,-1,16
 786 5 786 5 732 -7 c 128,-1,17
 678 -19 678 -19 619 -19 c 0,18,19
 506 -19 506 -19 407 14 c 128,-1,20
 308 47 308 47 234 111.5 c 128,-1,21
 160 176 160 176 117.5 272.5 c 128,-1,22
 75 369 75 369 75 495 c 0,0,1
635 514 m 0,23,24
 635 428 635 428 651.5 367 c 128,-1,25
 668 306 668 306 697 267.5 c 128,-1,26
 726 229 726 229 766 211 c 128,-1,27
 806 193 806 193 854 193 c 0,28,29
 892 193 892 193 926 206.5 c 128,-1,30
 960 220 960 220 986 241 c 1,31,-1
 986 786 l 1,32,33
 961 809 961 809 929.5 822 c 128,-1,34
 898 835 898 835 868 835 c 0,35,36
 818 835 818 835 775.5 816.5 c 128,-1,37
 733 798 733 798 701.5 759 c 128,-1,38
 670 720 670 720 652.5 659.5 c 128,-1,39
 635 599 635 599 635 514 c 0,23,24
EndSplineSet
EndChar

StartChar: b
Encoding: 98 98 10
Width: 1667
Flags: W
LayerCount: 2
Fore
SplineSet
140 1650 m 1,0,-1
 684 1650 l 1,1,-1
 684 872 l 1,2,3
 712 899 712 899 750.5 923.5 c 128,-1,4
 789 948 789 948 835.5 967.5 c 128,-1,5
 882 987 882 987 935.5 998.5 c 128,-1,6
 989 1010 989 1010 1048 1010 c 0,7,8
 1161 1010 1161 1010 1260 977 c 128,-1,9
 1359 944 1359 944 1433 879 c 128,-1,10
 1507 814 1507 814 1549.5 718 c 128,-1,11
 1592 622 1592 622 1592 495 c 0,12,13
 1592 378 1592 378 1551.5 283.5 c 128,-1,14
 1511 189 1511 189 1435 121.5 c 128,-1,15
 1359 54 1359 54 1250.5 17.5 c 128,-1,16
 1142 -19 1142 -19 1007 -19 c 0,17,18
 898 -19 898 -19 811.5 8.5 c 128,-1,19
 725 36 725 36 666 81 c 1,20,-1
 638 0 l 1,21,-1
 141 0 l 1,22,-1
 140 1650 l 1,0,-1
684 199 m 1,23,24
 708 179 708 179 738.5 167.5 c 128,-1,25
 769 156 769 156 799 156 c 0,26,27
 849 156 849 156 891.5 174.5 c 128,-1,28
 934 193 934 193 965.5 232 c 128,-1,29
 997 271 997 271 1014.5 331.5 c 128,-1,30
 1032 392 1032 392 1032 477 c 0,31,32
 1032 563 1032 563 1015.5 624 c 128,-1,33
 999 685 999 685 970 723.5 c 128,-1,34
 941 762 941 762 901 780 c 128,-1,35
 861 798 861 798 813 798 c 0,36,37
 776 798 776 798 743 785 c 128,-1,38
 710 772 710 772 684 752 c 1,39,-1
 684 199 l 1,23,24
EndSplineSet
EndChar

StartChar: c
Encoding: 99 99 11
Width: 1302
Flags: W
LayerCount: 2
Fore
SplineSet
74 496 m 0,0,1
 74 597 74 597 116.5 690 c 128,-1,2
 159 783 159 783 245 854 c 128,-1,3
 331 925 331 925 462.5 967.5 c 128,-1,4
 594 1010 594 1010 772 1010 c 0,5,6
 900 1010 900 1010 991 985.5 c 128,-1,7
 1082 961 1082 961 1140 921 c 128,-1,8
 1198 881 1198 881 1225 830 c 128,-1,9
 1252 779 1252 779 1252 726 c 0,10,11
 1252 685 1252 685 1233 648 c 128,-1,12
 1214 611 1214 611 1182 582.5 c 128,-1,13
 1150 554 1150 554 1107 537 c 128,-1,14
 1064 520 1064 520 1016 520 c 1,15,-1
 762 867 l 1,16,17
 734 842 734 842 710.5 808 c 128,-1,18
 687 774 687 774 669.5 730.5 c 128,-1,19
 652 687 652 687 642.5 633.5 c 128,-1,20
 633 580 633 580 633 516 c 0,21,22
 633 427 633 427 655 360 c 128,-1,23
 677 293 677 293 715 248.5 c 128,-1,24
 753 204 753 204 805.5 181.5 c 128,-1,25
 858 159 858 159 920 159 c 0,26,27
 950 159 950 159 980.5 163.5 c 128,-1,28
 1011 168 1011 168 1038.5 175.5 c 128,-1,29
 1066 183 1066 183 1089 193 c 128,-1,30
 1112 203 1112 203 1128 214 c 1,31,-1
 1208 74 l 1,32,33
 1171 55 1171 55 1127.5 38 c 128,-1,34
 1084 21 1084 21 1031.5 8.5 c 128,-1,35
 979 -4 979 -4 916 -11.5 c 128,-1,36
 853 -19 853 -19 778 -19 c 0,37,38
 598 -19 598 -19 465.5 23.5 c 128,-1,39
 333 66 333 66 246 137 c 128,-1,40
 159 208 159 208 116.5 301 c 128,-1,41
 74 394 74 394 74 496 c 0,0,1
EndSplineSet
EndChar

StartChar: r
Encoding: 114 114 12
Width: 1347
Flags: W
LayerCount: 2
Fore
SplineSet
140 991 m 1,0,-1
 619 991 l 1,1,-1
 667 847 l 1,2,3
 724 889 724 889 774.5 919.5 c 128,-1,4
 825 950 825 950 872.5 970.5 c 128,-1,5
 920 991 920 991 964.5 1000.5 c 128,-1,6
 1009 1010 1009 1010 1053 1010 c 0,7,8
 1117 1010 1117 1010 1168.5 992 c 128,-1,9
 1220 974 1220 974 1256.5 941 c 128,-1,10
 1293 908 1293 908 1312.5 862.5 c 128,-1,11
 1332 817 1332 817 1332 762 c 256,12,13
 1332 707 1332 707 1308.5 661 c 128,-1,14
 1285 615 1285 615 1240 581.5 c 128,-1,15
 1195 548 1195 548 1129.5 529.5 c 128,-1,16
 1064 511 1064 511 980 511 c 1,17,-1
 804 746 l 1,18,19
 775 746 775 746 741 734 c 128,-1,20
 707 722 707 722 683 696 c 1,21,-1
 683 0 l 1,22,-1
 140 0 l 1,23,-1
 140 991 l 1,0,-1
EndSplineSet
EndChar

StartChar: l
Encoding: 108 108 13
Width: 823
Flags: W
LayerCount: 2
Fore
SplineSet
140 1651 m 1,0,-1
 683 1651 l 1,1,-1
 683 0 l 1,2,-1
 140 0 l 1,3,-1
 140 1651 l 1,0,-1
EndSplineSet
EndChar

StartChar: u
Encoding: 117 117 14
Width: 1588
Flags: W
LayerCount: 2
Fore
SplineSet
130 992 m 1,0,-1
 673 992 l 1,1,-1
 673 386 l 2,2,3
 673 346 673 346 680 319 c 128,-1,4
 687 292 687 292 701.5 275.5 c 128,-1,5
 716 259 716 259 737 251.5 c 128,-1,6
 758 244 758 244 787 244 c 0,7,8
 823 244 823 244 850 255.5 c 128,-1,9
 877 267 877 267 905 296 c 1,10,-1
 905 992 l 1,11,-1
 1448 992 l 1,12,-1
 1448 1 l 1,13,-1
 969 1 l 1,14,-1
 921 145 l 1,15,16
 830 56 830 56 724 18.5 c 128,-1,17
 618 -19 618 -19 508 -19 c 0,18,19
 327 -19 327 -19 228.5 78.5 c 128,-1,20
 130 176 130 176 130 379 c 2,21,-1
 130 992 l 1,0,-1
EndSplineSet
EndChar

StartChar: p
Encoding: 112 112 15
Width: 1669
Flags: W
LayerCount: 2
Fore
SplineSet
140 991 m 1,0,-1
 640 991 l 1,1,-1
 682 861 l 1,2,3
 710 888 710 888 749 915 c 128,-1,4
 788 942 788 942 835 963 c 128,-1,5
 882 984 882 984 936.5 997 c 128,-1,6
 991 1010 991 1010 1050 1010 c 0,7,8
 1163 1010 1163 1010 1262 977 c 128,-1,9
 1361 944 1361 944 1435 879 c 128,-1,10
 1509 814 1509 814 1551.5 718 c 128,-1,11
 1594 622 1594 622 1594 495 c 0,12,13
 1594 378 1594 378 1553.5 283.5 c 128,-1,14
 1513 189 1513 189 1437 121.5 c 128,-1,15
 1361 54 1361 54 1252.5 17.5 c 128,-1,16
 1144 -19 1144 -19 1009 -19 c 0,17,18
 906 -19 906 -19 823.5 5.5 c 128,-1,19
 741 30 741 30 683 74 c 1,20,-1
 683 -495 l 1,21,-1
 140 -495 l 1,22,-1
 140 991 l 1,0,-1
683 205 m 1,23,24
 708 182 708 182 739 169 c 128,-1,25
 770 156 770 156 801 156 c 0,26,27
 851 156 851 156 893.5 174.5 c 128,-1,28
 936 193 936 193 967.5 232 c 128,-1,29
 999 271 999 271 1016.5 331.5 c 128,-1,30
 1034 392 1034 392 1034 477 c 0,31,32
 1034 563 1034 563 1017.5 624 c 128,-1,33
 1001 685 1001 685 972 723.5 c 128,-1,34
 943 762 943 762 903 780 c 128,-1,35
 863 798 863 798 815 798 c 0,36,37
 777 798 777 798 743 784.5 c 128,-1,38
 709 771 709 771 683 748 c 1,39,-1
 683 205 l 1,23,24
EndSplineSet
EndChar

StartChar: f
Encoding: 102 102 16
Width: 1097
Flags: W
LayerCount: 2
Fore
SplineSet
178 826 m 1,0,-1
 68 826 l 1,1,-1
 68 991 l 1,2,-1
 178 991 l 1,3,-1
 178 1095 l 2,4,5
 178 1240 178 1240 221 1347.5 c 128,-1,6
 264 1455 264 1455 342.5 1525.5 c 128,-1,7
 421 1596 421 1596 532 1631 c 128,-1,8
 643 1666 643 1666 780 1666 c 0,9,10
 879 1666 879 1666 959.5 1645.5 c 128,-1,11
 1040 1625 1040 1625 1097 1589 c 128,-1,12
 1154 1553 1154 1553 1185.5 1504.5 c 128,-1,13
 1217 1456 1217 1456 1217 1400 c 0,14,15
 1217 1347 1217 1347 1197 1306 c 128,-1,16
 1177 1265 1177 1265 1144 1236 c 128,-1,17
 1111 1207 1111 1207 1068.5 1192 c 128,-1,18
 1026 1177 1026 1177 981 1177 c 1,19,-1
 721 1531 l 1,20,-1
 721 991 l 1,21,-1
 1011 991 l 1,22,-1
 908 826 l 1,23,-1
 721 826 l 1,24,-1
 721 0 l 1,25,-1
 178 0 l 1,26,-1
 178 826 l 1,0,-1
EndSplineSet
EndChar

StartChar: j
Encoding: 106 106 17
Width: 824
Flags: W
LayerCount: 2
Fore
SplineSet
422 1156 m 0,0,1
 348 1156 348 1156 294.5 1172 c 128,-1,2
 241 1188 241 1188 206.5 1216.5 c 128,-1,3
 172 1245 172 1245 156 1282.5 c 128,-1,4
 140 1320 140 1320 140 1364 c 0,5,6
 140 1407 140 1407 156 1445 c 128,-1,7
 172 1483 172 1483 206.5 1511.5 c 128,-1,8
 241 1540 241 1540 294.5 1556 c 128,-1,9
 348 1572 348 1572 422 1572 c 0,10,11
 497 1572 497 1572 550 1556 c 128,-1,12
 603 1540 603 1540 637.5 1511.5 c 128,-1,13
 672 1483 672 1483 688 1445 c 128,-1,14
 704 1407 704 1407 704 1364 c 0,15,16
 704 1320 704 1320 688 1282.5 c 128,-1,17
 672 1245 672 1245 637.5 1216.5 c 128,-1,18
 603 1188 603 1188 550 1172 c 128,-1,19
 497 1156 497 1156 422 1156 c 0,0,1
151 991 m 1,20,-1
 694 991 l 1,21,-1
 694 165 l 2,22,23
 694 27 694 27 654 -85.5 c 128,-1,24
 614 -198 614 -198 537 -282 c 128,-1,25
 460 -366 460 -366 346 -420 c 128,-1,26
 232 -474 232 -474 85 -495 c 1,27,-1
 42 -401 l 1,28,29
 73 -368 73 -368 94 -335.5 c 128,-1,30
 115 -303 115 -303 127.5 -266.5 c 128,-1,31
 140 -230 140 -230 145.5 -186 c 128,-1,32
 151 -142 151 -142 151 -86 c 2,33,-1
 151 991 l 1,20,-1
EndSplineSet
EndChar

StartChar: m
Encoding: 109 109 18
Width: 2314
Flags: W
LayerCount: 2
Fore
SplineSet
140 991 m 1,0,-1
 619 991 l 1,1,-1
 667 847 l 1,2,3
 773 928 773 928 882.5 969 c 128,-1,4
 992 1010 992 1010 1113 1010 c 0,5,6
 1204 1010 1204 1010 1278 970 c 128,-1,7
 1352 930 1352 930 1394 843 c 1,8,9
 1440 876 1440 876 1493 906 c 128,-1,10
 1546 936 1546 936 1604.5 959.5 c 128,-1,11
 1663 983 1663 983 1726 996.5 c 128,-1,12
 1789 1010 1789 1010 1857 1010 c 0,13,14
 1926 1010 1926 1010 1986 987 c 128,-1,15
 2046 964 2046 964 2090 916 c 128,-1,16
 2134 868 2134 868 2159 792.5 c 128,-1,17
 2184 717 2184 717 2184 612 c 2,18,-1
 2184 0 l 1,19,-1
 1641 0 l 1,20,-1
 1641 646 l 2,21,22
 1641 698 1641 698 1617.5 722 c 128,-1,23
 1594 746 1594 746 1550 746 c 0,24,25
 1527 746 1527 746 1498 735.5 c 128,-1,26
 1469 725 1469 725 1439 705 c 1,27,-1
 1439 0 l 1,28,-1
 896 0 l 1,29,-1
 896 646 l 2,30,31
 896 698 896 698 873 722 c 128,-1,32
 850 746 850 746 806 746 c 0,33,34
 777 746 777 746 742 734 c 128,-1,35
 707 722 707 722 683 696 c 1,36,-1
 683 0 l 1,37,-1
 140 0 l 1,38,-1
 140 991 l 1,0,-1
EndSplineSet
EndChar

StartChar: t
Encoding: 116 116 19
Width: 1021
Flags: W
LayerCount: 2
Fore
SplineSet
197 826 m 1,0,-1
 85 826 l 1,1,-1
 85 991 l 1,2,-1
 197 991 l 1,3,-1
 197 1321 l 1,4,-1
 740 1321 l 1,5,-1
 740 991 l 1,6,-1
 1001 991 l 1,7,-1
 899 826 l 1,8,-1
 740 826 l 1,9,-1
 740 377 l 2,10,11
 740 275 740 275 785.5 220 c 128,-1,12
 831 165 831 165 916 165 c 1,13,-1
 854 28 l 1,14,15
 802 6 802 6 743.5 -6.5 c 128,-1,16
 685 -19 685 -19 608 -19 c 0,17,18
 500 -19 500 -19 422 8.5 c 128,-1,19
 344 36 344 36 294 87 c 128,-1,20
 244 138 244 138 220.5 212 c 128,-1,21
 197 286 197 286 197 379 c 2,22,-1
 197 826 l 1,0,-1
EndSplineSet
EndChar

StartChar: k
Encoding: 107 107 20
Width: 1562
Flags: W
LayerCount: 2
Fore
SplineSet
140 1651 m 1,0,-1
 683 1651 l 1,1,-1
 683 574 l 1,2,-1
 1086 991 l 1,3,-1
 1386 991 l 1,4,-1
 1068 668 l 1,5,-1
 1559 0 l 1,6,-1
 951 1 l 1,7,-1
 683 385 l 1,8,-1
 683 0 l 1,9,-1
 140 0 l 1,10,-1
 140 1651 l 1,0,-1
EndSplineSet
EndChar

StartChar: v
Encoding: 118 118 21
Width: 1276
Flags: W
LayerCount: 2
Fore
SplineSet
3 991 m 1,0,-1
 571 991 l 1,1,-1
 808 347 l 1,2,-1
 1037 991 l 1,3,-1
 1261 991 l 1,4,-1
 892 0 l 1,5,-1
 684 0 l 1,6,-1
 684 1 l 1,7,-1
 402 1 l 1,8,-1
 3 991 l 1,0,-1
EndSplineSet
EndChar

StartChar: w
Encoding: 119 119 22
Width: 2071
Flags: W
LayerCount: 2
Fore
SplineSet
3 991 m 1,0,-1
 571 991 l 1,1,-1
 793 345 l 1,2,-1
 938 749 l 1,3,-1
 846 991 l 1,4,-1
 1414 991 l 1,5,-1
 1626 374 l 1,6,-1
 1836 991 l 1,7,-1
 2056 991 l 1,8,-1
 1706 0 l 1,9,-1
 1498 0 l 1,10,-1
 1498 1 l 1,11,-1
 1225 1 l 1,12,-1
 1048 462 l 1,13,-1
 876 0 l 1,14,-1
 668 0 l 1,15,-1
 668 1 l 1,16,-1
 382 1 l 1,17,-1
 3 991 l 1,0,-1
EndSplineSet
EndChar

StartChar: x
Encoding: 120 120 23
Width: 1376
Flags: W
LayerCount: 2
Fore
SplineSet
416 458 m 1,0,-1
 31 991 l 1,1,-1
 646 991 l 1,2,-1
 823 749 l 1,3,-1
 1019 991 l 1,4,-1
 1313 991 l 1,5,-1
 958 564 l 1,6,-1
 1372 0 l 1,7,-1
 748 0 l 1,8,-1
 549 275 l 1,9,-1
 322 1 l 1,10,-1
 30 1 l 1,11,-1
 416 458 l 1,0,-1
EndSplineSet
EndChar

StartChar: g
Encoding: 103 103 24
Width: 1485
Flags: W
LayerCount: 2
Fore
SplineSet
122 89 m 0,0,1
 122 165 122 165 160 236 c 128,-1,2
 198 307 198 307 266 364 c 1,3,4
 172 415 172 415 123.5 486.5 c 128,-1,5
 75 558 75 558 75 648 c 0,6,7
 75 733 75 733 119.5 800.5 c 128,-1,8
 164 868 164 868 248 914.5 c 128,-1,9
 332 961 332 961 454 985.5 c 128,-1,10
 576 1010 576 1010 731 1010 c 0,11,12
 784 1010 784 1010 834 1007 c 1,13,-1
 834 1136 l 2,14,15
 834 1205 834 1205 852.5 1263 c 128,-1,16
 871 1321 871 1321 908 1363 c 128,-1,17
 945 1405 945 1405 1001.5 1428.5 c 128,-1,18
 1058 1452 1058 1452 1134 1452 c 0,19,20
 1204 1452 1204 1452 1259.5 1432.5 c 128,-1,21
 1315 1413 1315 1413 1353.5 1379.5 c 128,-1,22
 1392 1346 1392 1346 1412 1301 c 128,-1,23
 1432 1256 1432 1256 1432 1206 c 0,24,25
 1432 1157 1432 1157 1414.5 1117 c 128,-1,26
 1397 1077 1397 1077 1369 1048 c 128,-1,27
 1341 1019 1341 1019 1307.5 1003 c 128,-1,28
 1274 987 1274 987 1241 987 c 1,29,-1
 1007 1302 l 1,30,-1
 1006 1301 l 1,31,-1
 1004 986 l 1,32,33
 1189 950 1189 950 1288 863.5 c 128,-1,34
 1387 777 1387 777 1387 648 c 0,35,36
 1387 563 1387 563 1342.5 493.5 c 128,-1,37
 1298 424 1298 424 1214 374.5 c 128,-1,38
 1130 325 1130 325 1008 298 c 128,-1,39
 886 271 886 271 731 271 c 0,40,41
 622 271 622 271 529.5 284 c 128,-1,42
 437 297 437 297 362 323 c 1,43,44
 354 304 354 304 354 279 c 0,45,46
 354 253 354 253 367.5 232.5 c 128,-1,47
 381 212 381 212 421.5 198 c 128,-1,48
 462 184 462 184 535.5 177 c 128,-1,49
 609 170 609 170 728 170 c 2,50,-1
 988 170 l 2,51,52
 1106 170 1106 170 1190.5 146.5 c 128,-1,53
 1275 123 1275 123 1329.5 82 c 128,-1,54
 1384 41 1384 41 1409.5 -13.5 c 128,-1,55
 1435 -68 1435 -68 1435 -129 c 0,56,57
 1435 -209 1435 -209 1393 -276 c 128,-1,58
 1351 -343 1351 -343 1265.5 -391.5 c 128,-1,59
 1180 -440 1180 -440 1050 -467 c 128,-1,60
 920 -494 920 -494 744 -494 c 0,61,62
 644 -494 644 -494 550.5 -485.5 c 128,-1,63
 457 -477 457 -477 375 -461.5 c 128,-1,64
 293 -446 293 -446 224 -424.5 c 128,-1,65
 155 -403 155 -403 103 -378 c 1,66,-1
 184 -227 l 1,67,68
 247 -256 247 -256 310 -275.5 c 128,-1,69
 373 -295 373 -295 438 -307 c 128,-1,70
 503 -319 503 -319 571.5 -324 c 128,-1,71
 640 -329 640 -329 714 -329 c 0,72,73
 798 -329 798 -329 849.5 -322 c 128,-1,74
 901 -315 901 -315 928.5 -304 c 128,-1,75
 956 -293 956 -293 965.5 -278.5 c 128,-1,76
 975 -264 975 -264 975 -249 c 0,77,78
 975 -223 975 -223 946.5 -206.5 c 128,-1,79
 918 -190 918 -190 856 -189 c 2,80,-1
 543 -186 l 2,81,82
 436 -185 436 -185 357 -164.5 c 128,-1,83
 278 -144 278 -144 225.5 -107.5 c 128,-1,84
 173 -71 173 -71 147.5 -21 c 128,-1,85
 122 29 122 29 122 89 c 0,0,1
731 453 m 256,86,87
 754 453 754 453 772 462 c 128,-1,88
 790 471 790 471 802.5 493 c 128,-1,89
 815 515 815 515 821.5 552.5 c 128,-1,90
 828 590 828 590 828 647 c 0,91,92
 828 700 828 700 822 735 c 128,-1,93
 816 770 816 770 804 790.5 c 128,-1,94
 792 811 792 811 773.5 819 c 128,-1,95
 755 827 755 827 731 827 c 256,96,97
 707 827 707 827 688.5 819 c 128,-1,98
 670 811 670 811 658 790.5 c 128,-1,99
 646 770 646 770 640 735 c 128,-1,100
 634 700 634 700 634 646 c 0,101,102
 634 590 634 590 640.5 552.5 c 128,-1,103
 647 515 647 515 659.5 493 c 128,-1,104
 672 471 672 471 690 462 c 128,-1,105
 708 453 708 453 731 453 c 256,86,87
EndSplineSet
EndChar

StartChar: y
Encoding: 121 121 25
Width: 1333
Flags: W
LayerCount: 2
Fore
SplineSet
3 991 m 1,0,-1
 571 991 l 1,1,-1
 811 377 l 1,2,-1
 1051 991 l 1,3,-1
 1318 991 l 1,4,-1
 892 -20 l 2,5,6
 851 -116 851 -116 804 -190 c 128,-1,7
 757 -264 757 -264 695.5 -320.5 c 128,-1,8
 634 -377 634 -377 555 -419 c 128,-1,9
 476 -461 476 -461 373 -494 c 1,10,-1
 303 -330 l 1,11,12
 383 -302 383 -302 442 -266.5 c 128,-1,13
 501 -231 501 -231 542 -192.5 c 128,-1,14
 583 -154 583 -154 608.5 -115 c 128,-1,15
 634 -76 634 -76 648 -41 c 2,16,-1
 664 1 l 1,17,-1
 422 1 l 1,18,-1
 3 991 l 1,0,-1
EndSplineSet
EndChar

StartChar: z
Encoding: 122 122 26
Width: 1335
Flags: W
LayerCount: 2
Fore
SplineSet
592 827 m 1,0,-1
 144 827 l 1,1,-1
 144 991 l 1,2,-1
 1265 991 l 1,3,-1
 781 164 l 1,4,-1
 1226 164 l 1,5,-1
 1226 -1 l 1,6,-1
 70 -1 l 1,7,-1
 592 827 l 1,0,-1
EndSplineSet
EndChar

StartChar: Z
Encoding: 90 90 27
Width: 1573
Flags: W
LayerCount: 2
Fore
SplineSet
753 1268 m 1,0,-1
 159 1268 l 1,1,-1
 159 1486 l 1,2,-1
 1517 1486 l 1,3,-1
 843 220 l 1,4,-1
 1459 220 l 1,5,-1
 1459 0 l 1,6,-1
 56 0 l 1,7,-1
 753 1268 l 1,0,-1
EndSplineSet
EndChar

StartChar: E
Encoding: 69 69 28
Width: 1553
Flags: W
LayerCount: 2
Fore
SplineSet
190 1486 m 1,0,-1
 1446 1486 l 1,1,-1
 1446 1257 l 1,2,-1
 769 1257 l 1,3,-1
 768 856 l 1,4,-1
 1286 856 l 1,5,-1
 1286 627 l 1,6,-1
 768 627 l 1,7,-1
 768 229 l 1,8,-1
 1446 229 l 1,9,-1
 1446 0 l 1,10,-1
 190 0 l 1,11,-1
 190 1486 l 1,0,-1
EndSplineSet
EndChar

StartChar: R
Encoding: 82 82 29
Width: 1865
Flags: W
LayerCount: 2
Fore
SplineSet
190 1486 m 1,0,-1
 1047 1486 l 2,1,2
 1213 1486 1213 1486 1337.5 1451 c 128,-1,3
 1462 1416 1462 1416 1545.5 1353 c 128,-1,4
 1629 1290 1629 1290 1671 1202 c 128,-1,5
 1713 1114 1713 1114 1713 1008 c 0,6,7
 1713 877 1713 877 1651 775.5 c 128,-1,8
 1589 674 1589 674 1467 614 c 1,9,-1
 1779 -1 l 1,10,-1
 1126 -1 l 1,11,-1
 890 539 l 1,12,-1
 768 539 l 1,13,-1
 768 0 l 1,14,-1
 190 0 l 1,15,-1
 190 1486 l 1,0,-1
803 720 m 2,16,17
 874 720 874 720 930 740 c 128,-1,18
 986 760 986 760 1025 796.5 c 128,-1,19
 1064 833 1064 833 1085 883.5 c 128,-1,20
 1106 934 1106 934 1106 994 c 256,21,22
 1106 1054 1106 1054 1085 1104.5 c 128,-1,23
 1064 1155 1064 1155 1025 1191.5 c 128,-1,24
 986 1228 986 1228 930 1248 c 128,-1,25
 874 1268 874 1268 803 1268 c 2,26,-1
 769 1268 l 1,27,-1
 768 720 l 1,28,-1
 803 720 l 2,16,17
EndSplineSet
EndChar

StartChar: F
Encoding: 70 70 30
Width: 1465
Flags: W
LayerCount: 2
Fore
SplineSet
190 1486 m 1,0,-1
 1409 1486 l 1,1,-1
 1409 1257 l 1,2,-1
 769 1257 l 1,3,-1
 768 826 l 1,4,-1
 1238 826 l 1,5,-1
 1238 597 l 1,6,-1
 768 597 l 1,7,-1
 768 0 l 1,8,-1
 190 0 l 1,9,-1
 190 1486 l 1,0,-1
EndSplineSet
EndChar

StartChar: A
Encoding: 65 65 31
Width: 1780
Flags: W
LayerCount: 2
Fore
SplineSet
601 1111 m 1,0,-1
 429 1486 l 1,1,-1
 1038 1486 l 1,2,-1
 1766 -1 l 1,3,-1
 1113 -1 l 1,4,-1
 1003 237 l 1,5,-1
 417 237 l 1,6,-1
 308 -1 l 1,7,-1
 55 -1 l 1,8,-1
 601 1111 l 1,0,-1
898 466 m 1,9,-1
 710 874 l 1,10,-1
 523 466 l 1,11,-1
 898 466 l 1,9,-1
EndSplineSet
EndChar

StartChar: L
Encoding: 76 76 32
Width: 1383
Flags: W
LayerCount: 2
Fore
SplineSet
190 1486 m 1,0,-1
 769 1486 l 1,1,-1
 768 229 l 1,2,-1
 1336 229 l 1,3,-1
 1336 0 l 1,4,-1
 190 0 l 1,5,-1
 190 1486 l 1,0,-1
EndSplineSet
EndChar

StartChar: H
Encoding: 72 72 33
Width: 1964
Flags: W
LayerCount: 2
Fore
SplineSet
190 1486 m 1,0,-1
 768 1486 l 1,1,-1
 768 863 l 1,2,-1
 1195 863 l 1,3,-1
 1195 1486 l 1,4,-1
 1774 1486 l 1,5,-1
 1773 0 l 1,6,-1
 1195 0 l 1,7,-1
 1195 634 l 1,8,-1
 768 634 l 1,9,-1
 768 0 l 1,10,-1
 190 0 l 1,11,-1
 190 1486 l 1,0,-1
EndSplineSet
EndChar

StartChar: I
Encoding: 73 73 34
Width: 959
Flags: W
LayerCount: 2
Fore
SplineSet
190 1486 m 1,0,-1
 769 1486 l 1,1,-1
 768 0 l 1,2,-1
 190 0 l 1,3,-1
 190 1486 l 1,0,-1
EndSplineSet
EndChar

StartChar: T
Encoding: 84 84 35
Width: 1480
Flags: W
LayerCount: 2
Fore
SplineSet
451 1258 m 1,0,-1
 27 1258 l 1,1,-1
 27 1487 l 1,2,-1
 1453 1487 l 1,3,-1
 1453 1258 l 1,4,-1
 1029 1258 l 1,5,-1
 1029 0 l 1,6,-1
 451 0 l 1,7,-1
 451 1258 l 1,0,-1
EndSplineSet
EndChar

StartChar: N
Encoding: 78 78 36
Width: 1906
Flags: W
LayerCount: 2
Fore
SplineSet
190 1486 m 1,0,-1
 552 1486 l 1,1,-1
 1495 694 l 1,2,-1
 1496 1486 l 1,3,-1
 1716 1486 l 1,4,-1
 1716 0 l 1,5,-1
 1354 0 l 1,6,-1
 410 789 l 1,7,-1
 410 0 l 1,8,-1
 190 0 l 1,9,-1
 190 1486 l 1,0,-1
EndSplineSet
EndChar

StartChar: J
Encoding: 74 74 37
Width: 1004
Flags: W
LayerCount: 2
Fore
SplineSet
235 1486 m 1,0,-1
 813 1486 l 1,1,-1
 813 230 l 1,2,3
 814 89 814 89 770.5 -33.5 c 128,-1,4
 727 -156 727 -156 642 -250.5 c 128,-1,5
 557 -345 557 -345 434 -407.5 c 128,-1,6
 311 -470 311 -470 155 -490 c 1,7,-1
 83 -369 l 1,8,9
 123 -339 123 -339 151.5 -305 c 128,-1,10
 180 -271 180 -271 198.5 -226.5 c 128,-1,11
 217 -182 217 -182 226 -124.5 c 128,-1,12
 235 -67 235 -67 235 10 c 2,13,-1
 235 1486 l 1,0,-1
EndSplineSet
EndChar

StartChar: B
Encoding: 66 66 38
Width: 1844
Flags: W
LayerCount: 2
Fore
SplineSet
190 1486 m 1,0,-1
 976 1486 l 2,1,2
 1142 1486 1142 1486 1266.5 1458 c 128,-1,3
 1391 1430 1391 1430 1474.5 1378.5 c 128,-1,4
 1558 1327 1558 1327 1600 1254.5 c 128,-1,5
 1642 1182 1642 1182 1642 1093 c 256,6,7
 1642 1004 1642 1004 1592.5 925.5 c 128,-1,8
 1543 847 1543 847 1448 790 c 1,9,10
 1604 745 1604 745 1681 658 c 128,-1,11
 1758 571 1758 571 1758 445 c 0,12,13
 1758 359 1758 359 1716.5 279 c 128,-1,14
 1675 199 1675 199 1592.5 137 c 128,-1,15
 1510 75 1510 75 1386 37.5 c 128,-1,16
 1262 0 1262 0 1096 0 c 2,17,-1
 190 0 l 1,18,-1
 190 1486 l 1,0,-1
830 882 m 2,19,20
 912 882 912 882 968 897.5 c 128,-1,21
 1024 913 1024 913 1057.5 940 c 128,-1,22
 1091 967 1091 967 1105.5 1002 c 128,-1,23
 1120 1037 1120 1037 1120 1075 c 256,24,25
 1120 1113 1120 1113 1105.5 1148 c 128,-1,26
 1091 1183 1091 1183 1057.5 1209.5 c 128,-1,27
 1024 1236 1024 1236 968 1252 c 128,-1,28
 912 1268 912 1268 830 1268 c 2,29,-1
 769 1268 l 1,30,-1
 768 882 l 1,31,-1
 830 882 l 2,19,20
830 218 m 2,32,33
 919 218 919 218 980 237 c 128,-1,34
 1041 256 1041 256 1079 289 c 128,-1,35
 1117 322 1117 322 1134 366.5 c 128,-1,36
 1151 411 1151 411 1151 462 c 0,37,38
 1151 507 1151 507 1133 550 c 128,-1,39
 1115 593 1115 593 1079.5 626.5 c 128,-1,40
 1044 660 1044 660 992 680.5 c 128,-1,41
 940 701 940 701 872 701 c 2,42,-1
 768 701 l 1,43,-1
 768 218 l 1,44,-1
 830 218 l 2,32,33
EndSplineSet
EndChar

StartChar: period
Encoding: 46 46 39
Width: 975
Flags: W
LayerCount: 2
Fore
SplineSet
180 210 m 0,0,1
 180 257 180 257 197.5 298.5 c 128,-1,2
 215 340 215 340 252.5 370.5 c 128,-1,3
 290 401 290 401 348 419 c 128,-1,4
 406 437 406 437 488 437 c 0,5,6
 569 437 569 437 627.5 419 c 128,-1,7
 686 401 686 401 723 370.5 c 128,-1,8
 760 340 760 340 777.5 298.5 c 128,-1,9
 795 257 795 257 795 210 c 0,10,11
 795 162 795 162 777.5 120.5 c 128,-1,12
 760 79 760 79 723 48.5 c 128,-1,13
 686 18 686 18 627.5 0 c 128,-1,14
 569 -18 569 -18 488 -18 c 0,15,16
 406 -18 406 -18 348 0 c 128,-1,17
 290 18 290 18 252.5 48.5 c 128,-1,18
 215 79 215 79 197.5 120.5 c 128,-1,19
 180 162 180 162 180 210 c 0,0,1
EndSplineSet
EndChar

StartChar: exclam
Encoding: 33 33 40
Width: 975
Flags: W
LayerCount: 2
Fore
SplineSet
218 1485 m 1,0,-1
 759 1485 l 1,1,-1
 759 661 l 1,2,-1
 218 661 l 1,3,-1
 218 1485 l 1,0,-1
180 210 m 0,4,5
 180 257 180 257 197.5 298.5 c 128,-1,6
 215 340 215 340 252.5 370.5 c 128,-1,7
 290 401 290 401 348 419 c 128,-1,8
 406 437 406 437 488 437 c 0,9,10
 569 437 569 437 627.5 419 c 128,-1,11
 686 401 686 401 723 370.5 c 128,-1,12
 760 340 760 340 777.5 298.5 c 128,-1,13
 795 257 795 257 795 210 c 0,14,15
 795 162 795 162 777.5 120.5 c 128,-1,16
 760 79 760 79 723 48.5 c 128,-1,17
 686 18 686 18 627.5 0 c 128,-1,18
 569 -18 569 -18 488 -18 c 0,19,20
 406 -18 406 -18 348 0 c 128,-1,21
 290 18 290 18 252.5 48.5 c 128,-1,22
 215 79 215 79 197.5 120.5 c 128,-1,23
 180 162 180 162 180 210 c 0,4,5
EndSplineSet
EndChar

StartChar: hyphen
Encoding: 45 45 41
Width: 1007
Flags: W
LayerCount: 2
Fore
SplineSet
160 682 m 1,0,-1
 847 682 l 1,1,-1
 847 494 l 1,2,-1
 160 494 l 1,3,-1
 160 682 l 1,0,-1
EndSplineSet
EndChar

StartChar: question
Encoding: 63 63 42
Width: 1325
Flags: W
LayerCount: 2
Fore
SplineSet
322 992 m 1,0,1
 512 1013 512 1013 605 1067.5 c 128,-1,2
 698 1122 698 1122 698 1192 c 0,3,4
 698 1220 698 1220 688 1243.5 c 128,-1,5
 678 1267 678 1267 655.5 1284 c 128,-1,6
 633 1301 633 1301 597.5 1311 c 128,-1,7
 562 1321 562 1321 511 1321 c 0,8,9
 436 1321 436 1321 357 1298 c 128,-1,10
 278 1275 278 1275 193 1233 c 1,11,-1
 140 1393 l 1,12,13
 249 1446 249 1446 385.5 1478.5 c 128,-1,14
 522 1511 522 1511 672 1511 c 0,15,16
 838 1511 838 1511 955 1482.5 c 128,-1,17
 1072 1454 1072 1454 1145 1407 c 128,-1,18
 1218 1360 1218 1360 1251.5 1299 c 128,-1,19
 1285 1238 1285 1238 1285 1172 c 0,20,21
 1285 1017 1285 1017 1131 910.5 c 128,-1,22
 977 804 977 804 669 737 c 1,23,-1
 721 583 l 1,24,-1
 458 583 l 1,25,-1
 322 992 l 1,0,1
322 193 m 256,26,27
 322 237 322 237 338.5 275 c 128,-1,28
 355 313 355 313 389.5 341.5 c 128,-1,29
 424 370 424 370 478 386.5 c 128,-1,30
 532 403 532 403 608 403 c 0,31,32
 683 403 683 403 737 386.5 c 128,-1,33
 791 370 791 370 825.5 341.5 c 128,-1,34
 860 313 860 313 876.5 275 c 128,-1,35
 893 237 893 237 893 193 c 256,36,37
 893 149 893 149 876.5 110.5 c 128,-1,38
 860 72 860 72 825.5 43.5 c 128,-1,39
 791 15 791 15 737 -1.5 c 128,-1,40
 683 -18 683 -18 608 -18 c 0,41,42
 532 -18 532 -18 478 -1.5 c 128,-1,43
 424 15 424 15 389.5 43.5 c 128,-1,44
 355 72 355 72 338.5 110.5 c 128,-1,45
 322 149 322 149 322 193 c 256,26,27
EndSplineSet
EndChar

StartChar: one
Encoding: 49 49 43
Width: 1203
Flags: W
LayerCount: 2
Fore
SplineSet
422 1025 m 1,0,-1
 107 1025 l 1,1,-1
 107 1199 l 1,2,3
 171 1214 171 1214 231.5 1240.5 c 128,-1,4
 292 1267 292 1267 345 1303.5 c 128,-1,5
 398 1340 398 1340 442.5 1386 c 128,-1,6
 487 1432 487 1432 518 1485 c 1,7,-1
 963 1485 l 1,8,-1
 963 0 l 1,9,-1
 422 0 l 1,10,-1
 422 1025 l 1,0,-1
EndSplineSet
EndChar

StartChar: two
Encoding: 50 50 44
Width: 1511
Flags: W
LayerCount: 2
Fore
SplineSet
130 167 m 1,0,-1
 468 471 l 2,1,2
 568 561 568 561 632.5 634 c 128,-1,3
 697 707 697 707 734.5 769 c 128,-1,4
 772 831 772 831 786.5 884.5 c 128,-1,5
 801 938 801 938 801 988 c 0,6,7
 801 1049 801 1049 783 1099 c 128,-1,8
 765 1149 765 1149 730.5 1184.5 c 128,-1,9
 696 1220 696 1220 646.5 1239 c 128,-1,10
 597 1258 597 1258 533 1258 c 0,11,12
 444 1258 444 1258 357 1222 c 128,-1,13
 270 1186 270 1186 195 1123 c 1,14,-1
 83 1298 l 1,15,16
 131 1340 131 1340 199.5 1378.5 c 128,-1,17
 268 1417 268 1417 353 1446.5 c 128,-1,18
 438 1476 438 1476 535.5 1493 c 128,-1,19
 633 1510 633 1510 740 1510 c 0,20,21
 887 1510 887 1510 1001 1477 c 128,-1,22
 1115 1444 1115 1444 1193.5 1386 c 128,-1,23
 1272 1328 1272 1328 1312.5 1249 c 128,-1,24
 1353 1170 1353 1170 1353 1079 c 0,25,26
 1353 989 1353 989 1312 898 c 128,-1,27
 1271 807 1271 807 1187.5 717 c 128,-1,28
 1104 627 1104 627 977 539 c 128,-1,29
 850 451 850 451 679 368 c 1,30,-1
 976 392 l 1,31,-1
 1358 392 l 1,32,-1
 1358 0 l 1,33,-1
 134 0 l 1,34,-1
 136 2 l 1,35,-1
 130 0 l 1,36,-1
 130 167 l 1,0,-1
EndSplineSet
EndChar

StartChar: three
Encoding: 51 51 45
Width: 1558
Flags: W
LayerCount: 2
Fore
SplineSet
232 313 m 1,0,1
 252 306 252 306 286 295.5 c 128,-1,2
 320 285 320 285 363 274.5 c 128,-1,3
 406 264 406 264 453.5 256.5 c 128,-1,4
 501 249 501 249 548 249 c 0,5,6
 621 249 621 249 678 268.5 c 128,-1,7
 735 288 735 288 774 321 c 128,-1,8
 813 354 813 354 833.5 396.5 c 128,-1,9
 854 439 854 439 854 484 c 0,10,11
 854 536 854 536 828 581 c 128,-1,12
 802 626 802 626 753.5 657 c 128,-1,13
 705 688 705 688 636.5 702.5 c 128,-1,14
 568 717 568 717 483 708 c 1,15,-1
 483 834 l 1,16,-1
 860 1125 l 1,17,-1
 643 1114 l 1,18,-1
 208 1114 l 1,19,-1
 208 1486 l 1,20,-1
 1346 1486 l 1,21,-1
 1346 1273 l 1,22,-1
 858 905 l 1,23,24
 992 901 992 901 1094.5 865 c 128,-1,25
 1197 829 1197 829 1266 769 c 128,-1,26
 1335 709 1335 709 1370.5 630 c 128,-1,27
 1406 551 1406 551 1406 461 c 0,28,29
 1406 352 1406 352 1356 262.5 c 128,-1,30
 1306 173 1306 173 1216.5 109.5 c 128,-1,31
 1127 46 1127 46 1002 11.5 c 128,-1,32
 877 -23 877 -23 727 -23 c 0,33,34
 641 -23 641 -23 558.5 -11.5 c 128,-1,35
 476 0 476 0 399 21 c 128,-1,36
 322 42 322 42 251.5 72 c 128,-1,37
 181 102 181 102 121 139 c 1,38,-1
 232 313 l 1,0,1
EndSplineSet
EndChar

StartChar: five
Encoding: 53 53 46
Width: 1564
Flags: W
LayerCount: 2
Fore
SplineSet
258 294 m 1,0,1
 291 277 291 277 328 265 c 128,-1,2
 365 253 365 253 402.5 245 c 128,-1,3
 440 237 440 237 476.5 233 c 128,-1,4
 513 229 513 229 545 229 c 0,5,6
 619 229 619 229 677 248.5 c 128,-1,7
 735 268 735 268 775.5 301.5 c 128,-1,8
 816 335 816 335 837 380 c 128,-1,9
 858 425 858 425 858 476 c 0,10,11
 858 524 858 524 838.5 570.5 c 128,-1,12
 819 617 819 617 777.5 653 c 128,-1,13
 736 689 736 689 672 711.5 c 128,-1,14
 608 734 608 734 519 734 c 0,15,16
 484 734 484 734 446 730.5 c 128,-1,17
 408 727 408 727 369.5 720 c 128,-1,18
 331 713 331 713 294.5 704 c 128,-1,19
 258 695 258 695 225 683 c 1,20,-1
 287 1486 l 1,21,-1
 1317 1486 l 1,22,-1
 1317 1114 l 1,23,-1
 505 1114 l 1,24,-1
 482 869 l 1,25,26
 522 881 522 881 567 890.5 c 128,-1,27
 612 900 612 900 658.5 906.5 c 128,-1,28
 705 913 705 913 751.5 916 c 128,-1,29
 798 919 798 919 841 919 c 0,30,31
 987 919 987 919 1094.5 884.5 c 128,-1,32
 1202 850 1202 850 1272 790.5 c 128,-1,33
 1342 731 1342 731 1376 650 c 128,-1,34
 1410 569 1410 569 1410 476 c 0,35,36
 1410 359 1410 359 1359.5 266.5 c 128,-1,37
 1309 174 1309 174 1219 109.5 c 128,-1,38
 1129 45 1129 45 1004.5 11 c 128,-1,39
 880 -23 880 -23 731 -23 c 0,40,41
 642 -23 642 -23 558 -11 c 128,-1,42
 474 1 474 1 398 23.5 c 128,-1,43
 322 46 322 46 256 78 c 128,-1,44
 190 110 190 110 137 150 c 1,45,-1
 258 294 l 1,0,1
EndSplineSet
EndChar

StartChar: four
Encoding: 52 52 47
Width: 1714
Flags: W
LayerCount: 2
Fore
SplineSet
112 496 m 1,0,-1
 793 1486 l 1,1,-1
 1347 1486 l 1,2,-1
 1347 496 l 1,3,-1
 1586 496 l 1,4,-1
 1586 279 l 1,5,-1
 1347 279 l 1,6,-1
 1347 0 l 1,7,-1
 806 0 l 1,8,-1
 806 279 l 1,9,-1
 236 280 l 1,10,-1
 112 280 l 1,11,-1
 112 496 l 1,0,-1
806 496 m 1,12,-1
 806 1153 l 1,13,-1
 377 496 l 1,14,-1
 806 496 l 1,12,-1
EndSplineSet
EndChar

StartChar: seven
Encoding: 55 55 48
Width: 1415
Flags: W
LayerCount: 2
Fore
SplineSet
875 1025 m 1,0,-1
 515 1013 l 1,1,-1
 124 1013 l 1,2,-1
 124 1486 l 1,3,-1
 1140 1484 l 1,4,-1
 1337 1486 l 1,5,-1
 1337 1259 l 1,6,-1
 608 1 l 1,7,-1
 285 1 l 1,8,-1
 875 1025 l 1,0,-1
EndSplineSet
EndChar

StartChar: eight
Encoding: 56 56 49
Width: 1712
Flags: W
LayerCount: 2
Fore
SplineSet
176 413 m 0,0,1
 176 525 176 525 234.5 620 c 128,-1,2
 293 715 293 715 405 784 c 1,3,4
 368 811 368 811 337.5 842.5 c 128,-1,5
 307 874 307 874 284.5 910.5 c 128,-1,6
 262 947 262 947 249.5 989.5 c 128,-1,7
 237 1032 237 1032 237 1081 c 0,8,9
 237 1162 237 1162 274.5 1239 c 128,-1,10
 312 1316 312 1316 391.5 1376 c 128,-1,11
 471 1436 471 1436 594.5 1473 c 128,-1,12
 718 1510 718 1510 891 1510 c 0,13,14
 1045 1510 1045 1510 1153.5 1480.5 c 128,-1,15
 1262 1451 1262 1451 1330.5 1401.5 c 128,-1,16
 1399 1352 1399 1352 1430 1288.5 c 128,-1,17
 1461 1225 1461 1225 1461 1158 c 0,18,19
 1461 1074 1461 1074 1418 998 c 128,-1,20
 1375 922 1375 922 1300 853 c 1,21,22
 1355 820 1355 820 1405 781 c 128,-1,23
 1455 742 1455 742 1492 694 c 128,-1,24
 1529 646 1529 646 1551 587 c 128,-1,25
 1573 528 1573 528 1573 455 c 0,26,27
 1573 339 1573 339 1516 250 c 128,-1,28
 1459 161 1459 161 1360 100 c 128,-1,29
 1261 39 1261 39 1128.5 8 c 128,-1,30
 996 -23 996 -23 845 -23 c 0,31,32
 678 -23 678 -23 553 12.5 c 128,-1,33
 428 48 428 48 344 108 c 128,-1,34
 260 168 260 168 218 247 c 128,-1,35
 176 326 176 326 176 413 c 0,0,1
817 1187 m 0,36,37
 817 1146 817 1146 843.5 1113.5 c 128,-1,38
 870 1081 870 1081 914.5 1051.5 c 128,-1,39
 959 1022 959 1022 1017 994.5 c 128,-1,40
 1075 967 1075 967 1138 937 c 1,41,42
 1200 987 1200 987 1228 1037 c 128,-1,43
 1256 1087 1256 1087 1256 1135 c 0,44,45
 1256 1172 1256 1172 1239 1207 c 128,-1,46
 1222 1242 1222 1242 1191 1268 c 128,-1,47
 1160 1294 1160 1294 1116 1310 c 128,-1,48
 1072 1326 1072 1326 1018 1326 c 0,49,50
 974 1326 974 1326 937 1315.5 c 128,-1,51
 900 1305 900 1305 873.5 1286 c 128,-1,52
 847 1267 847 1267 832 1242 c 128,-1,53
 817 1217 817 1217 817 1187 c 0,36,37
381 437 m 0,54,55
 381 379 381 379 406 328.5 c 128,-1,56
 431 278 431 278 478 241 c 128,-1,57
 525 204 525 204 592.5 183 c 128,-1,58
 660 162 660 162 745 162 c 0,59,60
 815 162 815 162 866 176.5 c 128,-1,61
 917 191 917 191 950 215 c 128,-1,62
 983 239 983 239 998.5 271 c 128,-1,63
 1014 303 1014 303 1014 339 c 0,64,65
 1014 401 1014 401 973 448.5 c 128,-1,66
 932 496 932 496 866.5 536 c 128,-1,67
 801 576 801 576 720 613 c 128,-1,68
 639 650 639 650 559 691 c 1,69,70
 469 646 469 646 425 579 c 128,-1,71
 381 512 381 512 381 437 c 0,54,55
EndSplineSet
EndChar

StartChar: nine
Encoding: 57 57 50
Width: 1720
Flags: W
LayerCount: 2
Fore
SplineSet
491 116 m 1,0,1
 589 152 589 152 668.5 197 c 128,-1,2
 748 242 748 242 809.5 300.5 c 128,-1,3
 871 359 871 359 914.5 432.5 c 128,-1,4
 958 506 958 506 984 599 c 1,5,6
 919 567 919 567 843 550 c 128,-1,7
 767 533 767 533 673 533 c 0,8,9
 534 533 534 533 426 568.5 c 128,-1,10
 318 604 318 604 244.5 665.5 c 128,-1,11
 171 727 171 727 132.5 809.5 c 128,-1,12
 94 892 94 892 94 985 c 0,13,14
 94 1095 94 1095 146.5 1190.5 c 128,-1,15
 199 1286 199 1286 296.5 1357 c 128,-1,16
 394 1428 394 1428 532 1469 c 128,-1,17
 670 1510 670 1510 842 1510 c 0,18,19
 976 1510 976 1510 1082.5 1485 c 128,-1,20
 1189 1460 1189 1460 1271 1416.5 c 128,-1,21
 1353 1373 1353 1373 1411 1313.5 c 128,-1,22
 1469 1254 1469 1254 1506 1184.5 c 128,-1,23
 1543 1115 1543 1115 1560.5 1038 c 128,-1,24
 1578 961 1578 961 1578 884 c 0,25,26
 1578 776 1578 776 1546.5 671.5 c 128,-1,27
 1515 567 1515 567 1455 472.5 c 128,-1,28
 1395 378 1395 378 1308 295.5 c 128,-1,29
 1221 213 1221 213 1110 148.5 c 128,-1,30
 999 84 999 84 866.5 41 c 128,-1,31
 734 -2 734 -2 582 -19 c 1,32,-1
 491 116 l 1,0,1
852 726 m 0,33,34
 952 726 952 726 1018 799 c 1,35,36
 1020 829 1020 829 1021.5 860.5 c 128,-1,37
 1023 892 1023 892 1023 925 c 0,38,39
 1023 1046 1023 1046 1008.5 1123.5 c 128,-1,40
 994 1201 994 1201 969 1246 c 128,-1,41
 944 1291 944 1291 910.5 1308 c 128,-1,42
 877 1325 877 1325 840 1325 c 0,43,44
 752 1325 752 1325 699 1246.5 c 128,-1,45
 646 1168 646 1168 646 1016 c 0,46,47
 646 937 646 937 661 882 c 128,-1,48
 676 827 676 827 703 792.5 c 128,-1,49
 730 758 730 758 768 742 c 128,-1,50
 806 726 806 726 852 726 c 0,33,34
EndSplineSet
EndChar

StartChar: six
Encoding: 54 54 51
Width: 1720
Flags: W
LayerCount: 2
Fore
SplineSet
142 603 m 0,0,1
 142 711 142 711 173.5 815.5 c 128,-1,2
 205 920 205 920 265 1014.5 c 128,-1,3
 325 1109 325 1109 412 1191.5 c 128,-1,4
 499 1274 499 1274 610 1338.5 c 128,-1,5
 721 1403 721 1403 853.5 1446 c 128,-1,6
 986 1489 986 1489 1138 1506 c 1,7,-1
 1229 1371 l 1,8,9
 1131 1335 1131 1335 1051.5 1290 c 128,-1,10
 972 1245 972 1245 910.5 1186.5 c 128,-1,11
 849 1128 849 1128 805.5 1054.5 c 128,-1,12
 762 981 762 981 736 888 c 1,13,14
 801 920 801 920 877 937 c 128,-1,15
 953 954 953 954 1047 954 c 0,16,17
 1186 954 1186 954 1294 918.5 c 128,-1,18
 1402 883 1402 883 1475.5 821.5 c 128,-1,19
 1549 760 1549 760 1587.5 677.5 c 128,-1,20
 1626 595 1626 595 1626 502 c 0,21,22
 1626 392 1626 392 1573.5 296.5 c 128,-1,23
 1521 201 1521 201 1423.5 130 c 128,-1,24
 1326 59 1326 59 1188 18 c 128,-1,25
 1050 -23 1050 -23 878 -23 c 0,26,27
 744 -23 744 -23 637.5 2 c 128,-1,28
 531 27 531 27 449 70.5 c 128,-1,29
 367 114 367 114 309 173.5 c 128,-1,30
 251 233 251 233 214 302.5 c 128,-1,31
 177 372 177 372 159.5 448.5 c 128,-1,32
 142 525 142 525 142 603 c 0,0,1
880 162 m 0,33,34
 968 162 968 162 1021 240.5 c 128,-1,35
 1074 319 1074 319 1074 471 c 0,36,37
 1074 550 1074 550 1059 605 c 128,-1,38
 1044 660 1044 660 1017 694.5 c 128,-1,39
 990 729 990 729 952 745 c 128,-1,40
 914 761 914 761 868 761 c 0,41,42
 817 761 817 761 776 742.5 c 128,-1,43
 735 724 735 724 701 687 c 1,44,45
 699 658 699 658 698 626.5 c 128,-1,46
 697 595 697 595 697 562 c 0,47,48
 697 441 697 441 711.5 363.5 c 128,-1,49
 726 286 726 286 751 241 c 128,-1,50
 776 196 776 196 809.5 179 c 128,-1,51
 843 162 843 162 880 162 c 0,33,34
EndSplineSet
EndChar

StartChar: slash
Encoding: 47 47 52
Width: 1227
Flags: W
LayerCount: 2
Fore
SplineSet
861 1510 m 1,0,-1
 1134 1362 l 1,1,-1
 404 -23 l 1,2,-1
 131 124 l 1,3,-1
 861 1510 l 1,0,-1
EndSplineSet
EndChar

StartChar: greater
Encoding: 62 62 53
Width: 1034
Flags: W
LayerCount: 2
Fore
SplineSet
175 309 m 1,0,-1
 614 661 l 1,1,-1
 175 1013 l 1,2,-1
 297 1167 l 1,3,-1
 911 661 l 1,4,-1
 297 155 l 1,5,-1
 175 309 l 1,0,-1
EndSplineSet
EndChar

StartChar: zero
Encoding: 48 48 54
Width: 1782
Flags: W
LayerCount: 2
Fore
SplineSet
142 746 m 256,0,1
 142 927 142 927 190.5 1069 c 128,-1,2
 239 1211 239 1211 333.5 1309 c 128,-1,3
 428 1407 428 1407 568 1458.5 c 128,-1,4
 708 1510 708 1510 891 1510 c 256,5,6
 1074 1510 1074 1510 1214 1458.5 c 128,-1,7
 1354 1407 1354 1407 1448.5 1309 c 128,-1,8
 1543 1211 1543 1211 1591.5 1069 c 128,-1,9
 1640 927 1640 927 1640 746 c 256,10,11
 1640 565 1640 565 1591.5 423 c 128,-1,12
 1543 281 1543 281 1448.5 183 c 128,-1,13
 1354 85 1354 85 1214 33.5 c 128,-1,14
 1074 -18 1074 -18 891 -18 c 256,15,16
 708 -18 708 -18 568 33.5 c 128,-1,17
 428 85 428 85 333.5 183 c 128,-1,18
 239 281 239 281 190.5 423 c 128,-1,19
 142 565 142 565 142 746 c 256,0,1
891 167 m 256,20,21
 916 167 916 167 940 175.5 c 128,-1,22
 964 184 964 184 985 207 c 128,-1,23
 1006 230 1006 230 1023.5 270.5 c 128,-1,24
 1041 311 1041 311 1053.5 375.5 c 128,-1,25
 1066 440 1066 440 1073 531 c 128,-1,26
 1080 622 1080 622 1080 746 c 256,27,28
 1080 870 1080 870 1073 961 c 128,-1,29
 1066 1052 1066 1052 1053.5 1116.5 c 128,-1,30
 1041 1181 1041 1181 1023.5 1221.5 c 128,-1,31
 1006 1262 1006 1262 985 1285 c 128,-1,32
 964 1308 964 1308 940 1316.5 c 128,-1,33
 916 1325 916 1325 891 1325 c 256,34,35
 866 1325 866 1325 842 1316.5 c 128,-1,36
 818 1308 818 1308 797 1285 c 128,-1,37
 776 1262 776 1262 758.5 1221.5 c 128,-1,38
 741 1181 741 1181 728.5 1116.5 c 128,-1,39
 716 1052 716 1052 709 961 c 128,-1,40
 702 870 702 870 702 746 c 256,41,42
 702 622 702 622 709 531 c 128,-1,43
 716 440 716 440 728.5 375.5 c 128,-1,44
 741 311 741 311 758.5 270.5 c 128,-1,45
 776 230 776 230 797 207 c 128,-1,46
 818 184 818 184 842 175.5 c 128,-1,47
 866 167 866 167 891 167 c 256,20,21
EndSplineSet
EndChar

StartChar: a
Encoding: 97 97 55
Width: 1557
Flags: W
LayerCount: 2
Fore
SplineSet
75 312 m 0,0,1
 75 384 75 384 107 446 c 128,-1,2
 139 508 139 508 199 554 c 128,-1,3
 259 600 259 600 344 626.5 c 128,-1,4
 429 653 429 653 534 653 c 256,5,6
 639 653 639 653 730.5 628.5 c 128,-1,7
 822 604 822 604 884 566 c 1,8,-1
 884 574 l 2,9,10
 884 644 884 644 868.5 693 c 128,-1,11
 853 742 853 742 821 773 c 128,-1,12
 789 804 789 804 739.5 818 c 128,-1,13
 690 832 690 832 623 832 c 0,14,15
 562 832 562 832 497 821.5 c 128,-1,16
 432 811 432 811 377 791 c 1,17,-1
 304 926 l 1,18,19
 413 971 413 971 529.5 990.5 c 128,-1,20
 646 1010 646 1010 770 1010 c 0,21,22
 929 1010 929 1010 1051.5 979.5 c 128,-1,23
 1174 949 1174 949 1257.5 888.5 c 128,-1,24
 1341 828 1341 828 1384 736.5 c 128,-1,25
 1427 645 1427 645 1427 522 c 2,26,-1
 1427 0 l 1,27,-1
 920 0 l 1,28,-1
 886 96 l 1,29,30
 856 73 856 73 815 52 c 128,-1,31
 774 31 774 31 725 15 c 128,-1,32
 676 -1 676 -1 621 -10 c 128,-1,33
 566 -19 566 -19 506 -19 c 0,34,35
 408 -19 408 -19 328.5 6.5 c 128,-1,36
 249 32 249 32 193 76 c 128,-1,37
 137 120 137 120 106 180.5 c 128,-1,38
 75 241 75 241 75 312 c 0,0,1
635 333 m 0,39,40
 635 279 635 279 670 245.5 c 128,-1,41
 705 212 705 212 764 212 c 0,42,43
 796 212 796 212 827 222.5 c 128,-1,44
 858 233 858 233 884 254 c 1,45,-1
 884 423 l 1,46,47
 834 453 834 453 774 453 c 0,48,49
 706 453 706 453 670.5 419.5 c 128,-1,50
 635 386 635 386 635 333 c 0,39,40
EndSplineSet
EndChar

StartChar: comma
Encoding: 44 44 56
Width: 983
Flags: W
LayerCount: 2
Fore
SplineSet
180 136 m 1,0,1
 180 203 180 203 205 258.5 c 128,-1,2
 230 314 230 314 272 353.5 c 128,-1,3
 314 393 314 393 370.5 415 c 128,-1,4
 427 437 427 437 490 437 c 0,5,6
 560 437 560 437 617.5 415.5 c 128,-1,7
 675 394 675 394 716.5 354.5 c 128,-1,8
 758 315 758 315 780.5 259.5 c 128,-1,9
 803 204 803 204 803 136 c 0,10,11
 803 67 803 67 777.5 -9.5 c 128,-1,12
 752 -86 752 -86 704.5 -163.5 c 128,-1,13
 657 -241 657 -241 588 -317.5 c 128,-1,14
 519 -394 519 -394 432 -464 c 1,15,-1
 290 -353 l 1,16,17
 330 -311 330 -311 363.5 -272.5 c 128,-1,18
 397 -234 397 -234 424 -195.5 c 128,-1,19
 451 -157 451 -157 473.5 -116.5 c 128,-1,20
 496 -76 496 -76 515 -30 c 1,21,-1
 180 136 l 1,22,-1
 180 136 l 1,0,1
EndSplineSet
EndChar

StartChar: D
Encoding: 68 68 57
Width: 1908
Flags: W
LayerCount: 2
Fore
SplineSet
190 1486 m 1,0,-1
 801 1486 l 2,1,2
 1059 1486 1059 1486 1248 1437.5 c 128,-1,3
 1437 1389 1437 1389 1561 1295 c 128,-1,4
 1685 1201 1685 1201 1745 1064 c 128,-1,5
 1805 927 1805 927 1805 750 c 0,6,7
 1805 592 1805 592 1745 455.5 c 128,-1,8
 1685 319 1685 319 1561 217.5 c 128,-1,9
 1437 116 1437 116 1248 58 c 128,-1,10
 1059 0 1059 0 801 0 c 2,11,-1
 190 0 l 1,12,-1
 190 1486 l 1,0,-1
768 218 m 1,13,14
 868 218 868 218 948 249 c 128,-1,15
 1028 280 1028 280 1083.5 345 c 128,-1,16
 1139 410 1139 410 1168.5 510.5 c 128,-1,17
 1198 611 1198 611 1198 751 c 0,18,19
 1198 890 1198 890 1168 988 c 128,-1,20
 1138 1086 1138 1086 1082 1148.5 c 128,-1,21
 1026 1211 1026 1211 946.5 1239.5 c 128,-1,22
 867 1268 867 1268 769 1268 c 1,23,-1
 768 218 l 1,13,14
EndSplineSet
EndChar

StartChar: C
Encoding: 67 67 58
Width: 1591
Flags: W
LayerCount: 2
Fore
SplineSet
103 742 m 0,0,1
 103 848 103 848 130.5 946.5 c 128,-1,2
 158 1045 158 1045 211 1130 c 128,-1,3
 264 1215 264 1215 341 1285 c 128,-1,4
 418 1355 418 1355 516.5 1405 c 128,-1,5
 615 1455 615 1455 734 1482.5 c 128,-1,6
 853 1510 853 1510 990 1510 c 0,7,8
 1078 1510 1078 1510 1158.5 1499 c 128,-1,9
 1239 1488 1239 1488 1310 1468.5 c 128,-1,10
 1381 1449 1381 1449 1441.5 1423.5 c 128,-1,11
 1502 1398 1502 1398 1551 1370 c 1,12,-1
 1465 1202 l 1,13,14
 1409 1229 1409 1229 1337.5 1247.5 c 128,-1,15
 1266 1266 1266 1266 1189 1266 c 0,16,17
 1086 1266 1086 1266 998 1229 c 128,-1,18
 910 1192 910 1192 846 1124 c 128,-1,19
 782 1056 782 1056 745.5 959.5 c 128,-1,20
 709 863 709 863 709 743 c 0,21,22
 709 624 709 624 745 527.5 c 128,-1,23
 781 431 781 431 844.5 362.5 c 128,-1,24
 908 294 908 294 995.5 256.5 c 128,-1,25
 1083 219 1083 219 1185 219 c 0,26,27
 1257 219 1257 219 1329 236.5 c 128,-1,28
 1401 254 1401 254 1461 283 c 1,29,-1
 1547 115 l 1,30,31
 1498 86 1498 86 1438 61 c 128,-1,32
 1378 36 1378 36 1308 16.5 c 128,-1,33
 1238 -3 1238 -3 1158 -14 c 128,-1,34
 1078 -25 1078 -25 990 -25 c 0,35,36
 785 -25 785 -25 620.5 35.5 c 128,-1,37
 456 96 456 96 341 200.5 c 128,-1,38
 226 305 226 305 164.5 444.5 c 128,-1,39
 103 584 103 584 103 742 c 0,0,1
EndSplineSet
EndChar

StartChar: G
Encoding: 71 71 59
Width: 1801
Flags: W
LayerCount: 2
Fore
SplineSet
103 742 m 0,0,1
 103 848 103 848 130.5 946.5 c 128,-1,2
 158 1045 158 1045 211 1130 c 128,-1,3
 264 1215 264 1215 341 1285 c 128,-1,4
 418 1355 418 1355 516.5 1405 c 128,-1,5
 615 1455 615 1455 734 1482.5 c 128,-1,6
 853 1510 853 1510 990 1510 c 0,7,8
 1078 1510 1078 1510 1158.5 1499 c 128,-1,9
 1239 1488 1239 1488 1310 1468.5 c 128,-1,10
 1381 1449 1381 1449 1441.5 1423.5 c 128,-1,11
 1502 1398 1502 1398 1551 1370 c 1,12,-1
 1465 1202 l 1,13,14
 1409 1229 1409 1229 1337.5 1247.5 c 128,-1,15
 1266 1266 1266 1266 1189 1266 c 0,16,17
 1086 1266 1086 1266 998 1229 c 128,-1,18
 910 1192 910 1192 846 1124 c 128,-1,19
 782 1056 782 1056 745.5 959.5 c 128,-1,20
 709 863 709 863 709 743 c 0,21,22
 709 624 709 624 745 527.5 c 128,-1,23
 781 431 781 431 844.5 362.5 c 128,-1,24
 908 294 908 294 995.5 256.5 c 128,-1,25
 1083 219 1083 219 1185 219 c 1,26,-1
 1185 722 l 1,27,-1
 1768 722 l 1,28,-1
 1664 533 l 1,29,-1
 1664 129 l 1,30,-1
 1665 127 l 1,31,32
 1616 98 1616 98 1544 71 c 128,-1,33
 1472 44 1472 44 1383.5 22.5 c 128,-1,34
 1295 1 1295 1 1195 -12 c 128,-1,35
 1095 -25 1095 -25 990 -25 c 0,36,37
 785 -25 785 -25 620.5 35.5 c 128,-1,38
 456 96 456 96 341 200.5 c 128,-1,39
 226 305 226 305 164.5 444.5 c 128,-1,40
 103 584 103 584 103 742 c 0,0,1
EndSplineSet
EndChar

StartChar: O
Encoding: 79 79 60
Width: 1914
Flags: W
LayerCount: 2
Fore
SplineSet
103 746 m 0,0,1
 103 915 103 915 157 1055.5 c 128,-1,2
 211 1196 211 1196 318 1297 c 128,-1,3
 425 1398 425 1398 585 1454 c 128,-1,4
 745 1510 745 1510 957 1510 c 256,5,6
 1169 1510 1169 1510 1329 1454 c 128,-1,7
 1489 1398 1489 1398 1596 1297 c 128,-1,8
 1703 1196 1703 1196 1757 1055.5 c 128,-1,9
 1811 915 1811 915 1811 746 c 0,10,11
 1811 575 1811 575 1757 433 c 128,-1,12
 1703 291 1703 291 1596 190 c 128,-1,13
 1489 89 1489 89 1329 33 c 128,-1,14
 1169 -23 1169 -23 957 -23 c 256,15,16
 745 -23 745 -23 585 33 c 128,-1,17
 425 89 425 89 318 190 c 128,-1,18
 211 291 211 291 157 433 c 128,-1,19
 103 575 103 575 103 746 c 0,0,1
957 184 m 256,20,21
 1017 184 1017 184 1063 205 c 128,-1,22
 1109 226 1109 226 1140 287 c 128,-1,23
 1171 348 1171 348 1187 458 c 128,-1,24
 1203 568 1203 568 1203 746 c 0,25,26
 1203 922 1203 922 1187 1031 c 128,-1,27
 1171 1140 1171 1140 1140 1200 c 128,-1,28
 1109 1260 1109 1260 1063 1281 c 128,-1,29
 1017 1302 1017 1302 957 1302 c 256,30,31
 897 1302 897 1302 850.5 1281 c 128,-1,32
 804 1260 804 1260 773 1200 c 128,-1,33
 742 1140 742 1140 726 1031 c 128,-1,34
 710 922 710 922 710 746 c 0,35,36
 710 568 710 568 726 458 c 128,-1,37
 742 348 742 348 773 287 c 128,-1,38
 804 226 804 226 850.5 205 c 128,-1,39
 897 184 897 184 957 184 c 256,20,21
EndSplineSet
EndChar

StartChar: P
Encoding: 80 80 61
Width: 1714
Flags: W
LayerCount: 2
Fore
SplineSet
190 1486 m 1,0,-1
 905 1486 l 1,1,2
 1103 1487 1103 1487 1246.5 1451.5 c 128,-1,3
 1390 1416 1390 1416 1483 1350 c 128,-1,4
 1576 1284 1576 1284 1620.5 1191.5 c 128,-1,5
 1665 1099 1665 1099 1665 986 c 0,6,7
 1665 887 1665 887 1623.5 796.5 c 128,-1,8
 1582 706 1582 706 1495.5 637 c 128,-1,9
 1409 568 1409 568 1275.5 527 c 128,-1,10
 1142 486 1142 486 958 486 c 2,11,-1
 768 486 l 1,12,-1
 768 0 l 1,13,-1
 190 0 l 1,14,-1
 190 1486 l 1,0,-1
768 704 m 1,15,16
 837 705 837 705 891 725.5 c 128,-1,17
 945 746 945 746 982 782.5 c 128,-1,18
 1019 819 1019 819 1038.5 870.5 c 128,-1,19
 1058 922 1058 922 1058 986 c 0,20,21
 1058 1049 1058 1049 1038 1100 c 128,-1,22
 1018 1151 1018 1151 980.5 1187.5 c 128,-1,23
 943 1224 943 1224 889.5 1245 c 128,-1,24
 836 1266 836 1266 768 1268 c 1,25,-1
 768 704 l 1,15,16
EndSplineSet
EndChar

StartChar: Q
Encoding: 81 81 62
Width: 1915
Flags: W
LayerCount: 2
Fore
SplineSet
103 746 m 0,0,1
 103 915 103 915 157 1055.5 c 128,-1,2
 211 1196 211 1196 318 1297 c 128,-1,3
 425 1398 425 1398 585 1454 c 128,-1,4
 745 1510 745 1510 957 1510 c 0,5,6
 1168 1510 1168 1510 1328 1454 c 128,-1,7
 1488 1398 1488 1398 1595 1297 c 128,-1,8
 1702 1196 1702 1196 1756 1055.5 c 128,-1,9
 1810 915 1810 915 1810 746 c 0,10,11
 1810 615 1810 615 1778.5 501.5 c 128,-1,12
 1747 388 1747 388 1685 296 c 128,-1,13
 1623 204 1623 204 1529.5 136 c 128,-1,14
 1436 68 1436 68 1313 28 c 1,15,16
 1362 12 1362 12 1438 5 c 128,-1,17
 1514 -2 1514 -2 1628 -1 c 1,18,-1
 1810 -1 l 1,19,-1
 1659 -269 l 1,20,21
 1533 -269 1533 -269 1429.5 -254.5 c 128,-1,22
 1326 -240 1326 -240 1242.5 -210 c 128,-1,23
 1159 -180 1159 -180 1093.5 -133.5 c 128,-1,24
 1028 -87 1028 -87 977 -23 c 1,25,-1
 957 -23 l 2,26,27
 745 -23 745 -23 585 33 c 128,-1,28
 425 89 425 89 318 190 c 128,-1,29
 211 291 211 291 157 433 c 128,-1,30
 103 575 103 575 103 746 c 0,0,1
957 184 m 256,31,32
 1017 184 1017 184 1063 205 c 128,-1,33
 1109 226 1109 226 1140 287 c 128,-1,34
 1171 348 1171 348 1187 458 c 128,-1,35
 1203 568 1203 568 1203 746 c 0,36,37
 1203 922 1203 922 1187 1031 c 128,-1,38
 1171 1140 1171 1140 1140 1200 c 128,-1,39
 1109 1260 1109 1260 1063 1281 c 128,-1,40
 1017 1302 1017 1302 957 1302 c 256,41,42
 897 1302 897 1302 850.5 1281 c 128,-1,43
 804 1260 804 1260 773 1200 c 128,-1,44
 742 1140 742 1140 726 1031 c 128,-1,45
 710 922 710 922 710 746 c 0,46,47
 710 568 710 568 726 458 c 128,-1,48
 742 348 742 348 773 287 c 128,-1,49
 804 226 804 226 850.5 205 c 128,-1,50
 897 184 897 184 957 184 c 256,31,32
EndSplineSet
EndChar

StartChar: S
Encoding: 83 83 63
Width: 1621
Flags: W
LayerCount: 2
Fore
SplineSet
210 330 m 1,0,1
 316 276 316 276 432 249 c 128,-1,2
 548 222 548 222 648 222 c 0,3,4
 763 222 763 222 816.5 255 c 128,-1,5
 870 288 870 288 870 345 c 0,6,7
 870 363 870 363 863.5 382 c 128,-1,8
 857 401 857 401 838.5 419.5 c 128,-1,9
 820 438 820 438 787.5 456.5 c 128,-1,10
 755 475 755 475 703 493 c 2,11,-1
 524 554 l 2,12,13
 332 620 332 620 235 732.5 c 128,-1,14
 138 845 138 845 138 1000 c 0,15,16
 138 1100 138 1100 180 1192.5 c 128,-1,17
 222 1285 222 1285 307 1355.5 c 128,-1,18
 392 1426 392 1426 521.5 1468 c 128,-1,19
 651 1510 651 1510 825 1510 c 0,20,21
 911 1510 911 1510 990 1500 c 128,-1,22
 1069 1490 1069 1490 1138.5 1474 c 128,-1,23
 1208 1458 1208 1458 1266 1437.5 c 128,-1,24
 1324 1417 1324 1417 1368 1397 c 1,25,-1
 1260 1202 l 1,26,27
 1228 1222 1228 1222 1192.5 1237 c 128,-1,28
 1157 1252 1157 1252 1121.5 1262 c 128,-1,29
 1086 1272 1086 1272 1052 1277 c 128,-1,30
 1018 1282 1018 1282 990 1282 c 0,31,32
 942 1282 942 1282 906 1269.5 c 128,-1,33
 870 1257 870 1257 845.5 1236.5 c 128,-1,34
 821 1216 821 1216 808.5 1190.5 c 128,-1,35
 796 1165 796 1165 796 1140 c 0,36,37
 796 1118 796 1118 806.5 1097.5 c 128,-1,38
 817 1077 817 1077 842.5 1057.5 c 128,-1,39
 868 1038 868 1038 909.5 1018.5 c 128,-1,40
 951 999 951 999 1013 978 c 2,41,-1
 1133 938 l 2,42,43
 1328 873 1328 873 1431 759 c 128,-1,44
 1534 645 1534 645 1534 483 c 0,45,46
 1534 373 1534 373 1484.5 280 c 128,-1,47
 1435 187 1435 187 1337 119.5 c 128,-1,48
 1239 52 1239 52 1093.5 14.5 c 128,-1,49
 948 -23 948 -23 756 -23 c 0,50,51
 664 -23 664 -23 578.5 -13.5 c 128,-1,52
 493 -4 493 -4 411.5 15 c 128,-1,53
 330 34 330 34 251 63 c 128,-1,54
 172 92 172 92 93 131 c 1,55,-1
 210 330 l 1,0,1
EndSplineSet
EndChar

StartChar: U
Encoding: 85 85 64
Width: 1665
Flags: W
LayerCount: 2
Fore
SplineSet
184 1486 m 1,0,-1
 762 1486 l 1,1,-1
 762 542 l 2,2,3
 762 462 762 462 783.5 403.5 c 128,-1,4
 805 345 805 345 843.5 306.5 c 128,-1,5
 882 268 882 268 934 249 c 128,-1,6
 986 230 986 230 1046 230 c 0,7,8
 1112 230 1112 230 1164.5 249 c 128,-1,9
 1217 268 1217 268 1254 307 c 128,-1,10
 1291 346 1291 346 1311 405 c 128,-1,11
 1331 464 1331 464 1331 544 c 2,12,-1
 1331 1486 l 1,13,-1
 1551 1486 l 1,14,-1
 1551 578 l 2,15,16
 1551 440 1551 440 1506.5 329 c 128,-1,17
 1462 218 1462 218 1380 139.5 c 128,-1,18
 1298 61 1298 61 1182 19 c 128,-1,19
 1066 -23 1066 -23 923 -23 c 0,20,21
 728 -23 728 -23 588 18.5 c 128,-1,22
 448 60 448 60 358 137.5 c 128,-1,23
 268 215 268 215 226 325 c 128,-1,24
 184 435 184 435 184 573 c 2,25,-1
 184 1486 l 1,0,-1
EndSplineSet
EndChar

StartChar: M
Encoding: 77 77 65
Width: 2283
Flags: W
LayerCount: 2
Fore
SplineSet
190 1486 m 1,0,-1
 599 1486 l 1,1,-1
 1161 708 l 1,2,-1
 1695 1486 l 1,3,-1
 2093 1486 l 1,4,-1
 2093 0 l 1,5,-1
 1516 0 l 1,6,-1
 1516 759 l 1,7,-1
 962 -19 l 1,8,-1
 410 759 l 1,9,-1
 410 0 l 1,10,-1
 190 0 l 1,11,-1
 190 1486 l 1,0,-1
EndSplineSet
EndChar

StartChar: K
Encoding: 75 75 66
Width: 1851
Flags: W
LayerCount: 2
Fore
SplineSet
190 1486 m 1,0,-1
 768 1486 l 1,1,-1
 768 625 l 1,2,-1
 1411 1486 l 1,3,-1
 1700 1486 l 1,4,-1
 1226 848 l 1,5,-1
 1847 -1 l 1,6,-1
 1196 -1 l 1,7,-1
 864 466 l 1,8,-1
 768 334 l 1,9,-1
 768 0 l 1,10,-1
 190 0 l 1,11,-1
 190 1486 l 1,0,-1
EndSplineSet
EndChar

StartChar: V
Encoding: 86 86 67
Width: 1618
Flags: W
LayerCount: 2
Fore
SplineSet
41 1486 m 1,0,-1
 674 1486 l 1,1,-1
 1022 531 l 1,2,-1
 1344 1486 l 1,3,-1
 1605 1487 l 1,4,-1
 1084 0 l 1,5,-1
 613 1 l 1,6,-1
 41 1486 l 1,0,-1
EndSplineSet
EndChar

StartChar: W
Encoding: 87 87 68
Width: 2357
Flags: W
LayerCount: 2
Fore
SplineSet
41 1486 m 1,0,-1
 674 1486 l 1,1,-1
 928 531 l 1,2,-1
 1091 1094 l 1,3,-1
 970 1486 l 1,4,-1
 1603 1486 l 1,5,-1
 1837 531 l 1,6,-1
 2083 1486 l 1,7,-1
 2344 1487 l 1,8,-1
 1899 0 l 1,9,-1
 1428 1 l 1,10,-1
 1208 714 l 1,11,-1
 990 0 l 1,12,-1
 519 1 l 1,13,-1
 41 1486 l 1,0,-1
EndSplineSet
EndChar

StartChar: Y
Encoding: 89 89 69
Width: 1607
Flags: W
LayerCount: 2
Fore
SplineSet
517 419 m 1,0,-1
 13 1486 l 1,1,-1
 646 1486 l 1,2,-1
 1012 720 l 1,3,-1
 1307 1486 l 1,4,-1
 1569 1486 l 1,5,-1
 1125 419 l 1,6,-1
 1125 0 l 1,7,-1
 517 0 l 1,8,-1
 517 419 l 1,0,-1
EndSplineSet
EndChar

StartChar: X
Encoding: 88 88 70
Width: 1628
Flags: W
LayerCount: 2
Fore
SplineSet
512 714 m 1,0,-1
 30 1486 l 1,1,-1
 683 1486 l 1,2,-1
 973 1022 l 1,3,-1
 1269 1486 l 1,4,-1
 1530 1486 l 1,5,-1
 1096 824 l 1,6,-1
 1612 0 l 1,7,-1
 959 -1 l 1,8,-1
 633 519 l 1,9,-1
 296 -1 l 1,10,-1
 34 -1 l 1,11,-1
 512 714 l 1,0,-1
EndSplineSet
EndChar

StartChar: bracketleft
Encoding: 91 91 71
Width: 957
Flags: W
LayerCount: 2
Fore
SplineSet
220 1651 m 1,0,-1
 865 1651 l 1,1,-1
 783 1486 l 1,2,-1
 656 1486 l 1,3,-1
 656 -331 l 1,4,-1
 815 -331 l 1,5,-1
 733 -496 l 1,6,-1
 220 -496 l 1,7,-1
 220 1651 l 1,0,-1
EndSplineSet
EndChar

StartChar: at
Encoding: 64 64 72
Width: 2463
Flags: W
LayerCount: 2
Fore
SplineSet
180 469 m 0,0,1
 180 577 180 577 213 685.5 c 128,-1,2
 246 794 246 794 310.5 893 c 128,-1,3
 375 992 375 992 469 1077 c 128,-1,4
 563 1162 563 1162 685.5 1224.5 c 128,-1,5
 808 1287 808 1287 958 1323 c 128,-1,6
 1108 1359 1108 1359 1283 1359 c 0,7,8
 1422 1359 1422 1359 1550 1336 c 128,-1,9
 1678 1313 1678 1313 1789 1269 c 128,-1,10
 1900 1225 1900 1225 1991 1161 c 128,-1,11
 2082 1097 2082 1097 2147 1015 c 128,-1,12
 2212 933 2212 933 2247.5 833.5 c 128,-1,13
 2283 734 2283 734 2283 620 c 0,14,15
 2283 527 2283 527 2260 443.5 c 128,-1,16
 2237 360 2237 360 2196.5 289.5 c 128,-1,17
 2156 219 2156 219 2101 163 c 128,-1,18
 2046 107 2046 107 1982 68 c 128,-1,19
 1918 29 1918 29 1848 8 c 128,-1,20
 1778 -13 1778 -13 1707 -13 c 0,21,22
 1656 -13 1656 -13 1612.5 -2.5 c 128,-1,23
 1569 8 1569 8 1533.5 26.5 c 128,-1,24
 1498 45 1498 45 1470 69.5 c 128,-1,25
 1442 94 1442 94 1420 123 c 1,26,27
 1353 84 1353 84 1260 57.5 c 128,-1,28
 1167 31 1167 31 1061 31 c 0,29,30
 945 31 945 31 851.5 64.5 c 128,-1,31
 758 98 758 98 692 156.5 c 128,-1,32
 626 215 626 215 590 293.5 c 128,-1,33
 554 372 554 372 554 463 c 0,34,35
 554 556 554 556 591.5 636.5 c 128,-1,36
 629 717 629 717 698.5 776.5 c 128,-1,37
 768 836 768 836 865.5 870 c 128,-1,38
 963 904 963 904 1083 904 c 0,39,40
 1131 904 1131 904 1178 898.5 c 128,-1,41
 1225 893 1225 893 1269 883.5 c 128,-1,42
 1313 874 1313 874 1353 862 c 128,-1,43
 1393 850 1393 850 1427 837 c 1,44,-1
 1433 889 l 1,45,-1
 1923 889 l 1,46,-1
 1826 304 l 2,47,48
 1824 290 1824 290 1823 279 c 128,-1,49
 1822 268 1822 268 1822 258 c 0,50,51
 1822 205 1822 205 1855 205 c 0,52,53
 1882 205 1882 205 1918.5 237.5 c 128,-1,54
 1955 270 1955 270 1988.5 326.5 c 128,-1,55
 2022 383 2022 383 2045.5 459.5 c 128,-1,56
 2069 536 2069 536 2069 623 c 0,57,58
 2069 760 2069 760 2008 863 c 128,-1,59
 1947 966 1947 966 1840.5 1035 c 128,-1,60
 1734 1104 1734 1104 1591 1138.5 c 128,-1,61
 1448 1173 1448 1173 1284 1173 c 0,62,63
 1142 1173 1142 1173 1021 1147 c 128,-1,64
 900 1121 900 1121 801 1074.5 c 128,-1,65
 702 1028 702 1028 626.5 963 c 128,-1,66
 551 898 551 898 499.5 819.5 c 128,-1,67
 448 741 448 741 421.5 652 c 128,-1,68
 395 563 395 563 395 468 c 0,69,70
 395 359 395 359 428 267 c 128,-1,71
 461 175 461 175 521 101 c 128,-1,72
 581 27 581 27 665 -28.5 c 128,-1,73
 749 -84 749 -84 851 -121.5 c 128,-1,74
 953 -159 953 -159 1069 -178 c 128,-1,75
 1185 -197 1185 -197 1310 -197 c 0,76,77
 1400 -197 1400 -197 1492.5 -187 c 128,-1,78
 1585 -177 1585 -177 1679 -157 c 1,79,-1
 1657 -316 l 1,80,81
 1560 -345 1560 -345 1457 -359 c 128,-1,82
 1354 -373 1354 -373 1248 -373 c 0,83,84
 1116 -373 1116 -373 986 -350.5 c 128,-1,85
 856 -328 856 -328 737.5 -282.5 c 128,-1,86
 619 -237 619 -237 517 -167.5 c 128,-1,87
 415 -98 415 -98 340 -4.5 c 128,-1,88
 265 89 265 89 222.5 207 c 128,-1,89
 180 325 180 325 180 469 c 0,0,1
1153 488 m 0,90,91
 1153 442 1153 442 1166 403.5 c 128,-1,92
 1179 365 1179 365 1203 337 c 128,-1,93
 1227 309 1227 309 1260.5 293.5 c 128,-1,94
 1294 278 1294 278 1334 278 c 0,95,96
 1352 278 1352 278 1369 281 c 1,97,-1
 1411 681 l 1,98,99
 1377 689 1377 689 1345 689 c 0,100,101
 1299 689 1299 689 1263 674 c 128,-1,102
 1227 659 1227 659 1202.5 632.5 c 128,-1,103
 1178 606 1178 606 1165.5 569 c 128,-1,104
 1153 532 1153 532 1153 488 c 0,90,91
EndSplineSet
EndChar

StartChar: ampersand
Encoding: 38 38 73
Width: 1860
Flags: W
LayerCount: 2
Fore
SplineSet
180 472 m 0,0,1
 180 543 180 543 202.5 609.5 c 128,-1,2
 225 676 225 676 270.5 734.5 c 128,-1,3
 316 793 316 793 385 841 c 128,-1,4
 454 889 454 889 548 923 c 1,5,6
 493 948 493 948 454.5 978 c 128,-1,7
 416 1008 416 1008 392 1041 c 128,-1,8
 368 1074 368 1074 357.5 1109 c 128,-1,9
 347 1144 347 1144 347 1180 c 0,10,11
 347 1256 347 1256 390.5 1317 c 128,-1,12
 434 1378 434 1378 512.5 1421 c 128,-1,13
 591 1464 591 1464 700.5 1487.5 c 128,-1,14
 810 1511 810 1511 941 1511 c 0,15,16
 1053 1511 1053 1511 1158.5 1494.5 c 128,-1,17
 1264 1478 1264 1478 1355 1448 c 1,18,-1
 1300 1288 l 1,19,20
 1251 1305 1251 1305 1202 1313 c 128,-1,21
 1153 1321 1153 1321 1110 1321 c 0,22,23
 1011 1321 1011 1321 958.5 1285 c 128,-1,24
 906 1249 906 1249 906 1189 c 0,25,26
 906 1157 906 1157 922.5 1125 c 128,-1,27
 939 1093 939 1093 974.5 1065.5 c 128,-1,28
 1010 1038 1010 1038 1065 1017.5 c 128,-1,29
 1120 997 1120 997 1198 990 c 1,30,-1
 1147 830 l 1,31,-1
 1146 830 l 2,32,33
 1044 830 1044 830 967.5 804.5 c 128,-1,34
 891 779 891 779 840 735.5 c 128,-1,35
 789 692 789 692 764 633.5 c 128,-1,36
 739 575 739 575 739 509 c 0,37,38
 739 440 739 440 764.5 383.5 c 128,-1,39
 790 327 790 327 834.5 287 c 128,-1,40
 879 247 879 247 939 225 c 128,-1,41
 999 203 999 203 1067 203 c 0,42,43
 1138 203 1138 203 1203 227 c 128,-1,44
 1268 251 1268 251 1318 297 c 128,-1,45
 1368 343 1368 343 1398.5 410.5 c 128,-1,46
 1429 478 1429 478 1431 565.5 c 128,-1,47
 1433 653 1433 653 1401.5 759.5 c 128,-1,48
 1370 866 1370 866 1296 991 c 1,49,-1
 1832 991 l 1,50,-1
 1761 784 l 1,51,-1
 1588 784 l 1,52,53
 1617 691 1617 691 1622.5 594.5 c 128,-1,54
 1628 498 1628 498 1606 408 c 128,-1,55
 1584 318 1584 318 1532.5 239 c 128,-1,56
 1481 160 1481 160 1395.5 101.5 c 128,-1,57
 1310 43 1310 43 1189 9 c 128,-1,58
 1068 -25 1068 -25 908 -25 c 0,59,60
 788 -25 788 -25 687.5 -5.5 c 128,-1,61
 587 14 587 14 506 48.5 c 128,-1,62
 425 83 425 83 364 130 c 128,-1,63
 303 177 303 177 262 232 c 128,-1,64
 221 287 221 287 200.5 348 c 128,-1,65
 180 409 180 409 180 472 c 0,0,1
EndSplineSet
EndChar

StartChar: bracketright
Encoding: 93 93 74
Width: 957
Flags: W
LayerCount: 2
Fore
SplineSet
301 -331 m 1,0,-1
 301 1486 l 1,1,-1
 174 1486 l 1,2,-1
 92 1651 l 1,3,-1
 737 1651 l 1,4,-1
 737 -496 l 1,5,-1
 224 -496 l 1,6,-1
 141 -331 l 1,7,-1
 301 -331 l 1,0,-1
EndSplineSet
EndChar

StartChar: backslash
Encoding: 92 92 75
Width: 1227
Flags: W
LayerCount: 2
Fore
SplineSet
93 1362 m 1,0,-1
 366 1510 l 1,1,-1
 1096 124 l 1,2,-1
 823 -23 l 1,3,-1
 93 1362 l 1,0,-1
EndSplineSet
EndChar

StartChar: braceleft
Encoding: 123 123 76
Width: 1146
Flags: W
LayerCount: 2
Fore
SplineSet
401 255 m 2,0,1
 401 313 401 313 381.5 367 c 128,-1,2
 362 421 362 421 325.5 466.5 c 128,-1,3
 289 512 289 512 237 546.5 c 128,-1,4
 185 581 185 581 120 601 c 1,5,6
 185 620 185 620 237 655 c 128,-1,7
 289 690 289 690 325.5 735.5 c 128,-1,8
 362 781 362 781 381.5 835 c 128,-1,9
 401 889 401 889 401 947 c 2,10,-1
 401 1164 l 2,11,12
 401 1264 401 1264 441.5 1353 c 128,-1,13
 482 1442 482 1442 561 1512.5 c 128,-1,14
 640 1583 640 1583 756.5 1630 c 128,-1,15
 873 1677 873 1677 1025 1692 c 1,16,-1
 1076 1568 l 1,17,18
 968 1524 968 1524 908.5 1427.5 c 128,-1,19
 849 1331 849 1331 849 1191 c 2,20,-1
 849 1071 l 2,21,22
 849 987 849 987 823.5 915.5 c 128,-1,23
 798 844 798 844 752.5 785 c 128,-1,24
 707 726 707 726 642.5 680 c 128,-1,25
 578 634 578 634 500 601 c 1,26,27
 578 568 578 568 642.5 522 c 128,-1,28
 707 476 707 476 752.5 417 c 128,-1,29
 798 358 798 358 823.5 286.5 c 128,-1,30
 849 215 849 215 849 131 c 2,31,-1
 849 11 l 2,32,33
 849 -129 849 -129 908.5 -225.5 c 128,-1,34
 968 -322 968 -322 1076 -367 c 1,35,-1
 1025 -490 l 1,36,37
 873 -475 873 -475 756.5 -428 c 128,-1,38
 640 -381 640 -381 561 -311 c 128,-1,39
 482 -241 482 -241 441.5 -152 c 128,-1,40
 401 -63 401 -63 401 37 c 2,41,-1
 401 255 l 2,0,1
EndSplineSet
EndChar

StartChar: bar
Encoding: 124 124 77
Width: 589
Flags: W
LayerCount: 2
Fore
SplineSet
200 1651 m 1,0,-1
 389 1651 l 1,1,-1
 389 -495 l 1,2,-1
 200 -495 l 1,3,-1
 200 1651 l 1,0,-1
EndSplineSet
EndChar

StartChar: braceright
Encoding: 125 125 78
Width: 1147
Flags: W
LayerCount: 2
Fore
SplineSet
297 131 m 2,0,1
 297 215 297 215 322.5 286.5 c 128,-1,2
 348 358 348 358 393.5 417 c 128,-1,3
 439 476 439 476 503.5 522 c 128,-1,4
 568 568 568 568 646 601 c 1,5,6
 568 634 568 634 503.5 680 c 128,-1,7
 439 726 439 726 393.5 785 c 128,-1,8
 348 844 348 844 322.5 915.5 c 128,-1,9
 297 987 297 987 297 1071 c 2,10,-1
 297 1191 l 2,11,12
 297 1331 297 1331 237.5 1427.5 c 128,-1,13
 178 1524 178 1524 70 1568 c 1,14,-1
 122 1692 l 1,15,16
 274 1677 274 1677 390.5 1630 c 128,-1,17
 507 1583 507 1583 585.5 1512.5 c 128,-1,18
 664 1442 664 1442 704.5 1353 c 128,-1,19
 745 1264 745 1264 745 1164 c 2,20,-1
 745 947 l 2,21,22
 745 889 745 889 764.5 835 c 128,-1,23
 784 781 784 781 820.5 735.5 c 128,-1,24
 857 690 857 690 909.5 655 c 128,-1,25
 962 620 962 620 1027 601 c 1,26,27
 962 581 962 581 909.5 546.5 c 128,-1,28
 857 512 857 512 820.5 466.5 c 128,-1,29
 784 421 784 421 764.5 367 c 128,-1,30
 745 313 745 313 745 255 c 2,31,-1
 745 37 l 2,32,33
 745 -63 745 -63 704.5 -152 c 128,-1,34
 664 -241 664 -241 585.5 -311 c 128,-1,35
 507 -381 507 -381 390.5 -428 c 128,-1,36
 274 -475 274 -475 122 -490 c 1,37,-1
 70 -367 l 1,38,39
 178 -322 178 -322 237.5 -225.5 c 128,-1,40
 297 -129 297 -129 297 11 c 2,41,-1
 297 131 l 2,0,1
EndSplineSet
EndChar

StartChar: grave
Encoding: 96 96 79
Width: 953
Flags: W
LayerCount: 2
Fore
SplineSet
768 1172 m 1,0,1
 686 1182 686 1182 596 1204 c 128,-1,2
 506 1226 506 1226 419.5 1256 c 128,-1,3
 333 1286 333 1286 255.5 1323 c 128,-1,4
 178 1360 178 1360 120 1399 c 1,5,-1
 274 1586 l 1,6,7
 389 1500 389 1500 525 1424.5 c 128,-1,8
 661 1349 661 1349 833 1286 c 1,9,-1
 768 1172 l 1,10,-1
 768 1172 l 1,0,1
EndSplineSet
EndChar

StartChar: asterisk
Encoding: 42 42 80
Width: 1228
Flags: W
LayerCount: 2
Fore
SplineSet
254 912 m 1,0,-1
 498 1128 l 1,1,-1
 120 1179 l 1,2,-1
 212 1460 l 1,3,-1
 544 1288 l 1,4,-1
 476 1652 l 1,5,-1
 772 1652 l 1,6,-1
 705 1297 l 1,7,-1
 1016 1466 l 1,8,-1
 1108 1185 l 1,9,-1
 781 1138 l 1,10,-1
 1006 929 l 1,11,-1
 767 756 l 1,12,-1
 631 1036 l 1,13,-1
 493 739 l 1,14,-1
 254 912 l 1,0,-1
EndSplineSet
EndChar

StartChar: less
Encoding: 60 60 81
Width: 1034
Flags: W
LayerCount: 2
Fore
SplineSet
736 1167 m 1,0,-1
 859 1013 l 1,1,-1
 419 661 l 1,2,-1
 859 309 l 1,3,-1
 736 155 l 1,4,-1
 123 661 l 1,5,-1
 736 1167 l 1,0,-1
EndSplineSet
EndChar

StartChar: semicolon
Encoding: 59 59 82
Width: 983
Flags: W
LayerCount: 2
Fore
SplineSet
488 557 m 0,0,1
 406 557 406 557 348 575 c 128,-1,2
 290 593 290 593 252.5 623.5 c 128,-1,3
 215 654 215 654 197.5 695.5 c 128,-1,4
 180 737 180 737 180 785 c 0,5,6
 180 832 180 832 197.5 873.5 c 128,-1,7
 215 915 215 915 252.5 945.5 c 128,-1,8
 290 976 290 976 348 994 c 128,-1,9
 406 1012 406 1012 488 1012 c 0,10,11
 569 1012 569 1012 627.5 994 c 128,-1,12
 686 976 686 976 723 945.5 c 128,-1,13
 760 915 760 915 777.5 873.5 c 128,-1,14
 795 832 795 832 795 785 c 0,15,16
 795 737 795 737 777.5 695.5 c 128,-1,17
 760 654 760 654 723 623.5 c 128,-1,18
 686 593 686 593 627.5 575 c 128,-1,19
 569 557 569 557 488 557 c 0,0,1
180 136 m 1,20,21
 180 203 180 203 205 258.5 c 128,-1,22
 230 314 230 314 272 353.5 c 128,-1,23
 314 393 314 393 370.5 415 c 128,-1,24
 427 437 427 437 490 437 c 0,25,26
 560 437 560 437 617.5 415.5 c 128,-1,27
 675 394 675 394 716.5 354.5 c 128,-1,28
 758 315 758 315 780.5 259.5 c 128,-1,29
 803 204 803 204 803 136 c 0,30,31
 803 67 803 67 777.5 -9.5 c 128,-1,32
 752 -86 752 -86 704.5 -163.5 c 128,-1,33
 657 -241 657 -241 588 -317.5 c 128,-1,34
 519 -394 519 -394 432 -464 c 1,35,-1
 290 -353 l 1,36,37
 330 -311 330 -311 363.5 -272.5 c 128,-1,38
 397 -234 397 -234 424 -195.5 c 128,-1,39
 451 -157 451 -157 473.5 -116.5 c 128,-1,40
 496 -76 496 -76 515 -30 c 1,41,-1
 180 136 l 1,20,21
EndSplineSet
EndChar

StartChar: colon
Encoding: 58 58 83
Width: 975
Flags: W
LayerCount: 2
Fore
SplineSet
488 555 m 0,0,1
 406 555 406 555 348 573 c 128,-1,2
 290 591 290 591 252.5 621.5 c 128,-1,3
 215 652 215 652 197.5 693.5 c 128,-1,4
 180 735 180 735 180 783 c 0,5,6
 180 830 180 830 197.5 871.5 c 128,-1,7
 215 913 215 913 252.5 943.5 c 128,-1,8
 290 974 290 974 348 992 c 128,-1,9
 406 1010 406 1010 488 1010 c 0,10,11
 569 1010 569 1010 627.5 992 c 128,-1,12
 686 974 686 974 723 943.5 c 128,-1,13
 760 913 760 913 777.5 871.5 c 128,-1,14
 795 830 795 830 795 783 c 0,15,16
 795 735 795 735 777.5 693.5 c 128,-1,17
 760 652 760 652 723 621.5 c 128,-1,18
 686 591 686 591 627.5 573 c 128,-1,19
 569 555 569 555 488 555 c 0,0,1
180 210 m 0,20,21
 180 257 180 257 197.5 298.5 c 128,-1,22
 215 340 215 340 252.5 370.5 c 128,-1,23
 290 401 290 401 348 419 c 128,-1,24
 406 437 406 437 488 437 c 0,25,26
 569 437 569 437 627.5 419 c 128,-1,27
 686 401 686 401 723 370.5 c 128,-1,28
 760 340 760 340 777.5 298.5 c 128,-1,29
 795 257 795 257 795 210 c 0,30,31
 795 162 795 162 777.5 120.5 c 128,-1,32
 760 79 760 79 723 48.5 c 128,-1,33
 686 18 686 18 627.5 0 c 128,-1,34
 569 -18 569 -18 488 -18 c 0,35,36
 406 -18 406 -18 348 0 c 128,-1,37
 290 18 290 18 252.5 48.5 c 128,-1,38
 215 79 215 79 197.5 120.5 c 128,-1,39
 180 162 180 162 180 210 c 0,20,21
EndSplineSet
EndChar

StartChar: dollar
Encoding: 36 36 84
Width: 1577
Flags: W
LayerCount: 2
Fore
SplineSet
243 357 m 1,0,1
 299 323 299 323 356 297.5 c 128,-1,2
 413 272 413 272 467 255.5 c 128,-1,3
 521 239 521 239 571.5 230.5 c 128,-1,4
 622 222 622 222 665 222 c 0,5,6
 756 222 756 222 798 255 c 128,-1,7
 840 288 840 288 840 341 c 0,8,9
 840 361 840 361 833 380.5 c 128,-1,10
 826 400 826 400 809 419.5 c 128,-1,11
 792 439 792 439 762 457.5 c 128,-1,12
 732 476 732 476 686 493 c 2,13,-1
 519 554 l 2,14,15
 340 619 340 619 251.5 731 c 128,-1,16
 163 843 163 843 163 998 c 0,17,18
 163 1092 163 1092 196 1178.5 c 128,-1,19
 229 1265 229 1265 297.5 1333.5 c 128,-1,20
 366 1402 366 1402 470 1447.5 c 128,-1,21
 574 1493 574 1493 716 1504 c 1,22,-1
 716 1729 l 1,23,-1
 878 1729 l 1,24,-1
 878 1505 l 1,25,26
 944 1501 944 1501 1005 1490.5 c 128,-1,27
 1066 1480 1066 1480 1120.5 1465.5 c 128,-1,28
 1175 1451 1175 1451 1221 1434 c 128,-1,29
 1267 1417 1267 1417 1303 1399 c 1,30,-1
 1191 1177 l 1,31,32
 1131 1218 1131 1218 1064.5 1240 c 128,-1,33
 998 1262 998 1262 937 1262 c 0,34,35
 897 1262 897 1262 866.5 1252 c 128,-1,36
 836 1242 836 1242 815 1225.5 c 128,-1,37
 794 1209 794 1209 783.5 1187 c 128,-1,38
 773 1165 773 1165 773 1140 c 0,39,40
 773 1117 773 1117 783 1096 c 128,-1,41
 793 1075 793 1075 816 1055 c 128,-1,42
 839 1035 839 1035 877.5 1015.5 c 128,-1,43
 916 996 916 996 972 976 c 2,44,-1
 1106 928 l 2,45,46
 1281 865 1281 865 1369 752.5 c 128,-1,47
 1457 640 1457 640 1457 485 c 0,48,49
 1457 386 1457 386 1420 300.5 c 128,-1,50
 1383 215 1383 215 1310.5 149.5 c 128,-1,51
 1238 84 1238 84 1129.5 41.5 c 128,-1,52
 1021 -1 1021 -1 878 -16 c 1,53,-1
 878 -327 l 1,54,-1
 716 -327 l 1,55,-1
 716 -23 l 1,56,57
 553 -22 553 -22 408.5 14 c 128,-1,58
 264 50 264 50 120 127 c 1,59,-1
 243 357 l 1,0,1
EndSplineSet
EndChar

StartChar: paragraph
Encoding: 182 182 85
Width: 1681
Flags: W
LayerCount: 2
Fore
SplineSet
836 476 m 1,0,1
 652 476 652 476 520 518 c 128,-1,2
 388 560 388 560 303.5 630 c 128,-1,3
 219 700 219 700 179 792 c 128,-1,4
 139 884 139 884 139 984 c 0,5,6
 139 1097 139 1097 184 1189.5 c 128,-1,7
 229 1282 229 1282 322 1348 c 128,-1,8
 415 1414 415 1414 556 1449.5 c 128,-1,9
 697 1485 697 1485 889 1485 c 2,10,-1
 1578 1484 l 1,11,-1
 1578 1318 l 1,12,-1
 1404 1318 l 1,13,-1
 1404 -354 l 1,14,-1
 1214 -354 l 1,15,-1
 1214 1318 l 1,16,-1
 1103 1318 l 1,17,-1
 1103 -354 l 1,18,-1
 914 -354 l 1,19,-1
 914 476 l 1,20,-1
 836 476 l 1,21,-1
 836 476 l 1,0,1
EndSplineSet
EndChar

StartChar: equal
Encoding: 61 61 86
Width: 1278
Flags: W
LayerCount: 2
Fore
SplineSet
200 990 m 1,0,-1
 1078 990 l 1,1,-1
 1078 810 l 1,2,-1
 200 810 l 1,3,-1
 200 990 l 1,0,-1
200 661 m 1,4,-1
 1078 661 l 1,5,-1
 1078 481 l 1,6,-1
 200 481 l 1,7,-1
 200 661 l 1,4,-1
EndSplineSet
EndChar

StartChar: plus
Encoding: 43 43 87
Width: 1279
Flags: W
LayerCount: 2
Fore
SplineSet
549 648 m 1,0,-1
 200 648 l 1,1,-1
 200 826 l 1,2,-1
 549 826 l 1,3,-1
 549 1156 l 1,4,-1
 729 1156 l 1,5,-1
 729 826 l 1,6,-1
 1079 826 l 1,7,-1
 1079 648 l 1,8,-1
 729 648 l 1,9,-1
 729 306 l 1,10,-1
 549 306 l 1,11,-1
 549 648 l 1,0,-1
EndSplineSet
EndChar

StartChar: plusminus
Encoding: 177 177 88
Width: 1280
Flags: W
LayerCount: 2
Fore
SplineSet
550 648 m 1,0,-1
 201 648 l 1,1,-1
 201 826 l 1,2,-1
 550 826 l 1,3,-1
 550 1156 l 1,4,-1
 730 1156 l 1,5,-1
 730 826 l 1,6,-1
 1080 826 l 1,7,-1
 1080 648 l 1,8,-1
 730 648 l 1,9,-1
 730 306 l 1,10,-1
 550 306 l 1,11,-1
 550 648 l 1,0,-1
200 176 m 1,12,-1
 1079 176 l 1,13,-1
 1079 -2 l 1,14,-1
 200 -2 l 1,15,-1
 200 176 l 1,12,-1
EndSplineSet
EndChar

StartChar: multiply
Encoding: 215 215 89
Width: 1163
Flags: W
LayerCount: 2
Fore
SplineSet
444 517 m 1,0,-1
 201 761 l 1,1,-1
 336 896 l 1,2,-1
 579 652 l 1,3,-1
 829 901 l 1,4,-1
 963 767 l 1,5,-1
 713 517 l 1,6,-1
 956 273 l 1,7,-1
 822 139 l 1,8,-1
 578 383 l 1,9,-1
 335 140 l 1,10,-1
 200 274 l 1,11,-1
 444 517 l 1,0,-1
EndSplineSet
EndChar

StartChar: divide
Encoding: 247 247 90
Width: 1278
Flags: W
LayerCount: 2
Fore
SplineSet
640 729 m 0,0,1
 590 729 590 729 554 740 c 128,-1,2
 518 751 518 751 495 770 c 128,-1,3
 472 789 472 789 461.5 814.5 c 128,-1,4
 451 840 451 840 451 869 c 0,5,6
 451 897 451 897 461.5 922.5 c 128,-1,7
 472 948 472 948 495 966.5 c 128,-1,8
 518 985 518 985 554 996 c 128,-1,9
 590 1007 590 1007 640 1007 c 0,10,11
 689 1007 689 1007 724.5 996 c 128,-1,12
 760 985 760 985 783 966.5 c 128,-1,13
 806 948 806 948 816.5 922.5 c 128,-1,14
 827 897 827 897 827 869 c 0,15,16
 827 840 827 840 816.5 814.5 c 128,-1,17
 806 789 806 789 783 770 c 128,-1,18
 760 751 760 751 724.5 740 c 128,-1,19
 689 729 689 729 640 729 c 0,0,1
200 595 m 1,20,-1
 1078 594 l 1,21,-1
 1078 405 l 1,22,-1
 200 406 l 1,23,-1
 200 595 l 1,20,-1
451 122 m 256,24,25
 451 151 451 151 461.5 176 c 128,-1,26
 472 201 472 201 495 220 c 128,-1,27
 518 239 518 239 554 249.5 c 128,-1,28
 590 260 590 260 640 260 c 0,29,30
 689 260 689 260 724.5 249.5 c 128,-1,31
 760 239 760 239 783 220 c 128,-1,32
 806 201 806 201 816.5 176 c 128,-1,33
 827 151 827 151 827 122 c 256,34,35
 827 93 827 93 816.5 67.5 c 128,-1,36
 806 42 806 42 783 23 c 128,-1,37
 760 4 760 4 724.5 -7 c 128,-1,38
 689 -18 689 -18 640 -18 c 0,39,40
 590 -18 590 -18 554 -7 c 128,-1,41
 518 4 518 4 495 23 c 128,-1,42
 472 42 472 42 461.5 67.5 c 128,-1,43
 451 93 451 93 451 122 c 256,24,25
EndSplineSet
EndChar

StartChar: mu
Encoding: 181 181 91
AltUni2: 0003bc.ffffffff.0
Width: 1716
Flags: W
LayerCount: 2
Fore
SplineSet
200 992 m 1,0,-1
 744 992 l 1,1,-1
 744 386 l 2,2,3
 744 346 744 346 751 319 c 128,-1,4
 758 292 758 292 772.5 275.5 c 128,-1,5
 787 259 787 259 808 251.5 c 128,-1,6
 829 244 829 244 857 244 c 0,7,8
 893 244 893 244 920 255.5 c 128,-1,9
 947 267 947 267 975 296 c 1,10,-1
 975 992 l 1,11,-1
 1516 992 l 1,12,-1
 1516 1 l 1,13,-1
 1039 1 l 1,14,-1
 991 145 l 1,15,16
 928 84 928 84 859 48.5 c 128,-1,17
 790 13 790 13 717 -4 c 1,18,-1
 717 -495 l 1,19,-1
 200 -495 l 1,20,-1
 200 992 l 1,0,-1
EndSplineSet
EndChar

StartChar: percent
Encoding: 37 37 92
Width: 2437
Flags: W
LayerCount: 2
Fore
SplineSet
1804 1533 m 1,0,-1
 1948 1397 l 1,1,-1
 665 -20 l 1,2,-1
 521 115 l 1,3,-1
 1804 1533 l 1,0,-1
633 830 m 256,4,5
 519 830 519 830 429.5 855.5 c 128,-1,6
 340 881 340 881 277.5 926.5 c 128,-1,7
 215 972 215 972 182.5 1034 c 128,-1,8
 150 1096 150 1096 150 1170 c 0,9,10
 150 1243 150 1243 182.5 1305.5 c 128,-1,11
 215 1368 215 1368 277.5 1413.5 c 128,-1,12
 340 1459 340 1459 429.5 1484.5 c 128,-1,13
 519 1510 519 1510 633 1510 c 256,14,15
 747 1510 747 1510 836.5 1484.5 c 128,-1,16
 926 1459 926 1459 988 1413.5 c 128,-1,17
 1050 1368 1050 1368 1082.5 1305.5 c 128,-1,18
 1115 1243 1115 1243 1115 1170 c 0,19,20
 1115 1096 1115 1096 1082.5 1034 c 128,-1,21
 1050 972 1050 972 988 926.5 c 128,-1,22
 926 881 926 881 836.5 855.5 c 128,-1,23
 747 830 747 830 633 830 c 256,4,5
633 981 m 256,24,25
 654 981 654 981 672.5 991 c 128,-1,26
 691 1001 691 1001 704 1023 c 128,-1,27
 717 1045 717 1045 724.5 1081 c 128,-1,28
 732 1117 732 1117 732 1170 c 0,29,30
 732 1222 732 1222 724.5 1258.5 c 128,-1,31
 717 1295 717 1295 704 1317 c 128,-1,32
 691 1339 691 1339 672.5 1349 c 128,-1,33
 654 1359 654 1359 633 1359 c 256,34,35
 612 1359 612 1359 593.5 1349.5 c 128,-1,36
 575 1340 575 1340 561.5 1318.5 c 128,-1,37
 548 1297 548 1297 540.5 1260.5 c 128,-1,38
 533 1224 533 1224 533 1170 c 256,39,40
 533 1116 533 1116 540.5 1079.5 c 128,-1,41
 548 1043 548 1043 561.5 1021.5 c 128,-1,42
 575 1000 575 1000 593.5 990.5 c 128,-1,43
 612 981 612 981 633 981 c 256,24,25
1322 316 m 0,44,45
 1322 389 1322 389 1354.5 451.5 c 128,-1,46
 1387 514 1387 514 1449.5 559.5 c 128,-1,47
 1512 605 1512 605 1601.5 630.5 c 128,-1,48
 1691 656 1691 656 1805 656 c 256,49,50
 1919 656 1919 656 2008.5 630.5 c 128,-1,51
 2098 605 2098 605 2160 559.5 c 128,-1,52
 2222 514 2222 514 2254.5 451.5 c 128,-1,53
 2287 389 2287 389 2287 316 c 0,54,55
 2287 242 2287 242 2254.5 180 c 128,-1,56
 2222 118 2222 118 2160 73 c 128,-1,57
 2098 28 2098 28 2008.5 2.5 c 128,-1,58
 1919 -23 1919 -23 1805 -23 c 256,59,60
 1691 -23 1691 -23 1601.5 2.5 c 128,-1,61
 1512 28 1512 28 1449.5 73 c 128,-1,62
 1387 118 1387 118 1354.5 180 c 128,-1,63
 1322 242 1322 242 1322 316 c 0,44,45
1705 316 m 256,64,65
 1705 262 1705 262 1712.5 226 c 128,-1,66
 1720 190 1720 190 1733.5 168 c 128,-1,67
 1747 146 1747 146 1765.5 136.5 c 128,-1,68
 1784 127 1784 127 1805 127 c 256,69,70
 1826 127 1826 127 1844 137 c 128,-1,71
 1862 147 1862 147 1875 169 c 128,-1,72
 1888 191 1888 191 1895.5 227 c 128,-1,73
 1903 263 1903 263 1903 316 c 0,74,75
 1903 368 1903 368 1895.5 404.5 c 128,-1,76
 1888 441 1888 441 1875 463.5 c 128,-1,77
 1862 486 1862 486 1844 496 c 128,-1,78
 1826 506 1826 506 1805 506 c 256,79,80
 1784 506 1784 506 1765.5 496.5 c 128,-1,81
 1747 487 1747 487 1733.5 465 c 128,-1,82
 1720 443 1720 443 1712.5 406.5 c 128,-1,83
 1705 370 1705 370 1705 316 c 256,64,65
EndSplineSet
EndChar

StartChar: Euro
Encoding: 8364 8364 93
Width: 1731
Flags: W
LayerCount: 2
Fore
SplineSet
60 658 m 1,0,-1
 275 658 l 1,1,2
 272 697 272 697 272 738 c 0,3,4
 272 770 272 770 275 803 c 1,5,-1
 60 803 l 1,6,-1
 60 992 l 1,7,-1
 314 992 l 1,8,9
 352 1101 352 1101 422 1195.5 c 128,-1,10
 492 1290 492 1290 591.5 1360 c 128,-1,11
 691 1430 691 1430 818.5 1470 c 128,-1,12
 946 1510 946 1510 1099 1510 c 0,13,14
 1173 1510 1173 1510 1243 1499.5 c 128,-1,15
 1313 1489 1313 1489 1374.5 1472 c 128,-1,16
 1436 1455 1436 1455 1486.5 1431.5 c 128,-1,17
 1537 1408 1537 1408 1572 1383 c 1,18,-1
 1479 1208 l 1,19,20
 1452 1221 1452 1221 1427 1231 c 128,-1,21
 1402 1241 1402 1241 1377.5 1247.5 c 128,-1,22
 1353 1254 1353 1254 1327.5 1257 c 128,-1,23
 1302 1260 1302 1260 1273 1260 c 0,24,25
 1206 1260 1206 1260 1143.5 1243.5 c 128,-1,26
 1081 1227 1081 1227 1027 1193.5 c 128,-1,27
 973 1160 973 1160 930 1109.5 c 128,-1,28
 887 1059 887 1059 859 991 c 1,29,-1
 1371 991 l 1,30,-1
 1308 802 l 1,31,-1
 815 802 l 1,32,33
 814 786 814 786 813.5 770.5 c 128,-1,34
 813 755 813 755 813 738 c 0,35,36
 813 696 813 696 816 657 c 1,37,-1
 1260 657 l 1,38,-1
 1197 467 l 1,39,-1
 857 467 l 1,40,41
 908 339 908 339 1014 280 c 128,-1,42
 1120 221 1120 221 1279 221 c 0,43,44
 1348 221 1348 221 1416 240.5 c 128,-1,45
 1484 260 1484 260 1544 288 c 1,46,-1
 1614 137 l 1,47,48
 1570 105 1570 105 1508.5 76 c 128,-1,49
 1447 47 1447 47 1373.5 25 c 128,-1,50
 1300 3 1300 3 1217.5 -10 c 128,-1,51
 1135 -23 1135 -23 1049 -23 c 0,52,53
 915 -23 915 -23 798 10.5 c 128,-1,54
 681 44 681 44 585.5 107 c 128,-1,55
 490 170 490 170 420.5 261 c 128,-1,56
 351 352 351 352 313 468 c 1,57,-1
 60 468 l 1,58,-1
 60 658 l 1,0,-1
EndSplineSet
EndChar

StartChar: periodcentered
Encoding: 183 183 94
Width: 971
Flags: W
LayerCount: 2
Fore
SplineSet
484 558 m 0,0,1
 402 558 402 558 344 576 c 128,-1,2
 286 594 286 594 248.5 624.5 c 128,-1,3
 211 655 211 655 193.5 696.5 c 128,-1,4
 176 738 176 738 176 786 c 0,5,6
 176 833 176 833 193.5 874.5 c 128,-1,7
 211 916 211 916 248.5 946.5 c 128,-1,8
 286 977 286 977 344 995 c 128,-1,9
 402 1013 402 1013 484 1013 c 0,10,11
 565 1013 565 1013 623.5 995 c 128,-1,12
 682 977 682 977 719 946.5 c 128,-1,13
 756 916 756 916 773.5 874.5 c 128,-1,14
 791 833 791 833 791 786 c 0,15,16
 791 738 791 738 773.5 696.5 c 128,-1,17
 756 655 756 655 719 624.5 c 128,-1,18
 682 594 682 594 623.5 576 c 128,-1,19
 565 558 565 558 484 558 c 0,0,1
EndSplineSet
EndChar

StartChar: bullet
Encoding: 8226 8226 95
Width: 1201
Flags: W
LayerCount: 2
Fore
SplineSet
600 391 m 0,0,1
 489 391 489 391 409.5 415.5 c 128,-1,2
 330 440 330 440 279 482 c 128,-1,3
 228 524 228 524 204 581 c 128,-1,4
 180 638 180 638 180 703 c 0,5,6
 180 767 180 767 204 823.5 c 128,-1,7
 228 880 228 880 279 922 c 128,-1,8
 330 964 330 964 409.5 988.5 c 128,-1,9
 489 1013 489 1013 600 1013 c 0,10,11
 712 1013 712 1013 791.5 988.5 c 128,-1,12
 871 964 871 964 922 922 c 128,-1,13
 973 880 973 880 997 823.5 c 128,-1,14
 1021 767 1021 767 1021 703 c 0,15,16
 1021 638 1021 638 997 581 c 128,-1,17
 973 524 973 524 922 482 c 128,-1,18
 871 440 871 440 791.5 415.5 c 128,-1,19
 712 391 712 391 600 391 c 0,0,1
EndSplineSet
EndChar

StartChar: exclamdown
Encoding: 161 161 96
Width: 975
Flags: W
LayerCount: 2
Fore
SplineSet
488 553 m 0,0,1
 406 553 406 553 348 570.5 c 128,-1,2
 290 588 290 588 252.5 619 c 128,-1,3
 215 650 215 650 197.5 691.5 c 128,-1,4
 180 733 180 733 180 780 c 0,5,6
 180 828 180 828 197.5 869.5 c 128,-1,7
 215 911 215 911 252.5 941.5 c 128,-1,8
 290 972 290 972 348 990 c 128,-1,9
 406 1008 406 1008 488 1008 c 0,10,11
 569 1008 569 1008 627.5 990 c 128,-1,12
 686 972 686 972 723 941.5 c 128,-1,13
 760 911 760 911 777.5 869.5 c 128,-1,14
 795 828 795 828 795 780 c 0,15,16
 795 733 795 733 777.5 691.5 c 128,-1,17
 760 650 760 650 723 619 c 128,-1,18
 686 588 686 588 627.5 570.5 c 128,-1,19
 569 553 569 553 488 553 c 0,0,1
759 329 m 1,20,-1
 759 -495 l 1,21,-1
 218 -495 l 1,22,-1
 218 329 l 1,23,-1
 759 329 l 1,20,-1
EndSplineSet
EndChar

StartChar: questiondown
Encoding: 191 191 97
Width: 1499
Flags: W
LayerCount: 2
Fore
SplineSet
548 804 m 256,0,1
 548 848 548 848 564.5 886.5 c 128,-1,2
 581 925 581 925 615.5 953.5 c 128,-1,3
 650 982 650 982 704 998.5 c 128,-1,4
 758 1015 758 1015 833 1015 c 0,5,6
 909 1015 909 1015 963 998.5 c 128,-1,7
 1017 982 1017 982 1051.5 953.5 c 128,-1,8
 1086 925 1086 925 1102.5 886.5 c 128,-1,9
 1119 848 1119 848 1119 804 c 256,10,11
 1119 760 1119 760 1102.5 722 c 128,-1,12
 1086 684 1086 684 1051.5 655.5 c 128,-1,13
 1017 627 1017 627 963 610.5 c 128,-1,14
 909 594 909 594 833 594 c 0,15,16
 758 594 758 594 704 610.5 c 128,-1,17
 650 627 650 627 615.5 655.5 c 128,-1,18
 581 684 581 684 564.5 722 c 128,-1,19
 548 760 548 760 548 804 c 256,0,1
156 -175 m 0,20,21
 156 -21 156 -21 310 86 c 128,-1,22
 464 193 464 193 772 260 c 1,23,-1
 720 414 l 1,24,-1
 983 414 l 1,25,-1
 1119 5 l 1,26,27
 929 -16 929 -16 836 -70.5 c 128,-1,28
 743 -125 743 -125 743 -195 c 0,29,30
 743 -223 743 -223 753 -246.5 c 128,-1,31
 763 -270 763 -270 785.5 -287.5 c 128,-1,32
 808 -305 808 -305 843.5 -314.5 c 128,-1,33
 879 -324 879 -324 930 -324 c 0,34,35
 1005 -324 1005 -324 1084 -301 c 128,-1,36
 1163 -278 1163 -278 1248 -236 c 1,37,-1
 1301 -396 l 1,38,39
 1192 -449 1192 -449 1055.5 -481.5 c 128,-1,40
 919 -514 919 -514 769 -514 c 0,41,42
 602 -514 602 -514 485.5 -485.5 c 128,-1,43
 369 -457 369 -457 296 -410 c 128,-1,44
 223 -363 223 -363 189.5 -302 c 128,-1,45
 156 -241 156 -241 156 -175 c 0,20,21
EndSplineSet
EndChar

StartChar: quoteleft
Encoding: 8216 8216 98
Width: 806
Flags: W
LayerCount: 2
Fore
SplineSet
414 990 m 0,0,1
 357 990 357 990 310 1007.5 c 128,-1,2
 263 1025 263 1025 230 1056.5 c 128,-1,3
 197 1088 197 1088 178.5 1133 c 128,-1,4
 160 1178 160 1178 160 1233 c 0,5,6
 160 1290 160 1290 180.5 1352 c 128,-1,7
 201 1414 201 1414 240 1477 c 128,-1,8
 279 1540 279 1540 334.5 1601.5 c 128,-1,9
 390 1663 390 1663 461 1720 c 1,10,-1
 576 1630 l 1,11,12
 543 1596 543 1596 516.5 1565 c 128,-1,13
 490 1534 490 1534 468 1503 c 128,-1,14
 446 1472 446 1472 427.5 1439 c 128,-1,15
 409 1406 409 1406 394 1369 c 1,16,-1
 666 1233 l 1,17,18
 666 1179 666 1179 645.5 1134 c 128,-1,19
 625 1089 625 1089 591 1057 c 128,-1,20
 557 1025 557 1025 511 1007.5 c 128,-1,21
 465 990 465 990 414 990 c 0,0,1
EndSplineSet
EndChar

StartChar: quoteright
Encoding: 8217 8217 99
Width: 806
Flags: W
LayerCount: 2
Fore
SplineSet
230 1074 m 1,0,1
 263 1108 263 1108 290 1139 c 128,-1,2
 317 1170 317 1170 339 1201 c 128,-1,3
 361 1232 361 1232 379.5 1264.5 c 128,-1,4
 398 1297 398 1297 413 1335 c 1,5,-1
 140 1470 l 1,6,7
 140 1525 140 1525 160.5 1570 c 128,-1,8
 181 1615 181 1615 215 1647 c 128,-1,9
 249 1679 249 1679 295 1696.5 c 128,-1,10
 341 1714 341 1714 392 1714 c 0,11,12
 449 1714 449 1714 496 1696.5 c 128,-1,13
 543 1679 543 1679 576 1647.5 c 128,-1,14
 609 1616 609 1616 627.5 1570.5 c 128,-1,15
 646 1525 646 1525 646 1470 c 0,16,17
 646 1413 646 1413 625.5 1351.5 c 128,-1,18
 605 1290 605 1290 566 1227 c 128,-1,19
 527 1164 527 1164 471.5 1102 c 128,-1,20
 416 1040 416 1040 346 983 c 1,21,-1
 230 1074 l 1,0,1
EndSplineSet
EndChar

StartChar: quotedblleft
Encoding: 8220 8220 100
Width: 1459
Flags: W
LayerCount: 2
Fore
SplineSet
1067 990 m 0,0,1
 1010 990 1010 990 963 1007.5 c 128,-1,2
 916 1025 916 1025 883 1056.5 c 128,-1,3
 850 1088 850 1088 831.5 1133 c 128,-1,4
 813 1178 813 1178 813 1233 c 0,5,6
 813 1290 813 1290 833.5 1352 c 128,-1,7
 854 1414 854 1414 893 1477 c 128,-1,8
 932 1540 932 1540 987.5 1601.5 c 128,-1,9
 1043 1663 1043 1663 1114 1720 c 1,10,-1
 1229 1630 l 1,11,12
 1196 1596 1196 1596 1169.5 1565 c 128,-1,13
 1143 1534 1143 1534 1121 1503 c 128,-1,14
 1099 1472 1099 1472 1080.5 1439 c 128,-1,15
 1062 1406 1062 1406 1047 1369 c 1,16,-1
 1319 1233 l 1,17,18
 1319 1179 1319 1179 1298.5 1134 c 128,-1,19
 1278 1089 1278 1089 1244 1057 c 128,-1,20
 1210 1025 1210 1025 1164 1007.5 c 128,-1,21
 1118 990 1118 990 1067 990 c 0,0,1
414 990 m 0,22,23
 357 990 357 990 310 1007.5 c 128,-1,24
 263 1025 263 1025 230 1056.5 c 128,-1,25
 197 1088 197 1088 178.5 1133 c 128,-1,26
 160 1178 160 1178 160 1233 c 0,27,28
 160 1290 160 1290 180.5 1352 c 128,-1,29
 201 1414 201 1414 240 1477 c 128,-1,30
 279 1540 279 1540 334.5 1601.5 c 128,-1,31
 390 1663 390 1663 461 1720 c 1,32,-1
 576 1630 l 1,33,34
 543 1596 543 1596 516.5 1565 c 128,-1,35
 490 1534 490 1534 468 1503 c 128,-1,36
 446 1472 446 1472 427.5 1439 c 128,-1,37
 409 1406 409 1406 394 1369 c 1,38,-1
 666 1233 l 1,39,40
 666 1179 666 1179 645.5 1134 c 128,-1,41
 625 1089 625 1089 591 1057 c 128,-1,42
 557 1025 557 1025 511 1007.5 c 128,-1,43
 465 990 465 990 414 990 c 0,22,23
EndSplineSet
EndChar

StartChar: quotedblright
Encoding: 8221 8221 101
Width: 1459
Flags: W
LayerCount: 2
Fore
SplineSet
883 1074 m 1,0,1
 916 1108 916 1108 943 1139 c 128,-1,2
 970 1170 970 1170 992 1201 c 128,-1,3
 1014 1232 1014 1232 1032.5 1264.5 c 128,-1,4
 1051 1297 1051 1297 1066 1335 c 1,5,-1
 793 1470 l 1,6,7
 793 1525 793 1525 813.5 1570 c 128,-1,8
 834 1615 834 1615 868 1647 c 128,-1,9
 902 1679 902 1679 948 1696.5 c 128,-1,10
 994 1714 994 1714 1045 1714 c 0,11,12
 1102 1714 1102 1714 1149 1696.5 c 128,-1,13
 1196 1679 1196 1679 1229 1647.5 c 128,-1,14
 1262 1616 1262 1616 1280.5 1570.5 c 128,-1,15
 1299 1525 1299 1525 1299 1470 c 0,16,17
 1299 1413 1299 1413 1278.5 1351.5 c 128,-1,18
 1258 1290 1258 1290 1219 1227 c 128,-1,19
 1180 1164 1180 1164 1124.5 1102 c 128,-1,20
 1069 1040 1069 1040 999 983 c 1,21,-1
 883 1074 l 1,0,1
230 1074 m 1,22,23
 263 1108 263 1108 290 1139 c 128,-1,24
 317 1170 317 1170 339 1201 c 128,-1,25
 361 1232 361 1232 379.5 1264.5 c 128,-1,26
 398 1297 398 1297 413 1335 c 1,27,-1
 140 1470 l 1,28,29
 140 1525 140 1525 160.5 1570 c 128,-1,30
 181 1615 181 1615 215 1647 c 128,-1,31
 249 1679 249 1679 295 1696.5 c 128,-1,32
 341 1714 341 1714 392 1714 c 0,33,34
 449 1714 449 1714 496 1696.5 c 128,-1,35
 543 1679 543 1679 576 1647.5 c 128,-1,36
 609 1616 609 1616 627.5 1570.5 c 128,-1,37
 646 1525 646 1525 646 1470 c 0,38,39
 646 1413 646 1413 625.5 1351.5 c 128,-1,40
 605 1290 605 1290 566 1227 c 128,-1,41
 527 1164 527 1164 471.5 1102 c 128,-1,42
 416 1040 416 1040 346 983 c 1,43,-1
 230 1074 l 1,22,23
EndSplineSet
EndChar

StartChar: quotesingle
Encoding: 39 39 102
Width: 521
Flags: W
LayerCount: 2
Fore
SplineSet
160 1486 m 1,0,-1
 361 1486 l 1,1,-1
 361 826 l 1,2,-1
 160 826 l 1,3,-1
 160 1486 l 1,0,-1
EndSplineSet
EndChar

StartChar: quotesinglbase
Encoding: 8218 8218 103
Width: 826
Flags: W
LayerCount: 2
Fore
SplineSet
160 23 m 1,0,1
 160 78 160 78 180.5 123 c 128,-1,2
 201 168 201 168 235 200 c 128,-1,3
 269 232 269 232 315 249.5 c 128,-1,4
 361 267 361 267 412 267 c 0,5,6
 469 267 469 267 516 249.5 c 128,-1,7
 563 232 563 232 596 200.5 c 128,-1,8
 629 169 629 169 647.5 123.5 c 128,-1,9
 666 78 666 78 666 23 c 0,10,11
 666 -34 666 -34 645.5 -96 c 128,-1,12
 625 -158 625 -158 586 -221 c 128,-1,13
 547 -284 547 -284 491.5 -345.5 c 128,-1,14
 436 -407 436 -407 366 -464 c 1,15,-1
 250 -373 l 1,16,17
 283 -339 283 -339 310 -308 c 128,-1,18
 337 -277 337 -277 359 -246 c 128,-1,19
 381 -215 381 -215 399.5 -182.5 c 128,-1,20
 418 -150 418 -150 433 -112 c 1,21,-1
 160 23 l 1,22,-1
 160 23 l 1,0,1
EndSplineSet
EndChar

StartChar: quotedbl
Encoding: 34 34 104
Width: 941
Flags: W
LayerCount: 2
Fore
SplineSet
580 1486 m 1,0,-1
 781 1486 l 1,1,-1
 781 826 l 1,2,-1
 580 826 l 1,3,-1
 580 1486 l 1,0,-1
160 1486 m 1,4,-1
 361 1486 l 1,5,-1
 361 826 l 1,6,-1
 160 826 l 1,7,-1
 160 1486 l 1,4,-1
EndSplineSet
EndChar

StartChar: quotedblbase
Encoding: 8222 8222 105
Width: 1443
Flags: W
LayerCount: 2
Fore
SplineSet
777 23 m 1,0,1
 777 78 777 78 797.5 123 c 128,-1,2
 818 168 818 168 852 200 c 128,-1,3
 886 232 886 232 932 249.5 c 128,-1,4
 978 267 978 267 1029 267 c 0,5,6
 1086 267 1086 267 1133 249.5 c 128,-1,7
 1180 232 1180 232 1213 200.5 c 128,-1,8
 1246 169 1246 169 1264.5 123.5 c 128,-1,9
 1283 78 1283 78 1283 23 c 0,10,11
 1283 -34 1283 -34 1262.5 -96 c 128,-1,12
 1242 -158 1242 -158 1203 -221 c 128,-1,13
 1164 -284 1164 -284 1108.5 -345.5 c 128,-1,14
 1053 -407 1053 -407 983 -464 c 1,15,-1
 867 -373 l 1,16,17
 900 -339 900 -339 927 -308 c 128,-1,18
 954 -277 954 -277 976 -246 c 128,-1,19
 998 -215 998 -215 1016.5 -182.5 c 128,-1,20
 1035 -150 1035 -150 1050 -112 c 1,21,-1
 777 23 l 1,0,1
140 23 m 1,22,23
 140 78 140 78 160.5 123 c 128,-1,24
 181 168 181 168 215 200 c 128,-1,25
 249 232 249 232 295 249.5 c 128,-1,26
 341 267 341 267 392 267 c 0,27,28
 449 267 449 267 496 249.5 c 128,-1,29
 543 232 543 232 576 200.5 c 128,-1,30
 609 169 609 169 627.5 123.5 c 128,-1,31
 646 78 646 78 646 23 c 0,32,33
 646 -34 646 -34 625.5 -96 c 128,-1,34
 605 -158 605 -158 566 -221 c 128,-1,35
 527 -284 527 -284 471.5 -345.5 c 128,-1,36
 416 -407 416 -407 346 -464 c 1,37,-1
 230 -373 l 1,38,39
 263 -339 263 -339 290 -308 c 128,-1,40
 317 -277 317 -277 339 -246 c 128,-1,41
 361 -215 361 -215 379.5 -182.5 c 128,-1,42
 398 -150 398 -150 413 -112 c 1,43,-1
 140 23 l 1,22,23
EndSplineSet
EndChar

StartChar: guilsinglleft
Encoding: 8249 8249 106
Width: 926
Flags: W
LayerCount: 2
Fore
SplineSet
140 609 m 1,0,-1
 569 1010 l 1,1,-1
 746 845 l 1,2,-1
 493 609 l 1,3,-1
 746 373 l 1,4,-1
 569 208 l 1,5,-1
 140 609 l 1,0,-1
EndSplineSet
EndChar

StartChar: guillemotleft
Encoding: 171 171 107
Width: 1589
Flags: W
LayerCount: 2
Fore
SplineSet
1232 1010 m 1,0,-1
 1409 845 l 1,1,-1
 1156 609 l 1,2,-1
 1409 373 l 1,3,-1
 1232 208 l 1,4,-1
 803 609 l 1,5,-1
 1232 1010 l 1,0,-1
140 609 m 1,6,-1
 569 1010 l 1,7,-1
 746 845 l 1,8,-1
 493 609 l 1,9,-1
 746 373 l 1,10,-1
 569 208 l 1,11,-1
 140 609 l 1,6,-1
EndSplineSet
EndChar

StartChar: guillemotright
Encoding: 187 187 108
Width: 1586
Flags: W
LayerCount: 2
Fore
SplineSet
998 609 m 1,0,-1
 745 845 l 1,1,-1
 922 1010 l 1,2,-1
 1351 609 l 1,3,-1
 922 208 l 1,4,-1
 745 373 l 1,5,-1
 998 609 l 1,0,-1
82 373 m 1,6,-1
 335 609 l 1,7,-1
 82 845 l 1,8,-1
 259 1010 l 1,9,-1
 688 609 l 1,10,-1
 259 208 l 1,11,-1
 82 373 l 1,6,-1
EndSplineSet
EndChar

StartChar: guilsinglright
Encoding: 8250 8250 109
Width: 924
Flags: W
LayerCount: 2
Fore
SplineSet
177 373 m 1,0,-1
 430 609 l 1,1,-1
 177 845 l 1,2,-1
 354 1010 l 1,3,-1
 783 609 l 1,4,-1
 354 208 l 1,5,-1
 177 373 l 1,0,-1
EndSplineSet
EndChar

StartChar: brokenbar
Encoding: 166 166 110
Width: 589
Flags: W
LayerCount: 2
Fore
SplineSet
200 1650 m 1,0,-1
 389 1650 l 1,1,-1
 389 739 l 1,2,-1
 200 739 l 1,3,-1
 200 1650 l 1,0,-1
389 413 m 1,4,-1
 389 -497 l 1,5,-1
 200 -497 l 1,6,-1
 200 413 l 1,7,-1
 389 413 l 1,4,-1
EndSplineSet
EndChar

StartChar: parenleft
Encoding: 40 40 111
Width: 1126
Flags: W
LayerCount: 2
Fore
SplineSet
180 600 m 256,0,1
 180 774 180 774 239.5 933 c 128,-1,2
 299 1092 299 1092 408 1231 c 128,-1,3
 517 1370 517 1370 671.5 1486 c 128,-1,4
 826 1602 826 1602 1015 1690 c 1,5,-1
 1066 1567 l 1,6,7
 978 1498 978 1498 898.5 1396 c 128,-1,8
 819 1294 819 1294 758.5 1168.5 c 128,-1,9
 698 1043 698 1043 662.5 898.5 c 128,-1,10
 627 754 627 754 627 600 c 256,11,12
 627 446 627 446 662.5 301.5 c 128,-1,13
 698 157 698 157 758.5 31.5 c 128,-1,14
 819 -94 819 -94 898.5 -196 c 128,-1,15
 978 -298 978 -298 1066 -367 c 1,16,-1
 1015 -490 l 1,17,18
 826 -402 826 -402 671.5 -286 c 128,-1,19
 517 -170 517 -170 408 -31.5 c 128,-1,20
 299 107 299 107 239.5 266.5 c 128,-1,21
 180 426 180 426 180 600 c 256,0,1
EndSplineSet
EndChar

StartChar: parenright
Encoding: 41 41 112
Width: 1126
Flags: W
LayerCount: 2
Fore
SplineSet
60 -367 m 1,0,1
 148 -298 148 -298 227.5 -196 c 128,-1,2
 307 -94 307 -94 367.5 31.5 c 128,-1,3
 428 157 428 157 463.5 301.5 c 128,-1,4
 499 446 499 446 499 600 c 256,5,6
 499 754 499 754 463.5 898.5 c 128,-1,7
 428 1043 428 1043 367.5 1168.5 c 128,-1,8
 307 1294 307 1294 227.5 1396 c 128,-1,9
 148 1498 148 1498 60 1567 c 1,10,-1
 111 1690 l 1,11,12
 300 1602 300 1602 454.5 1486 c 128,-1,13
 609 1370 609 1370 718 1231 c 128,-1,14
 827 1092 827 1092 886.5 933 c 128,-1,15
 946 774 946 774 946 600 c 256,16,17
 946 426 946 426 886.5 266.5 c 128,-1,18
 827 107 827 107 718 -31.5 c 128,-1,19
 609 -170 609 -170 454.5 -286 c 128,-1,20
 300 -402 300 -402 111 -490 c 1,21,-1
 60 -367 l 1,22,-1
 60 -367 l 1,0,1
EndSplineSet
EndChar

StartChar: numbersign
Encoding: 35 35 113
Width: 1584
Flags: W
LayerCount: 2
Fore
SplineSet
427 329 m 1,0,-1
 200 329 l 1,1,-1
 201 512 l 1,2,-1
 457 512 l 1,3,-1
 501 786 l 1,4,-1
 200 786 l 1,5,-1
 201 968 l 1,6,-1
 531 968 l 1,7,-1
 588 1321 l 1,8,-1
 771 1321 l 1,9,-1
 714 968 l 1,10,-1
 979 968 l 1,11,-1
 1036 1321 l 1,12,-1
 1219 1321 l 1,13,-1
 1162 968 l 1,14,-1
 1384 968 l 1,15,-1
 1384 786 l 1,16,-1
 1132 786 l 1,17,-1
 1088 512 l 1,18,-1
 1384 512 l 1,19,-1
 1384 329 l 1,20,-1
 1058 329 l 1,21,-1
 1005 -2 l 1,22,-1
 822 -1 l 1,23,-1
 875 329 l 1,24,-1
 610 329 l 1,25,-1
 557 -2 l 1,26,-1
 374 -1 l 1,27,-1
 427 329 l 1,0,-1
905 512 m 1,28,-1
 949 786 l 1,29,-1
 684 786 l 1,30,-1
 640 512 l 1,31,-1
 905 512 l 1,28,-1
EndSplineSet
EndChar

StartChar: logicalnot
Encoding: 172 172 114
Width: 1240
Flags: W
LayerCount: 2
Fore
SplineSet
201 775 m 1,0,-1
 1039 775 l 1,1,-1
 1040 340 l 1,2,-1
 857 341 l 1,3,-1
 857 592 l 1,4,-1
 200 592 l 1,5,-1
 201 775 l 1,0,-1
EndSplineSet
EndChar

StartChar: degree
Encoding: 176 176 115
Width: 1018
Flags: W
LayerCount: 2
Fore
SplineSet
509 830 m 256,0,1
 417 830 417 830 345 855.5 c 128,-1,2
 273 881 273 881 223 926.5 c 128,-1,3
 173 972 173 972 146.5 1034 c 128,-1,4
 120 1096 120 1096 120 1170 c 0,5,6
 120 1243 120 1243 146.5 1305.5 c 128,-1,7
 173 1368 173 1368 223 1413.5 c 128,-1,8
 273 1459 273 1459 345 1484.5 c 128,-1,9
 417 1510 417 1510 509 1510 c 256,10,11
 601 1510 601 1510 673 1484.5 c 128,-1,12
 745 1459 745 1459 795 1413.5 c 128,-1,13
 845 1368 845 1368 871.5 1305.5 c 128,-1,14
 898 1243 898 1243 898 1170 c 0,15,16
 898 1096 898 1096 871.5 1034 c 128,-1,17
 845 972 845 972 795 926.5 c 128,-1,18
 745 881 745 881 673 855.5 c 128,-1,19
 601 830 601 830 509 830 c 256,0,1
509 981 m 256,20,21
 530 981 530 981 548.5 991 c 128,-1,22
 567 1001 567 1001 580 1023 c 128,-1,23
 593 1045 593 1045 600.5 1081 c 128,-1,24
 608 1117 608 1117 608 1170 c 0,25,26
 608 1222 608 1222 600.5 1258.5 c 128,-1,27
 593 1295 593 1295 580 1317 c 128,-1,28
 567 1339 567 1339 548.5 1349 c 128,-1,29
 530 1359 530 1359 509 1359 c 256,30,31
 488 1359 488 1359 470 1349.5 c 128,-1,32
 452 1340 452 1340 438.5 1318.5 c 128,-1,33
 425 1297 425 1297 417.5 1260.5 c 128,-1,34
 410 1224 410 1224 410 1170 c 256,35,36
 410 1116 410 1116 417.5 1079.5 c 128,-1,37
 425 1043 425 1043 438.5 1021.5 c 128,-1,38
 452 1000 452 1000 470 990.5 c 128,-1,39
 488 981 488 981 509 981 c 256,20,21
EndSplineSet
EndChar

StartChar: currency
Encoding: 164 164 116
Width: 1686
Flags: W
LayerCount: 2
Fore
SplineSet
492 372 m 1,0,1
 447 429 447 429 421.5 498.5 c 128,-1,2
 396 568 396 568 396 646 c 0,3,4
 396 721 396 721 419.5 788 c 128,-1,5
 443 855 443 855 485 910 c 1,6,-1
 295 1100 l 1,7,-1
 430 1234 l 1,8,-1
 632 1033 l 1,9,10
 677 1056 677 1056 727 1068.5 c 128,-1,11
 777 1081 777 1081 831 1081 c 0,12,13
 889 1081 889 1081 942 1066.5 c 128,-1,14
 995 1052 995 1052 1043 1026 c 1,15,-1
 1256 1234 l 1,16,-1
 1391 1100 l 1,17,-1
 1185 899 l 1,18,19
 1223 845 1223 845 1245 781 c 128,-1,20
 1267 717 1267 717 1267 646 c 0,21,22
 1267 571 1267 571 1243.5 504 c 128,-1,23
 1220 437 1220 437 1178 382 c 1,24,-1
 1369 191 l 1,25,-1
 1235 57 l 1,26,-1
 1031 259 l 1,27,28
 986 236 986 236 935.5 223.5 c 128,-1,29
 885 211 885 211 831 211 c 0,30,31
 780 211 780 211 733 222 c 128,-1,32
 686 233 686 233 643 253 c 1,33,-1
 442 57 l 1,34,-1
 308 191 l 1,35,-1
 492 372 l 1,0,1
576 644 m 256,36,37
 576 591 576 591 596 544.5 c 128,-1,38
 616 498 616 498 650.5 463.5 c 128,-1,39
 685 429 685 429 731.5 409 c 128,-1,40
 778 389 778 389 831 389 c 256,41,42
 884 389 884 389 930.5 409 c 128,-1,43
 977 429 977 429 1011.5 463.5 c 128,-1,44
 1046 498 1046 498 1066 544.5 c 128,-1,45
 1086 591 1086 591 1086 644 c 256,46,47
 1086 697 1086 697 1066 743 c 128,-1,48
 1046 789 1046 789 1011.5 823.5 c 128,-1,49
 977 858 977 858 930.5 878 c 128,-1,50
 884 898 884 898 831 898 c 256,51,52
 778 898 778 898 731.5 878 c 128,-1,53
 685 858 685 858 650.5 823.5 c 128,-1,54
 616 789 616 789 596 743 c 128,-1,55
 576 697 576 697 576 644 c 256,36,37
EndSplineSet
EndChar

StartChar: yen
Encoding: 165 165 117
Width: 1746
Flags: W
LayerCount: 2
Fore
SplineSet
305 521 m 1,0,-1
 620 521 l 1,1,-1
 572 624 l 1,2,-1
 304 624 l 1,3,-1
 305 807 l 1,4,-1
 485 807 l 1,5,-1
 165 1486 l 1,6,-1
 798 1486 l 1,7,-1
 1164 720 l 1,8,-1
 1459 1486 l 1,9,-1
 1721 1486 l 1,10,-1
 1438 807 l 1,11,-1
 1716 807 l 1,12,-1
 1650 624 l 1,13,-1
 1362 624 l 1,14,-1
 1319 521 l 1,15,-1
 1622 521 l 1,16,-1
 1557 338 l 1,17,-1
 1277 338 l 1,18,-1
 1277 0 l 1,19,-1
 669 0 l 1,20,-1
 669 338 l 1,21,-1
 304 338 l 1,22,-1
 305 521 l 1,0,-1
EndSplineSet
EndChar

StartChar: sterling
Encoding: 163 163 118
Width: 1476
Flags: W
LayerCount: 2
Fore
SplineSet
180 127 m 1,0,1
 248 179 248 179 296.5 232 c 128,-1,2
 345 285 345 285 375.5 344 c 128,-1,3
 406 403 406 403 420.5 470.5 c 128,-1,4
 435 538 435 538 435 621 c 1,5,-1
 180 621 l 1,6,-1
 180 811 l 1,7,-1
 435 811 l 1,8,-1
 435 998 l 2,9,10
 435 1111 435 1111 478.5 1208 c 128,-1,11
 522 1305 522 1305 598.5 1375.5 c 128,-1,12
 675 1446 675 1446 779 1486 c 128,-1,13
 883 1526 883 1526 1003 1526 c 0,14,15
 1072 1526 1072 1526 1145 1512 c 128,-1,16
 1218 1498 1218 1498 1293 1467 c 1,17,-1
 1267 1305 l 1,18,19
 1238 1313 1238 1313 1211 1317 c 128,-1,20
 1184 1321 1184 1321 1159 1321 c 0,21,22
 1117 1321 1117 1321 1083 1307.5 c 128,-1,23
 1049 1294 1049 1294 1024.5 1264.5 c 128,-1,24
 1000 1235 1000 1235 987 1187.5 c 128,-1,25
 974 1140 974 1140 974 1073 c 2,26,-1
 974 810 l 1,27,-1
 1253 810 l 1,28,-1
 1190 621 l 1,29,-1
 953 621 l 1,30,31
 923 518 923 518 855 417 c 128,-1,32
 787 316 787 316 696 229 c 1,33,-1
 1346 229 l 1,34,-1
 1346 -1 l 1,35,-1
 343 0 l 1,36,-1
 180 0 l 1,37,-1
 180 127 l 1,0,1
EndSplineSet
EndChar

StartChar: endash
Encoding: 8211 8211 119
Width: 1443
Flags: W
LayerCount: 2
Fore
SplineSet
160 682 m 1,0,-1
 1283 682 l 1,1,-1
 1283 499 l 1,2,-1
 160 499 l 1,3,-1
 160 682 l 1,0,-1
EndSplineSet
EndChar

StartChar: emdash
Encoding: 8212 8212 120
Width: 1808
Flags: W
LayerCount: 2
Fore
SplineSet
160 682 m 1,0,-1
 1648 682 l 1,1,-1
 1648 499 l 1,2,-1
 160 499 l 1,3,-1
 160 682 l 1,0,-1
EndSplineSet
EndChar

StartChar: ae
Encoding: 230 230 121
Width: 2259
Flags: W
LayerCount: 2
Fore
SplineSet
75 311 m 0,0,1
 75 383 75 383 107 445.5 c 128,-1,2
 139 508 139 508 199 554 c 128,-1,3
 259 600 259 600 344 626.5 c 128,-1,4
 429 653 429 653 534 653 c 256,5,6
 639 653 639 653 730.5 628.5 c 128,-1,7
 822 604 822 604 884 566 c 1,8,9
 884 639 884 639 868.5 690 c 128,-1,10
 853 741 853 741 821 772.5 c 128,-1,11
 789 804 789 804 739.5 818 c 128,-1,12
 690 832 690 832 623 832 c 0,13,14
 562 832 562 832 497 821.5 c 128,-1,15
 432 811 432 811 377 791 c 1,16,-1
 304 926 l 1,17,18
 413 971 413 971 529.5 990.5 c 128,-1,19
 646 1010 646 1010 770 1010 c 0,20,21
 890 1010 890 1010 995 987.5 c 128,-1,22
 1100 965 1100 965 1185 920 c 1,23,24
 1277 965 1277 965 1377 987.5 c 128,-1,25
 1477 1010 1477 1010 1568 1010 c 0,26,27
 1680 1010 1680 1010 1771.5 987.5 c 128,-1,28
 1863 965 1863 965 1934.5 926 c 128,-1,29
 2006 887 2006 887 2058.5 835 c 128,-1,30
 2111 783 2111 783 2145 724.5 c 128,-1,31
 2179 666 2179 666 2195.5 604 c 128,-1,32
 2212 542 2212 542 2212 483 c 1,33,-1
 1458 392 l 1,34,35
 1481 280 1481 280 1544 219.5 c 128,-1,36
 1607 159 1607 159 1728 159 c 0,37,38
 1794 159 1794 159 1850.5 175 c 128,-1,39
 1907 191 1907 191 1939 214 c 1,40,-1
 2019 74 l 1,41,42
 1982 55 1982 55 1938.5 38 c 128,-1,43
 1895 21 1895 21 1842.5 8.5 c 128,-1,44
 1790 -4 1790 -4 1726.5 -11.5 c 128,-1,45
 1663 -19 1663 -19 1587 -19 c 0,46,47
 1410 -19 1410 -19 1277.5 26 c 128,-1,48
 1145 71 1145 71 1056 146 c 1,49,50
 1014 117 1014 117 955.5 87.5 c 128,-1,51
 897 58 897 58 826.5 34.5 c 128,-1,52
 756 11 756 11 677.5 -4 c 128,-1,53
 599 -19 599 -19 517 -19 c 0,54,55
 413 -19 413 -19 331 6.5 c 128,-1,56
 249 32 249 32 192 76 c 128,-1,57
 135 120 135 120 105 180.5 c 128,-1,58
 75 241 75 241 75 311 c 0,0,1
1727 585 m 1,59,60
 1727 715 1727 715 1694.5 774 c 128,-1,61
 1662 833 1662 833 1599 833 c 0,62,63
 1566 833 1566 833 1538.5 817 c 128,-1,64
 1511 801 1511 801 1490.5 767 c 128,-1,65
 1470 733 1470 733 1458.5 679.5 c 128,-1,66
 1447 626 1447 626 1446 551 c 1,67,-1
 1727 585 l 1,59,60
635 333 m 0,68,69
 635 279 635 279 670 245.5 c 128,-1,70
 705 212 705 212 764 212 c 0,71,72
 796 212 796 212 827.5 222.5 c 128,-1,73
 859 233 859 233 885 255 c 1,74,-1
 884 423 l 1,75,76
 834 453 834 453 774 453 c 0,77,78
 706 453 706 453 670.5 419.5 c 128,-1,79
 635 386 635 386 635 333 c 0,68,69
EndSplineSet
EndChar

StartChar: oe
Encoding: 339 339 122
Width: 2317
Flags: W
LayerCount: 2
Fore
SplineSet
75 495 m 0,0,1
 75 613 75 613 123.5 708 c 128,-1,2
 172 803 172 803 263.5 870 c 128,-1,3
 355 937 355 937 487 973.5 c 128,-1,4
 619 1010 619 1010 787 1010 c 0,5,6
 910 1010 910 1010 1018 984 c 128,-1,7
 1126 958 1126 958 1214 911 c 1,8,9
 1308 961 1308 961 1414.5 985.5 c 128,-1,10
 1521 1010 1521 1010 1625 1010 c 0,11,12
 1737 1010 1737 1010 1828.5 987.5 c 128,-1,13
 1920 965 1920 965 1991.5 926 c 128,-1,14
 2063 887 2063 887 2115.5 835 c 128,-1,15
 2168 783 2168 783 2202.5 724.5 c 128,-1,16
 2237 666 2237 666 2253.5 604 c 128,-1,17
 2270 542 2270 542 2270 483 c 1,18,-1
 1515 392 l 1,19,20
 1537 280 1537 280 1602 219.5 c 128,-1,21
 1667 159 1667 159 1786 159 c 0,22,23
 1851 159 1851 159 1907.5 175 c 128,-1,24
 1964 191 1964 191 1996 214 c 1,25,-1
 2077 74 l 1,26,27
 2040 55 2040 55 1996.5 38 c 128,-1,28
 1953 21 1953 21 1900.5 8.5 c 128,-1,29
 1848 -4 1848 -4 1784.5 -11.5 c 128,-1,30
 1721 -19 1721 -19 1645 -19 c 0,31,32
 1521 -19 1521 -19 1415.5 10.5 c 128,-1,33
 1310 40 1310 40 1225 91 c 1,34,35
 1133 39 1133 39 1021.5 10 c 128,-1,36
 910 -19 910 -19 787 -19 c 0,37,38
 619 -19 619 -19 487 17.5 c 128,-1,39
 355 54 355 54 263.5 121 c 128,-1,40
 172 188 172 188 123.5 283 c 128,-1,41
 75 378 75 378 75 495 c 0,0,1
1785 585 m 1,42,43
 1785 715 1785 715 1752.5 774 c 128,-1,44
 1720 833 1720 833 1656 833 c 0,45,46
 1623 833 1623 833 1595.5 817 c 128,-1,47
 1568 801 1568 801 1547.5 767 c 128,-1,48
 1527 733 1527 733 1515.5 679.5 c 128,-1,49
 1504 626 1504 626 1503 550 c 1,50,-1
 1785 585 l 1,42,43
787 164 m 0,51,52
 824 164 824 164 853 179 c 128,-1,53
 882 194 882 194 901 231.5 c 128,-1,54
 920 269 920 269 930 333 c 128,-1,55
 940 397 940 397 940 495 c 0,56,57
 940 594 940 594 930 658 c 128,-1,58
 920 722 920 722 901 759.5 c 128,-1,59
 882 797 882 797 853 812 c 128,-1,60
 824 827 824 827 787 827 c 0,61,62
 749 827 749 827 720.5 812 c 128,-1,63
 692 797 692 797 673 759.5 c 128,-1,64
 654 722 654 722 644 658 c 128,-1,65
 634 594 634 594 634 495 c 0,66,67
 634 397 634 397 644 333 c 128,-1,68
 654 269 654 269 673 231.5 c 128,-1,69
 692 194 692 194 720.5 179 c 128,-1,70
 749 164 749 164 787 164 c 0,51,52
EndSplineSet
EndChar

StartChar: dotlessi
Encoding: 305 305 123
Width: 823
Flags: W
LayerCount: 2
Fore
SplineSet
140 991 m 1,0,-1
 683 991 l 1,1,-1
 683 0 l 1,2,-1
 140 0 l 1,3,-1
 140 991 l 1,0,-1
EndSplineSet
EndChar

StartChar: germandbls
Encoding: 223 223 124
Width: 1853
Flags: W
LayerCount: 2
Fore
SplineSet
178 826 m 1,0,-1
 68 826 l 1,1,-1
 68 991 l 1,2,-1
 178 991 l 1,3,-1
 178 1095 l 2,4,5
 178 1240 178 1240 221.5 1347.5 c 128,-1,6
 265 1455 265 1455 344.5 1525.5 c 128,-1,7
 424 1596 424 1596 535 1631 c 128,-1,8
 646 1666 646 1666 780 1666 c 0,9,10
 948 1666 948 1666 1080 1637.5 c 128,-1,11
 1212 1609 1212 1609 1302.5 1559 c 128,-1,12
 1393 1509 1393 1509 1441 1441.5 c 128,-1,13
 1489 1374 1489 1374 1489 1296 c 0,14,15
 1489 1238 1489 1238 1466.5 1191 c 128,-1,16
 1444 1144 1444 1144 1416.5 1102.5 c 128,-1,17
 1389 1061 1389 1061 1366.5 1022 c 128,-1,18
 1344 983 1344 983 1344 941 c 0,19,20
 1344 885 1344 885 1373 847.5 c 128,-1,21
 1402 810 1402 810 1461 773 c 1,22,-1
 1532 724 l 2,23,24
 1608 671 1608 671 1656.5 624.5 c 128,-1,25
 1705 578 1705 578 1733 533.5 c 128,-1,26
 1761 489 1761 489 1772 445 c 128,-1,27
 1783 401 1783 401 1783 354 c 0,28,29
 1783 281 1783 281 1750 213.5 c 128,-1,30
 1717 146 1717 146 1648.5 94.5 c 128,-1,31
 1580 43 1580 43 1474 12 c 128,-1,32
 1368 -19 1368 -19 1222 -19 c 0,33,34
 1159 -19 1159 -19 1103 -15 c 128,-1,35
 1047 -11 1047 -11 995.5 -2.5 c 128,-1,36
 944 6 944 6 896 19.5 c 128,-1,37
 848 33 848 33 801 53 c 1,38,-1
 905 232 l 1,39,40
 977 196 977 196 1034.5 178 c 128,-1,41
 1092 160 1092 160 1145 160 c 0,42,43
 1207 160 1207 160 1230.5 180 c 128,-1,44
 1254 200 1254 200 1254 231 c 0,45,46
 1254 247 1254 247 1246.5 261.5 c 128,-1,47
 1239 276 1239 276 1221.5 292.5 c 128,-1,48
 1204 309 1204 309 1176.5 329 c 128,-1,49
 1149 349 1149 349 1109 376 c 2,50,-1
 1015 439 l 2,51,52
 961 476 961 476 921 512 c 128,-1,53
 881 548 881 548 855.5 586 c 128,-1,54
 830 624 830 624 817.5 667 c 128,-1,55
 805 710 805 710 805 762 c 0,56,57
 805 826 805 826 824 874.5 c 128,-1,58
 843 923 843 923 872 963 c 128,-1,59
 901 1003 901 1003 934.5 1038 c 128,-1,60
 968 1073 968 1073 997 1111 c 128,-1,61
 1026 1149 1026 1149 1045 1192 c 128,-1,62
 1064 1235 1064 1235 1064 1292 c 0,63,64
 1064 1344 1064 1344 1041 1387.5 c 128,-1,65
 1018 1431 1018 1431 973.5 1463 c 128,-1,66
 929 1495 929 1495 865.5 1513 c 128,-1,67
 802 1531 802 1531 721 1531 c 1,68,-1
 721 0 l 1,69,-1
 178 0 l 1,70,-1
 178 826 l 1,0,-1
EndSplineSet
EndChar

StartChar: dotlessj
Encoding: 567 567 125
Width: 828
Flags: W
LayerCount: 2
Fore
SplineSet
151 991 m 1,0,-1
 698 991 l 1,1,-1
 698 165 l 2,2,3
 698 27 698 27 658 -85.5 c 128,-1,4
 618 -198 618 -198 540.5 -282 c 128,-1,5
 463 -366 463 -366 348.5 -420 c 128,-1,6
 234 -474 234 -474 85 -495 c 1,7,-1
 42 -401 l 1,8,9
 73 -368 73 -368 94 -335.5 c 128,-1,10
 115 -303 115 -303 127.5 -266.5 c 128,-1,11
 140 -230 140 -230 145.5 -186 c 128,-1,12
 151 -142 151 -142 151 -86 c 2,13,-1
 151 991 l 1,0,-1
EndSplineSet
EndChar

StartChar: dieresis
Encoding: 168 168 126
Width: 1536
Flags: W
LayerCount: 2
Fore
SplineSet
883 1353 m 256,0,1
 883 1394 883 1394 898 1430 c 128,-1,2
 913 1466 913 1466 945.5 1492.5 c 128,-1,3
 978 1519 978 1519 1028 1534.5 c 128,-1,4
 1078 1550 1078 1550 1149 1550 c 0,5,6
 1219 1550 1219 1550 1270 1534.5 c 128,-1,7
 1321 1519 1321 1519 1353 1492.5 c 128,-1,8
 1385 1466 1385 1466 1400.5 1430 c 128,-1,9
 1416 1394 1416 1394 1416 1353 c 256,10,11
 1416 1312 1416 1312 1400.5 1276 c 128,-1,12
 1385 1240 1385 1240 1353 1213.5 c 128,-1,13
 1321 1187 1321 1187 1270 1171.5 c 128,-1,14
 1219 1156 1219 1156 1149 1156 c 0,15,16
 1078 1156 1078 1156 1028 1171.5 c 128,-1,17
 978 1187 978 1187 945.5 1213.5 c 128,-1,18
 913 1240 913 1240 898 1276 c 128,-1,19
 883 1312 883 1312 883 1353 c 256,0,1
386 1156 m 0,20,21
 315 1156 315 1156 265 1171.5 c 128,-1,22
 215 1187 215 1187 182.5 1213.5 c 128,-1,23
 150 1240 150 1240 135 1276 c 128,-1,24
 120 1312 120 1312 120 1353 c 256,25,26
 120 1394 120 1394 135 1430 c 128,-1,27
 150 1466 150 1466 182.5 1492.5 c 128,-1,28
 215 1519 215 1519 265 1534.5 c 128,-1,29
 315 1550 315 1550 386 1550 c 0,30,31
 456 1550 456 1550 507 1534.5 c 128,-1,32
 558 1519 558 1519 590 1492.5 c 128,-1,33
 622 1466 622 1466 637.5 1430 c 128,-1,34
 653 1394 653 1394 653 1353 c 256,35,36
 653 1312 653 1312 637.5 1276 c 128,-1,37
 622 1240 622 1240 590 1213.5 c 128,-1,38
 558 1187 558 1187 507 1171.5 c 128,-1,39
 456 1156 456 1156 386 1156 c 0,20,21
EndSplineSet
EndChar

StartChar: acute
Encoding: 180 180 127
Width: 953
Flags: W
LayerCount: 2
Fore
SplineSet
120 1286 m 1,0,1
 292 1349 292 1349 427.5 1424.5 c 128,-1,2
 563 1500 563 1500 679 1586 c 1,3,-1
 833 1399 l 1,4,5
 775 1360 775 1360 697.5 1323 c 128,-1,6
 620 1286 620 1286 533.5 1256 c 128,-1,7
 447 1226 447 1226 357 1204 c 128,-1,8
 267 1182 267 1182 185 1172 c 1,9,-1
 120 1286 l 1,0,1
EndSplineSet
EndChar

StartChar: asciicircum
Encoding: 94 94 128
Width: 1362
Flags: W
LayerCount: 2
Fore
SplineSet
121 405 m 1,0,1
 293 526 293 526 428.5 671 c 128,-1,2
 564 816 564 816 680 985 c 1,3,4
 795 816 795 816 931.5 671 c 128,-1,5
 1068 526 1068 526 1240 405 c 1,6,-1
 1175 291 l 1,7,8
 1116 307 1116 307 1052 337.5 c 128,-1,9
 988 368 988 368 924.5 409 c 128,-1,10
 861 450 861 450 798.5 501 c 128,-1,11
 736 552 736 552 680 609 c 1,12,13
 624 552 624 552 562 501 c 128,-1,14
 500 450 500 450 436 408.5 c 128,-1,15
 372 367 372 367 308.5 337 c 128,-1,16
 245 307 245 307 186 291 c 1,17,-1
 121 405 l 1,0,1
EndSplineSet
EndChar

StartChar: circumflex
Encoding: 710 710 129
Width: 1173
Flags: W
LayerCount: 2
Fore
SplineSet
120 1286 m 1,0,1
 264 1349 264 1349 376.5 1424 c 128,-1,2
 489 1499 489 1499 586 1586 c 1,3,4
 683 1499 683 1499 795.5 1424 c 128,-1,5
 908 1349 908 1349 1053 1286 c 1,6,-1
 987 1172 l 1,7,8
 891 1185 891 1185 785.5 1219.5 c 128,-1,9
 680 1254 680 1254 586 1302 c 1,10,11
 492 1254 492 1254 386.5 1219.5 c 128,-1,12
 281 1185 281 1185 185 1172 c 1,13,-1
 120 1286 l 1,0,1
EndSplineSet
EndChar

StartChar: tilde
Encoding: 732 732 130
Width: 1179
Flags: W
LayerCount: 2
Fore
SplineSet
120 1263 m 1,0,1
 159 1318 159 1318 194.5 1354 c 128,-1,2
 230 1390 230 1390 265.5 1411.5 c 128,-1,3
 301 1433 301 1433 338.5 1441.5 c 128,-1,4
 376 1450 376 1450 420 1450 c 0,5,6
 477 1450 477 1450 524.5 1438.5 c 128,-1,7
 572 1427 572 1427 616 1413.5 c 128,-1,8
 660 1400 660 1400 703 1389 c 128,-1,9
 746 1378 746 1378 794 1378 c 0,10,11
 818 1378 818 1378 840 1381.5 c 128,-1,12
 862 1385 862 1385 884.5 1393.5 c 128,-1,13
 907 1402 907 1402 931 1416 c 128,-1,14
 955 1430 955 1430 984 1450 c 1,15,-1
 1059 1355 l 1,16,17
 1020 1300 1020 1300 984 1264 c 128,-1,18
 948 1228 948 1228 912.5 1206.5 c 128,-1,19
 877 1185 877 1185 839.5 1176.5 c 128,-1,20
 802 1168 802 1168 759 1168 c 0,21,22
 702 1168 702 1168 654 1179 c 128,-1,23
 606 1190 606 1190 562.5 1203.5 c 128,-1,24
 519 1217 519 1217 476 1228 c 128,-1,25
 433 1239 433 1239 385 1239 c 0,26,27
 361 1239 361 1239 339 1235.5 c 128,-1,28
 317 1232 317 1232 294.5 1223.5 c 128,-1,29
 272 1215 272 1215 248 1201.5 c 128,-1,30
 224 1188 224 1188 195 1168 c 1,31,-1
 120 1263 l 1,0,1
EndSplineSet
EndChar

StartChar: macron
Encoding: 175 175 131
Width: 1130
Flags: W
LayerCount: 2
Fore
SplineSet
120 1416 m 1,0,-1
 1010 1416 l 1,1,-1
 1010 1227 l 1,2,-1
 120 1227 l 1,3,-1
 120 1416 l 1,0,-1
EndSplineSet
EndChar

StartChar: eth
Encoding: 240 240 132
Width: 1673
Flags: W
LayerCount: 2
Fore
SplineSet
139 465 m 0,0,1
 139 548 139 548 173.5 626.5 c 128,-1,2
 208 705 208 705 274 765.5 c 128,-1,3
 340 826 340 826 436 863 c 128,-1,4
 532 900 532 900 655 900 c 0,5,6
 754 900 754 900 836 882.5 c 128,-1,7
 918 865 918 865 987 832 c 1,8,9
 939 1024 939 1024 836 1201 c 1,10,-1
 502 1051 l 1,11,-1
 422 1232 l 1,12,-1
 724 1368 l 1,13,14
 652 1462 652 1462 565 1554 c 1,15,-1
 685 1651 l 1,16,17
 740 1607 740 1607 800.5 1559.5 c 128,-1,18
 861 1512 861 1512 924 1459 c 1,19,-1
 1283 1621 l 1,20,-1
 1364 1438 l 1,21,-1
 1088 1314 l 1,22,23
 1179 1228 1179 1228 1262.5 1133.5 c 128,-1,24
 1346 1039 1346 1039 1409.5 938 c 128,-1,25
 1473 837 1473 837 1510.5 729.5 c 128,-1,26
 1548 622 1548 622 1548 510 c 0,27,28
 1548 391 1548 391 1504 293.5 c 128,-1,29
 1460 196 1460 196 1372.5 126.5 c 128,-1,30
 1285 57 1285 57 1154.5 19 c 128,-1,31
 1024 -19 1024 -19 850 -19 c 0,32,33
 675 -19 675 -19 542 19.5 c 128,-1,34
 409 58 409 58 319.5 124 c 128,-1,35
 230 190 230 190 184.5 278 c 128,-1,36
 139 366 139 366 139 465 c 0,0,1
671 435 m 0,37,38
 671 369 671 369 686.5 318.5 c 128,-1,39
 702 268 702 268 727.5 234 c 128,-1,40
 753 200 753 200 785 182.5 c 128,-1,41
 817 165 817 165 850 165 c 0,42,43
 888 165 888 165 920.5 182 c 128,-1,44
 953 199 953 199 977 238 c 128,-1,45
 1001 277 1001 277 1015 340 c 128,-1,46
 1029 403 1029 403 1029 495 c 256,47,48
 1029 587 1029 587 1017 679 c 1,49,50
 958 723 958 723 878 723 c 0,51,52
 833 723 833 723 795.5 708 c 128,-1,53
 758 693 758 693 730 659 c 128,-1,54
 702 625 702 625 686.5 570 c 128,-1,55
 671 515 671 515 671 435 c 0,37,38
EndSplineSet
EndChar

StartChar: thorn
Encoding: 254 254 133
Width: 1667
Flags: W
LayerCount: 2
Fore
SplineSet
140 1651 m 1,0,-1
 683 1651 l 1,1,-1
 683 871 l 1,2,3
 711 898 711 898 749.5 923 c 128,-1,4
 788 948 788 948 835 967.5 c 128,-1,5
 882 987 882 987 935.5 998.5 c 128,-1,6
 989 1010 989 1010 1048 1010 c 0,7,8
 1161 1010 1161 1010 1260 977 c 128,-1,9
 1359 944 1359 944 1433 879 c 128,-1,10
 1507 814 1507 814 1549.5 718 c 128,-1,11
 1592 622 1592 622 1592 495 c 0,12,13
 1592 378 1592 378 1551.5 283.5 c 128,-1,14
 1511 189 1511 189 1435 121.5 c 128,-1,15
 1359 54 1359 54 1250.5 17.5 c 128,-1,16
 1142 -19 1142 -19 1007 -19 c 0,17,18
 905 -19 905 -19 823 5 c 128,-1,19
 741 29 741 29 683 68 c 1,20,-1
 683 -495 l 1,21,-1
 140 -495 l 1,22,-1
 140 1651 l 1,0,-1
683 200 m 1,23,24
 707 180 707 180 738 168 c 128,-1,25
 769 156 769 156 799 156 c 0,26,27
 849 156 849 156 891.5 174.5 c 128,-1,28
 934 193 934 193 965.5 232 c 128,-1,29
 997 271 997 271 1014.5 331.5 c 128,-1,30
 1032 392 1032 392 1032 477 c 0,31,32
 1032 563 1032 563 1015.5 624 c 128,-1,33
 999 685 999 685 970 723.5 c 128,-1,34
 941 762 941 762 901 780 c 128,-1,35
 861 798 861 798 813 798 c 0,36,37
 776 798 776 798 742.5 785 c 128,-1,38
 709 772 709 772 683 751 c 1,39,-1
 683 200 l 1,23,24
EndSplineSet
EndChar

StartChar: Eth
Encoding: 208 208 134
Width: 2010
Flags: W
LayerCount: 2
Fore
SplineSet
292 660 m 1,0,-1
 121 660 l 1,1,-1
 121 842 l 1,2,-1
 292 842 l 1,3,-1
 292 1486 l 1,4,-1
 903 1486 l 2,5,6
 1161 1486 1161 1486 1350 1437.5 c 128,-1,7
 1539 1389 1539 1389 1663 1295 c 128,-1,8
 1787 1201 1787 1201 1847 1064 c 128,-1,9
 1907 927 1907 927 1907 750 c 0,10,11
 1907 592 1907 592 1847 455.5 c 128,-1,12
 1787 319 1787 319 1663 217.5 c 128,-1,13
 1539 116 1539 116 1350 58 c 128,-1,14
 1161 0 1161 0 903 0 c 2,15,-1
 292 0 l 1,16,-1
 292 660 l 1,0,-1
870 218 m 1,17,18
 970 218 970 218 1050 249 c 128,-1,19
 1130 280 1130 280 1185.5 345 c 128,-1,20
 1241 410 1241 410 1270.5 510.5 c 128,-1,21
 1300 611 1300 611 1300 751 c 0,22,23
 1300 890 1300 890 1270 988 c 128,-1,24
 1240 1086 1240 1086 1184 1148.5 c 128,-1,25
 1128 1211 1128 1211 1048.5 1239.5 c 128,-1,26
 969 1268 969 1268 871 1268 c 1,27,-1
 870 842 l 1,28,-1
 1092 842 l 1,29,-1
 1092 660 l 1,30,-1
 870 660 l 1,31,-1
 870 218 l 1,17,18
EndSplineSet
EndChar

StartChar: hbar
Encoding: 295 295 135
Width: 1622
Flags: W
LayerCount: 2
Fore
SplineSet
147 1227 m 1,0,-1
 43 1227 l 1,1,-1
 43 1416 l 1,2,-1
 147 1416 l 1,3,-1
 147 1651 l 1,4,-1
 690 1651 l 1,5,-1
 690 1416 l 1,6,-1
 933 1416 l 1,7,-1
 933 1227 l 1,8,-1
 690 1227 l 1,9,-1
 690 832 l 1,10,11
 802 913 802 913 919.5 961.5 c 128,-1,12
 1037 1010 1037 1010 1166 1010 c 0,13,14
 1235 1010 1235 1010 1294.5 987 c 128,-1,15
 1354 964 1354 964 1398 916 c 128,-1,16
 1442 868 1442 868 1467 792.5 c 128,-1,17
 1492 717 1492 717 1492 612 c 2,18,-1
 1492 0 l 1,19,-1
 949 0 l 1,20,-1
 949 646 l 2,21,22
 949 698 949 698 926.5 722 c 128,-1,23
 904 746 904 746 853 746 c 0,24,25
 830 746 830 746 807.5 739 c 128,-1,26
 785 732 785 732 764 721 c 128,-1,27
 743 710 743 710 724 696 c 128,-1,28
 705 682 705 682 690 668 c 1,29,-1
 690 0 l 1,30,-1
 147 0 l 1,31,-1
 147 1227 l 1,0,-1
EndSplineSet
EndChar

StartChar: cedilla
Encoding: 184 184 136
Width: 842
Flags: W
LayerCount: 2
Fore
SplineSet
469 72 m 1,0,-1
 420 -121 l 1,1,-1
 443 -121 l 2,2,3
 527 -121 527 -121 586 -131.5 c 128,-1,4
 645 -142 645 -142 682 -162.5 c 128,-1,5
 719 -183 719 -183 735.5 -213 c 128,-1,6
 752 -243 752 -243 752 -282 c 0,7,8
 752 -328 752 -328 722.5 -370 c 128,-1,9
 693 -412 693 -412 635.5 -444 c 128,-1,10
 578 -476 578 -476 492 -495 c 128,-1,11
 406 -514 406 -514 292 -514 c 0,12,13
 267 -514 267 -514 247.5 -513.5 c 128,-1,14
 228 -513 228 -513 211.5 -512 c 128,-1,15
 195 -511 195 -511 179.5 -509.5 c 128,-1,16
 164 -508 164 -508 148 -505 c 1,17,-1
 174 -392 l 1,18,19
 190 -394 190 -394 202.5 -395.5 c 128,-1,20
 215 -397 215 -397 226 -398 c 128,-1,21
 237 -399 237 -399 247.5 -399 c 128,-1,22
 258 -399 258 -399 271 -399 c 0,23,24
 361 -399 361 -399 405.5 -369 c 128,-1,25
 450 -339 450 -339 450 -298 c 0,26,27
 450 -266 450 -266 419.5 -245.5 c 128,-1,28
 389 -225 389 -225 315 -225 c 2,29,-1
 213 -225 l 1,30,-1
 292 72 l 1,31,-1
 469 72 l 1,0,-1
EndSplineSet
EndChar

StartChar: ring
Encoding: 730 730 137
Width: 860
Flags: W
LayerCount: 2
Fore
SplineSet
430 1182 m 256,0,1
 349 1182 349 1182 290 1197 c 128,-1,2
 231 1212 231 1212 193.5 1237 c 128,-1,3
 156 1262 156 1262 138 1295 c 128,-1,4
 120 1328 120 1328 120 1365 c 256,5,6
 120 1402 120 1402 138 1435 c 128,-1,7
 156 1468 156 1468 193.5 1493 c 128,-1,8
 231 1518 231 1518 290 1533 c 128,-1,9
 349 1548 349 1548 430 1548 c 256,10,11
 511 1548 511 1548 570 1533 c 128,-1,12
 629 1518 629 1518 666.5 1493 c 128,-1,13
 704 1468 704 1468 722 1435 c 128,-1,14
 740 1402 740 1402 740 1365 c 256,15,16
 740 1328 740 1328 722 1295 c 128,-1,17
 704 1262 704 1262 666.5 1237 c 128,-1,18
 629 1212 629 1212 570 1197 c 128,-1,19
 511 1182 511 1182 430 1182 c 256,0,1
430 1282 m 256,20,21
 493 1282 493 1282 525 1307.5 c 128,-1,22
 557 1333 557 1333 557 1365 c 256,23,24
 557 1397 557 1397 525 1422.5 c 128,-1,25
 493 1448 493 1448 430 1448 c 256,26,27
 367 1448 367 1448 335 1422.5 c 128,-1,28
 303 1397 303 1397 303 1365 c 256,29,30
 303 1333 303 1333 335 1307.5 c 128,-1,31
 367 1282 367 1282 430 1282 c 256,20,21
EndSplineSet
EndChar

StartChar: commaaccent
Encoding: 65539 -1 138
Width: 594
Flags: W
LayerCount: 2
Fore
SplineSet
120 -204 m 0,0,1
 120 -180 120 -180 132 -156.5 c 128,-1,2
 144 -133 144 -133 166.5 -114.5 c 128,-1,3
 189 -96 189 -96 222 -85 c 128,-1,4
 255 -74 255 -74 297 -74 c 0,5,6
 337 -74 337 -74 369.5 -85.5 c 128,-1,7
 402 -97 402 -97 425.5 -117.5 c 128,-1,8
 449 -138 449 -138 461.5 -167.5 c 128,-1,9
 474 -197 474 -197 474 -233 c 0,10,11
 474 -296 474 -296 434.5 -371 c 128,-1,12
 395 -446 395 -446 320 -514 c 1,13,-1
 231 -445 l 1,14,15
 284 -389 284 -389 297 -334 c 1,16,17
 209 -334 209 -334 164.5 -296.5 c 128,-1,18
 120 -259 120 -259 120 -204 c 0,0,1
EndSplineSet
EndChar

StartChar: oslash
Encoding: 248 248 139
Width: 1591
Flags: W
LayerCount: 2
Fore
SplineSet
452 31 m 1,0,1
 275 90 275 90 180.5 209 c 128,-1,2
 86 328 86 328 86 495 c 0,3,4
 86 613 86 613 134.5 708 c 128,-1,5
 183 803 183 803 274.5 870 c 128,-1,6
 366 937 366 937 498 973.5 c 128,-1,7
 630 1010 630 1010 798 1010 c 0,8,9
 852 1010 852 1010 902.5 1006 c 128,-1,10
 953 1002 953 1002 1000 994 c 1,11,-1
 1140 1239 l 1,12,-1
 1241 1183 l 1,13,-1
 1118 967 l 1,14,15
 1307 911 1307 911 1408.5 789.5 c 128,-1,16
 1510 668 1510 668 1510 495 c 0,17,18
 1510 378 1510 378 1461.5 283 c 128,-1,19
 1413 188 1413 188 1321.5 121 c 128,-1,20
 1230 54 1230 54 1098 17.5 c 128,-1,21
 966 -19 966 -19 798 -19 c 0,22,23
 735 -19 735 -19 678 -14 c 128,-1,24
 621 -9 621 -9 568 1 c 1,25,-1
 416 -265 l 1,26,-1
 315 -209 l 1,27,-1
 452 31 l 1,0,1
887 795 m 1,28,29
 869 812 869 812 846.5 819.5 c 128,-1,30
 824 827 824 827 798 827 c 0,31,32
 760 827 760 827 731.5 812 c 128,-1,33
 703 797 703 797 684 759.5 c 128,-1,34
 665 722 665 722 655 658 c 128,-1,35
 645 594 645 594 645 495 c 0,36,37
 645 462 645 462 646 433 c 128,-1,38
 647 404 647 404 649 378 c 1,39,-1
 887 795 l 1,28,29
691 218 m 1,40,41
 711 188 711 188 737 176 c 128,-1,42
 763 164 763 164 798 164 c 0,43,44
 835 164 835 164 864 179 c 128,-1,45
 893 194 893 194 912 231.5 c 128,-1,46
 931 269 931 269 941 333 c 128,-1,47
 951 397 951 397 951 495 c 0,48,49
 951 544 951 544 948.5 584 c 128,-1,50
 946 624 946 624 941 656 c 1,51,-1
 691 218 l 1,40,41
EndSplineSet
EndChar

StartChar: kgreenlandic
Encoding: 312 312 140
Width: 1556
Flags: W
LayerCount: 2
Fore
SplineSet
137 991 m 1,0,-1
 680 991 l 1,1,-1
 680 574 l 1,2,-1
 1083 991 l 1,3,-1
 1383 991 l 1,4,-1
 1065 668 l 1,5,-1
 1556 0 l 1,6,-1
 948 1 l 1,7,-1
 680 385 l 1,8,-1
 680 0 l 1,9,-1
 137 0 l 1,10,-1
 137 991 l 1,0,-1
EndSplineSet
EndChar

StartChar: lslash
Encoding: 322 322 141
Width: 1021
Flags: W
LayerCount: 2
Fore
SplineSet
232 587 m 1,0,-1
 71 529 l 1,1,-1
 10 702 l 1,2,-1
 232 782 l 1,3,-1
 232 1651 l 1,4,-1
 775 1651 l 1,5,-1
 775 977 l 1,6,-1
 948 1040 l 1,7,-1
 1011 869 l 1,8,-1
 775 783 l 1,9,-1
 775 0 l 1,10,-1
 232 0 l 1,11,-1
 232 587 l 1,0,-1
EndSplineSet
EndChar

StartChar: underscore
Encoding: 95 95 142
Width: 1228
Flags: W
LayerCount: 2
Fore
SplineSet
1258 -298 m 1,0,-1
 1258 -496 l 1,1,-1
 -30 -496 l 1,2,-1
 -30 -298 l 1,3,-1
 1258 -298 l 1,0,-1
EndSplineSet
EndChar

StartChar: AE
Encoding: 198 198 143
Width: 2399
Flags: W
LayerCount: 2
Fore
SplineSet
905 1242 m 1,0,-1
 804 1486 l 1,1,-1
 2292 1486 l 1,2,-1
 2292 1257 l 1,3,-1
 1615 1257 l 1,4,-1
 1614 856 l 1,5,-1
 2132 856 l 1,6,-1
 2132 627 l 1,7,-1
 1614 627 l 1,8,-1
 1614 229 l 1,9,-1
 2292 230 l 1,10,-1
 2292 0 l 1,11,-1
 1036 0 l 1,12,-1
 1036 237 l 1,13,-1
 479 237 l 1,14,-1
 312 0 l 1,15,-1
 3 -1 l 1,16,-1
 905 1242 l 1,0,-1
1036 466 m 1,17,-1
 1036 1026 l 1,18,-1
 640 466 l 1,19,-1
 1036 466 l 1,17,-1
EndSplineSet
EndChar

StartChar: grave.cap
Encoding: 65540 -1 144
Width: 953
Flags: W
LayerCount: 2
Fore
SplineSet
274 1920 m 1,0,1
 327 1882 327 1882 396.5 1846 c 128,-1,2
 466 1810 466 1810 541 1779 c 128,-1,3
 616 1748 616 1748 691.5 1723.5 c 128,-1,4
 767 1699 767 1699 833 1684 c 1,5,-1
 768 1571 l 1,6,7
 590 1582 590 1582 424.5 1622.5 c 128,-1,8
 259 1663 259 1663 120 1732 c 1,9,-1
 274 1920 l 1,0,1
EndSplineSet
EndChar

StartChar: acute.cap
Encoding: 65541 -1 145
Width: 953
Flags: W
LayerCount: 2
Fore
SplineSet
120 1684 m 1,0,1
 186 1699 186 1699 261.5 1723.5 c 128,-1,2
 337 1748 337 1748 412 1779 c 128,-1,3
 487 1810 487 1810 556.5 1846 c 128,-1,4
 626 1882 626 1882 679 1920 c 1,5,-1
 833 1732 l 1,6,7
 694 1663 694 1663 528.5 1622.5 c 128,-1,8
 363 1582 363 1582 185 1571 c 1,9,-1
 120 1684 l 1,0,1
EndSplineSet
EndChar

StartChar: ring.cap
Encoding: 65542 -1 146
Width: 860
Flags: W
LayerCount: 2
Fore
SplineSet
430 1392 m 256,0,1
 314 1392 314 1392 231 1414 c 128,-1,2
 148 1436 148 1436 95.5 1471.5 c 128,-1,3
 43 1507 43 1507 18.5 1551.5 c 128,-1,4
 -6 1596 -6 1596 -6 1642 c 256,5,6
 -6 1688 -6 1688 18.5 1732.5 c 128,-1,7
 43 1777 43 1777 95.5 1812.5 c 128,-1,8
 148 1848 148 1848 231 1870 c 128,-1,9
 314 1892 314 1892 430 1892 c 256,10,11
 546 1892 546 1892 629 1870 c 128,-1,12
 712 1848 712 1848 764.5 1812.5 c 128,-1,13
 817 1777 817 1777 841.5 1732.5 c 128,-1,14
 866 1688 866 1688 866 1642 c 256,15,16
 866 1596 866 1596 841.5 1551.5 c 128,-1,17
 817 1507 817 1507 764.5 1471.5 c 128,-1,18
 712 1436 712 1436 629 1414 c 128,-1,19
 546 1392 546 1392 430 1392 c 256,0,1
430 1513 m 256,20,21
 473 1513 473 1513 506 1524 c 128,-1,22
 539 1535 539 1535 561 1553 c 128,-1,23
 583 1571 583 1571 594.5 1594 c 128,-1,24
 606 1617 606 1617 606 1642 c 256,25,26
 606 1667 606 1667 594.5 1690 c 128,-1,27
 583 1713 583 1713 561 1731 c 128,-1,28
 539 1749 539 1749 506 1760 c 128,-1,29
 473 1771 473 1771 430 1771 c 256,30,31
 387 1771 387 1771 354 1760 c 128,-1,32
 321 1749 321 1749 299 1731 c 128,-1,33
 277 1713 277 1713 265.5 1690 c 128,-1,34
 254 1667 254 1667 254 1642 c 256,35,36
 254 1617 254 1617 265.5 1594 c 128,-1,37
 277 1571 277 1571 299 1553 c 128,-1,38
 321 1535 321 1535 354 1524 c 128,-1,39
 387 1513 387 1513 430 1513 c 256,20,21
EndSplineSet
EndChar

StartChar: dieresis.cap
Encoding: 65543 -1 147
Width: 1572
Flags: W
LayerCount: 2
Fore
SplineSet
1185 1585 m 0,0,1
 1114 1585 1114 1585 1065 1598 c 128,-1,2
 1016 1611 1016 1611 984.5 1634 c 128,-1,3
 953 1657 953 1657 939 1687 c 128,-1,4
 925 1717 925 1717 925 1752 c 0,5,6
 925 1786 925 1786 939 1816.5 c 128,-1,7
 953 1847 953 1847 984.5 1870 c 128,-1,8
 1016 1893 1016 1893 1065 1906 c 128,-1,9
 1114 1919 1114 1919 1185 1919 c 0,10,11
 1255 1919 1255 1919 1306 1906 c 128,-1,12
 1357 1893 1357 1893 1389 1870 c 128,-1,13
 1421 1847 1421 1847 1436.5 1816.5 c 128,-1,14
 1452 1786 1452 1786 1452 1752 c 0,15,16
 1452 1717 1452 1717 1436.5 1687 c 128,-1,17
 1421 1657 1421 1657 1389 1634 c 128,-1,18
 1357 1611 1357 1611 1306 1598 c 128,-1,19
 1255 1585 1255 1585 1185 1585 c 0,0,1
386 1585 m 0,20,21
 315 1585 315 1585 265 1598 c 128,-1,22
 215 1611 215 1611 182.5 1634 c 128,-1,23
 150 1657 150 1657 135 1687 c 128,-1,24
 120 1717 120 1717 120 1752 c 0,25,26
 120 1786 120 1786 135 1816.5 c 128,-1,27
 150 1847 150 1847 182.5 1870 c 128,-1,28
 215 1893 215 1893 265 1906 c 128,-1,29
 315 1919 315 1919 386 1919 c 0,30,31
 456 1919 456 1919 507 1906 c 128,-1,32
 558 1893 558 1893 590 1870 c 128,-1,33
 622 1847 622 1847 637.5 1816.5 c 128,-1,34
 653 1786 653 1786 653 1752 c 0,35,36
 653 1717 653 1717 637.5 1687 c 128,-1,37
 622 1657 622 1657 590 1634 c 128,-1,38
 558 1611 558 1611 507 1598 c 128,-1,39
 456 1585 456 1585 386 1585 c 0,20,21
EndSplineSet
EndChar

StartChar: circumflex.cap
Encoding: 65544 -1 148
Width: 1173
Flags: W
LayerCount: 2
Fore
SplineSet
120 1685 m 1,0,1
 263 1733 263 1733 376 1793 c 128,-1,2
 489 1853 489 1853 586 1920 c 1,3,4
 683 1853 683 1853 795.5 1793 c 128,-1,5
 908 1733 908 1733 1053 1685 c 1,6,-1
 987 1571 l 1,7,8
 891 1581 891 1581 785.5 1606.5 c 128,-1,9
 680 1632 680 1632 586 1665 c 1,10,11
 492 1632 492 1632 386.5 1606.5 c 128,-1,12
 281 1581 281 1581 185 1571 c 1,13,-1
 120 1685 l 1,0,1
EndSplineSet
EndChar

StartChar: tilde.cap
Encoding: 65545 -1 149
Width: 1179
Flags: W
LayerCount: 2
Fore
SplineSet
120 1716 m 1,0,1
 159 1771 159 1771 198 1807.5 c 128,-1,2
 237 1844 237 1844 276 1865.5 c 128,-1,3
 315 1887 315 1887 355.5 1895.5 c 128,-1,4
 396 1904 396 1904 440 1904 c 0,5,6
 497 1904 497 1904 541.5 1892.5 c 128,-1,7
 586 1881 586 1881 626 1867.5 c 128,-1,8
 666 1854 666 1854 706 1843 c 128,-1,9
 746 1832 746 1832 794 1832 c 0,10,11
 818 1832 818 1832 840 1835.5 c 128,-1,12
 862 1839 862 1839 884.5 1847.5 c 128,-1,13
 907 1856 907 1856 931 1870 c 128,-1,14
 955 1884 955 1884 984 1904 c 1,15,-1
 1059 1808 l 1,16,17
 1020 1753 1020 1753 981 1717 c 128,-1,18
 942 1681 942 1681 902.5 1659.5 c 128,-1,19
 863 1638 863 1638 822.5 1629.5 c 128,-1,20
 782 1621 782 1621 739 1621 c 0,21,22
 682 1621 682 1621 637.5 1632 c 128,-1,23
 593 1643 593 1643 553 1656.5 c 128,-1,24
 513 1670 513 1670 473 1681.5 c 128,-1,25
 433 1693 433 1693 385 1693 c 0,26,27
 361 1693 361 1693 339 1689.5 c 128,-1,28
 317 1686 317 1686 294.5 1677.5 c 128,-1,29
 272 1669 272 1669 248 1655 c 128,-1,30
 224 1641 224 1641 195 1621 c 1,31,-1
 120 1716 l 1,0,1
EndSplineSet
EndChar

StartChar: caron.cap
Encoding: 65546 -1 150
Width: 1173
Flags: W
LayerCount: 2
Fore
SplineSet
586 1571 m 1,0,1
 489 1638 489 1638 376 1698 c 128,-1,2
 263 1758 263 1758 120 1806 c 1,3,-1
 185 1920 l 1,4,5
 233 1915 233 1915 284 1904 c 128,-1,6
 335 1893 335 1893 386.5 1877 c 128,-1,7
 438 1861 438 1861 488.5 1842.5 c 128,-1,8
 539 1824 539 1824 586 1804 c 1,9,10
 632 1824 632 1824 683 1842.5 c 128,-1,11
 734 1861 734 1861 785.5 1877 c 128,-1,12
 837 1893 837 1893 888 1904 c 128,-1,13
 939 1915 939 1915 987 1920 c 1,14,-1
 1053 1806 l 1,15,16
 908 1758 908 1758 795.5 1698.5 c 128,-1,17
 683 1639 683 1639 586 1571 c 1,0,1
EndSplineSet
EndChar

StartChar: asciitilde
Encoding: 126 126 151
Width: 1366
Flags: W
LayerCount: 2
Fore
SplineSet
120 517 m 1,0,1
 172 580 172 580 218.5 621.5 c 128,-1,2
 265 663 265 663 311.5 687.5 c 128,-1,3
 358 712 358 712 407 722 c 128,-1,4
 456 732 456 732 513 732 c 256,5,6
 570 732 570 732 618 712 c 128,-1,7
 666 692 666 692 709.5 668.5 c 128,-1,8
 753 645 753 645 796 625 c 128,-1,9
 839 605 839 605 887 605 c 0,10,11
 923 605 923 605 956 610 c 128,-1,12
 989 615 989 615 1022 626 c 128,-1,13
 1055 637 1055 637 1091 656 c 128,-1,14
 1127 675 1127 675 1170 704 c 1,15,-1
 1246 609 l 1,16,17
 1194 546 1194 546 1147.5 504.5 c 128,-1,18
 1101 463 1101 463 1054.5 438.5 c 128,-1,19
 1008 414 1008 414 958.5 404 c 128,-1,20
 909 394 909 394 852 394 c 256,21,22
 795 394 795 394 747.5 414 c 128,-1,23
 700 434 700 434 656 458 c 128,-1,24
 612 482 612 482 569 502 c 128,-1,25
 526 522 526 522 478 522 c 0,26,27
 442 522 442 522 409.5 517 c 128,-1,28
 377 512 377 512 343.5 500.5 c 128,-1,29
 310 489 310 489 274 469.5 c 128,-1,30
 238 450 238 450 195 422 c 1,31,-1
 120 517 l 1,0,1
EndSplineSet
EndChar

StartChar: Lslash
Encoding: 321 321 152
Width: 1450
Flags: W
LayerCount: 2
Fore
SplineSet
305 554 m 1,0,-1
 127 490 l 1,1,-1
 66 662 l 1,2,-1
 305 747 l 1,3,-1
 305 1486 l 1,4,-1
 884 1486 l 1,5,-1
 883 955 l 1,6,-1
 1126 1042 l 1,7,-1
 1188 870 l 1,8,-1
 883 761 l 1,9,-1
 883 229 l 1,10,-1
 1451 229 l 1,11,-1
 1451 0 l 1,12,-1
 305 0 l 1,13,-1
 305 554 l 1,0,-1
EndSplineSet
EndChar

StartChar: Oslash
Encoding: 216 216 153
Width: 2003
Flags: W
LayerCount: 2
Fore
SplineSet
477 102 m 1,0,1
 311 202 311 202 228.5 367 c 128,-1,2
 146 532 146 532 146 746 c 0,3,4
 146 915 146 915 200 1055.5 c 128,-1,5
 254 1196 254 1196 361 1297 c 128,-1,6
 468 1398 468 1398 628 1454 c 128,-1,7
 788 1510 788 1510 1000 1510 c 0,8,9
 1107 1510 1107 1510 1200.5 1495.5 c 128,-1,10
 1294 1481 1294 1481 1375 1453 c 1,11,-1
 1513 1660 l 1,12,-1
 1624 1586 l 1,13,-1
 1499 1398 l 1,14,15
 1587 1349 1587 1349 1653.5 1282 c 128,-1,16
 1720 1215 1720 1215 1764.5 1132 c 128,-1,17
 1809 1049 1809 1049 1831.5 952 c 128,-1,18
 1854 855 1854 855 1854 746 c 0,19,20
 1854 575 1854 575 1800 433 c 128,-1,21
 1746 291 1746 291 1639 190 c 128,-1,22
 1532 89 1532 89 1372 33 c 128,-1,23
 1212 -23 1212 -23 1000 -23 c 0,24,25
 770 -23 770 -23 598 44 c 1,26,-1
 459 -165 l 1,27,-1
 348 -91 l 1,28,-1
 477 102 l 1,0,1
1193 1179 m 1,29,30
 1177 1215 1177 1215 1157 1239 c 128,-1,31
 1137 1263 1137 1263 1113 1277 c 128,-1,32
 1089 1291 1089 1291 1060.5 1296.5 c 128,-1,33
 1032 1302 1032 1302 1000 1302 c 0,34,35
 940 1302 940 1302 893.5 1281 c 128,-1,36
 847 1260 847 1260 816 1200 c 128,-1,37
 785 1140 785 1140 769 1031 c 128,-1,38
 753 922 753 922 753 746 c 0,39,40
 753 683 753 683 754.5 629 c 128,-1,41
 756 575 756 575 761 529 c 1,42,-1
 1193 1179 l 1,29,30
795 340 m 1,43,44
 810 293 810 293 830.5 263 c 128,-1,45
 851 233 851 233 876.5 215.5 c 128,-1,46
 902 198 902 198 933 191 c 128,-1,47
 964 184 964 184 1000 184 c 0,48,49
 1060 184 1060 184 1106 205 c 128,-1,50
 1152 226 1152 226 1183 287 c 128,-1,51
 1214 348 1214 348 1230 458 c 128,-1,52
 1246 568 1246 568 1246 746 c 0,53,54
 1246 896 1246 896 1234 1000 c 1,55,-1
 795 340 l 1,43,44
EndSplineSet
EndChar

StartChar: section
Encoding: 167 167 154
Width: 1589
Flags: W
LayerCount: 2
Fore
SplineSet
164 380 m 0,0,1
 164 476 164 476 215.5 569.5 c 128,-1,2
 267 663 267 663 371 740 c 1,3,4
 268 794 268 794 216 879 c 128,-1,5
 164 964 164 964 164 1070 c 0,6,7
 164 1157 164 1157 200.5 1236.5 c 128,-1,8
 237 1316 237 1316 314 1377 c 128,-1,9
 391 1438 391 1438 511 1474 c 128,-1,10
 631 1510 631 1510 798 1510 c 0,11,12
 878 1510 878 1510 957 1502 c 128,-1,13
 1036 1494 1036 1494 1108 1480.5 c 128,-1,14
 1180 1467 1180 1467 1241.5 1450.5 c 128,-1,15
 1303 1434 1303 1434 1349 1417 c 1,16,-1
 1223 1227 l 1,17,18
 1157 1260 1157 1260 1082 1280.5 c 128,-1,19
 1007 1301 1007 1301 935 1301 c 0,20,21
 848 1301 848 1301 801 1270.5 c 128,-1,22
 754 1240 754 1240 754 1190 c 0,23,24
 754 1173 754 1173 761.5 1157 c 128,-1,25
 769 1141 769 1141 790 1124.5 c 128,-1,26
 811 1108 811 1108 849.5 1090.5 c 128,-1,27
 888 1073 888 1073 950 1054 c 2,28,-1
 1097 1010 l 2,29,30
 1171 987 1171 987 1231.5 950.5 c 128,-1,31
 1292 914 1292 914 1335.5 866 c 128,-1,32
 1379 818 1379 818 1403 760.5 c 128,-1,33
 1427 703 1427 703 1427 637 c 0,34,35
 1427 541 1427 541 1375.5 447.5 c 128,-1,36
 1324 354 1324 354 1220 277 c 1,37,38
 1324 223 1324 223 1375.5 138 c 128,-1,39
 1427 53 1427 53 1427 -53 c 0,40,41
 1427 -140 1427 -140 1390.5 -219.5 c 128,-1,42
 1354 -299 1354 -299 1276.5 -360 c 128,-1,43
 1199 -421 1199 -421 1079 -457 c 128,-1,44
 959 -493 959 -493 792 -493 c 0,45,46
 712 -493 712 -493 633.5 -485 c 128,-1,47
 555 -477 555 -477 483 -463.5 c 128,-1,48
 411 -450 411 -450 349 -433.5 c 128,-1,49
 287 -417 287 -417 242 -400 c 1,50,-1
 368 -210 l 1,51,52
 434 -243 434 -243 508.5 -263.5 c 128,-1,53
 583 -284 583 -284 655 -284 c 0,54,55
 743 -284 743 -284 789.5 -253.5 c 128,-1,56
 836 -223 836 -223 836 -173 c 0,57,58
 836 -156 836 -156 828.5 -140 c 128,-1,59
 821 -124 821 -124 800 -107.5 c 128,-1,60
 779 -91 779 -91 740.5 -73.5 c 128,-1,61
 702 -56 702 -56 640 -37 c 2,62,-1
 494 7 l 2,63,64
 417 31 417 31 356 68 c 128,-1,65
 295 105 295 105 252 153 c 128,-1,66
 209 201 209 201 186.5 258 c 128,-1,67
 164 315 164 315 164 380 c 0,0,1
550 619 m 0,68,69
 550 586 550 586 570.5 556 c 128,-1,70
 591 526 591 526 636.5 496.5 c 128,-1,71
 682 467 682 467 755 437 c 128,-1,72
 828 407 828 407 933 375 c 2,73,-1
 1027 346 l 1,74,75
 1041 371 1041 371 1041 398 c 0,76,77
 1041 431 1041 431 1020.5 461 c 128,-1,78
 1000 491 1000 491 954.5 520.5 c 128,-1,79
 909 550 909 550 836 580 c 128,-1,80
 763 610 763 610 657 642 c 2,81,-1
 563 670 l 1,82,83
 550 644 550 644 550 619 c 0,68,69
EndSplineSet
EndChar

StartChar: cent
Encoding: 162 162 155
Width: 1335
Flags: W
LayerCount: 2
Fore
SplineSet
84 496 m 0,0,1
 84 582 84 582 114.5 663 c 128,-1,2
 145 744 145 744 208 810.5 c 128,-1,3
 271 877 271 877 366 925.5 c 128,-1,4
 461 974 461 974 590 995 c 1,5,-1
 590 1297 l 1,6,-1
 779 1297 l 1,7,-1
 779 1010 l 1,8,-1
 782 1010 l 1,9,-1
 783 1009 l 1,10,-1
 783 1010 l 1,11,12
 911 1010 911 1010 1002 985.5 c 128,-1,13
 1093 961 1093 961 1150.5 921 c 128,-1,14
 1208 881 1208 881 1235 830 c 128,-1,15
 1262 779 1262 779 1262 726 c 0,16,17
 1262 685 1262 685 1243 648 c 128,-1,18
 1224 611 1224 611 1192 582.5 c 128,-1,19
 1160 554 1160 554 1117 537 c 128,-1,20
 1074 520 1074 520 1026 520 c 1,21,-1
 772 866 l 1,22,23
 716 816 716 816 680.5 730.5 c 128,-1,24
 645 645 645 645 645 516 c 0,25,26
 645 427 645 427 666.5 360 c 128,-1,27
 688 293 688 293 726.5 248.5 c 128,-1,28
 765 204 765 204 817 181.5 c 128,-1,29
 869 159 869 159 930 159 c 0,30,31
 960 159 960 159 990.5 163.5 c 128,-1,32
 1021 168 1021 168 1048.5 175.5 c 128,-1,33
 1076 183 1076 183 1099 193 c 128,-1,34
 1122 203 1122 203 1138 214 c 1,35,-1
 1218 74 l 1,36,37
 1181 55 1181 55 1137.5 38 c 128,-1,38
 1094 21 1094 21 1041.5 8.5 c 128,-1,39
 989 -4 989 -4 926 -11.5 c 128,-1,40
 863 -19 863 -19 788 -19 c 2,41,-1
 779 -19 l 1,42,-1
 779 -330 l 1,43,-1
 590 -330 l 1,44,-1
 590 -3 l 1,45,46
 461 18 461 18 366 66.5 c 128,-1,47
 271 115 271 115 208 181.5 c 128,-1,48
 145 248 145 248 114.5 328.5 c 128,-1,49
 84 409 84 409 84 496 c 0,0,1
EndSplineSet
EndChar

StartChar: registered
Encoding: 174 174 156
Width: 1949
Flags: W
LayerCount: 2
Fore
SplineSet
180 743 m 256,0,1
 180 849 180 849 208.5 947 c 128,-1,2
 237 1045 237 1045 288.5 1130 c 128,-1,3
 340 1215 340 1215 412 1285 c 128,-1,4
 484 1355 484 1355 572.5 1405 c 128,-1,5
 661 1455 661 1455 762.5 1482.5 c 128,-1,6
 864 1510 864 1510 974 1510 c 256,7,8
 1084 1510 1084 1510 1186 1482.5 c 128,-1,9
 1288 1455 1288 1455 1376 1405 c 128,-1,10
 1464 1355 1464 1355 1536.5 1285 c 128,-1,11
 1609 1215 1609 1215 1660.5 1130 c 128,-1,12
 1712 1045 1712 1045 1740.5 947 c 128,-1,13
 1769 849 1769 849 1769 743 c 256,14,15
 1769 637 1769 637 1740.5 539 c 128,-1,16
 1712 441 1712 441 1660.5 356 c 128,-1,17
 1609 271 1609 271 1536.5 201 c 128,-1,18
 1464 131 1464 131 1376 81.5 c 128,-1,19
 1288 32 1288 32 1186 4.5 c 128,-1,20
 1084 -23 1084 -23 974 -23 c 256,21,22
 864 -23 864 -23 762.5 4.5 c 128,-1,23
 661 32 661 32 572.5 81.5 c 128,-1,24
 484 131 484 131 412 201 c 128,-1,25
 340 271 340 271 288.5 356 c 128,-1,26
 237 441 237 441 208.5 539 c 128,-1,27
 180 637 180 637 180 743 c 256,0,1
465 743 m 256,28,29
 465 637 465 637 505 544 c 128,-1,30
 545 451 545 451 614 382 c 128,-1,31
 683 313 683 313 776 273.5 c 128,-1,32
 869 234 869 234 974 234 c 0,33,34
 1080 234 1080 234 1173 273.5 c 128,-1,35
 1266 313 1266 313 1335 382 c 128,-1,36
 1404 451 1404 451 1444 544 c 128,-1,37
 1484 637 1484 637 1484 743 c 256,38,39
 1484 849 1484 849 1444 941.5 c 128,-1,40
 1404 1034 1404 1034 1335 1103 c 128,-1,41
 1266 1172 1266 1172 1173 1211.5 c 128,-1,42
 1080 1251 1080 1251 974 1251 c 0,43,44
 869 1251 869 1251 776 1211.5 c 128,-1,45
 683 1172 683 1172 614 1103 c 128,-1,46
 545 1034 545 1034 505 941.5 c 128,-1,47
 465 849 465 849 465 743 c 256,28,29
704 1025 m 1,48,-1
 869 1025 l 1,49,-1
 1043 1026 l 2,50,51
 1164 1027 1164 1027 1224.5 980 c 128,-1,52
 1285 933 1285 933 1285 856 c 0,53,54
 1285 811 1285 811 1260.5 772.5 c 128,-1,55
 1236 734 1236 734 1189 710 c 1,56,-1
 1313 488 l 1,57,-1
 1053 488 l 1,58,-1
 959 682 l 1,59,-1
 933 682 l 1,60,-1
 933 488 l 1,61,-1
 704 488 l 1,62,-1
 704 1025 l 1,48,-1
960 790 m 2,63,64
 1005 790 1005 790 1025 807.5 c 128,-1,65
 1045 825 1045 825 1045 856 c 0,66,67
 1045 888 1045 888 1025.5 903.5 c 128,-1,68
 1006 919 1006 919 962 919 c 2,69,-1
 933 919 l 1,70,-1
 933 790 l 1,71,-1
 960 790 l 2,63,64
EndSplineSet
EndChar

StartChar: copyright
Encoding: 169 169 157
Width: 1949
Flags: W
LayerCount: 2
Fore
SplineSet
180 743 m 256,0,1
 180 849 180 849 208.5 947 c 128,-1,2
 237 1045 237 1045 288.5 1130 c 128,-1,3
 340 1215 340 1215 412 1285 c 128,-1,4
 484 1355 484 1355 572.5 1405 c 128,-1,5
 661 1455 661 1455 762.5 1482.5 c 128,-1,6
 864 1510 864 1510 974 1510 c 256,7,8
 1084 1510 1084 1510 1186 1482.5 c 128,-1,9
 1288 1455 1288 1455 1376 1405 c 128,-1,10
 1464 1355 1464 1355 1536.5 1285 c 128,-1,11
 1609 1215 1609 1215 1660.5 1130 c 128,-1,12
 1712 1045 1712 1045 1740.5 947 c 128,-1,13
 1769 849 1769 849 1769 743 c 256,14,15
 1769 637 1769 637 1740.5 539 c 128,-1,16
 1712 441 1712 441 1660.5 356 c 128,-1,17
 1609 271 1609 271 1536.5 201 c 128,-1,18
 1464 131 1464 131 1376 81.5 c 128,-1,19
 1288 32 1288 32 1186 4.5 c 128,-1,20
 1084 -23 1084 -23 974 -23 c 256,21,22
 864 -23 864 -23 762.5 4.5 c 128,-1,23
 661 32 661 32 572.5 81.5 c 128,-1,24
 484 131 484 131 412 201 c 128,-1,25
 340 271 340 271 288.5 356 c 128,-1,26
 237 441 237 441 208.5 539 c 128,-1,27
 180 637 180 637 180 743 c 256,0,1
465 743 m 256,28,29
 465 637 465 637 505 544 c 128,-1,30
 545 451 545 451 614 382 c 128,-1,31
 683 313 683 313 776 273.5 c 128,-1,32
 869 234 869 234 974 234 c 0,33,34
 1080 234 1080 234 1173 273.5 c 128,-1,35
 1266 313 1266 313 1335 382 c 128,-1,36
 1404 451 1404 451 1444 544 c 128,-1,37
 1484 637 1484 637 1484 743 c 256,38,39
 1484 849 1484 849 1444 941.5 c 128,-1,40
 1404 1034 1404 1034 1335 1103 c 128,-1,41
 1266 1172 1266 1172 1173 1211.5 c 128,-1,42
 1080 1251 1080 1251 974 1251 c 0,43,44
 869 1251 869 1251 776 1211.5 c 128,-1,45
 683 1172 683 1172 614 1103 c 128,-1,46
 545 1034 545 1034 505 941.5 c 128,-1,47
 465 849 465 849 465 743 c 256,28,29
716 744 m 0,48,49
 716 793 716 793 736 840 c 128,-1,50
 756 887 756 887 794 923.5 c 128,-1,51
 832 960 832 960 886.5 982 c 128,-1,52
 941 1004 941 1004 1011 1004 c 0,53,54
 1044 1004 1044 1004 1074.5 999 c 128,-1,55
 1105 994 1105 994 1131 986.5 c 128,-1,56
 1157 979 1157 979 1178 969 c 128,-1,57
 1199 959 1199 959 1212 949 c 1,58,-1
 1178 876 l 1,59,60
 1158 884 1158 884 1136 889 c 128,-1,61
 1114 894 1114 894 1093 894 c 0,62,63
 1062 894 1062 894 1036.5 883 c 128,-1,64
 1011 872 1011 872 992.5 852.5 c 128,-1,65
 974 833 974 833 963.5 805.5 c 128,-1,66
 953 778 953 778 953 745 c 0,67,68
 953 710 953 710 964.5 681.5 c 128,-1,69
 976 653 976 653 995.5 633.5 c 128,-1,70
 1015 614 1015 614 1042 603.5 c 128,-1,71
 1069 593 1069 593 1100 593 c 0,72,73
 1130 593 1130 593 1155.5 601 c 128,-1,74
 1181 609 1181 609 1192 617 c 1,75,-1
 1225 539 l 1,76,77
 1193 519 1193 519 1140.5 501 c 128,-1,78
 1088 483 1088 483 1020 483 c 0,79,80
 950 483 950 483 893.5 504.5 c 128,-1,81
 837 526 837 526 797.5 562.5 c 128,-1,82
 758 599 758 599 737 646 c 128,-1,83
 716 693 716 693 716 744 c 0,48,49
EndSplineSet
EndChar

StartChar: ordfeminine
Encoding: 170 170 158
Width: 1239
Flags: W
LayerCount: 2
Fore
SplineSet
438 814 m 0,0,1
 366 814 366 814 307.5 832.5 c 128,-1,2
 249 851 249 851 207 883.5 c 128,-1,3
 165 916 165 916 142.5 960 c 128,-1,4
 120 1004 120 1004 120 1056 c 256,5,6
 120 1108 120 1108 143.5 1153.5 c 128,-1,7
 167 1199 167 1199 211 1232.5 c 128,-1,8
 255 1266 255 1266 317.5 1285.5 c 128,-1,9
 380 1305 380 1305 458 1305 c 0,10,11
 526 1305 526 1305 594.5 1286.5 c 128,-1,12
 663 1268 663 1268 717 1236 c 1,13,14
 713 1330 713 1330 666.5 1369 c 128,-1,15
 620 1408 620 1408 524 1408 c 0,16,17
 479 1408 479 1408 431.5 1401 c 128,-1,18
 384 1394 384 1394 343 1379 c 1,19,-1
 289 1506 l 1,20,21
 369 1538 369 1538 455.5 1552.5 c 128,-1,22
 542 1567 542 1567 634 1567 c 0,23,24
 867 1567 867 1567 993 1478.5 c 128,-1,25
 1119 1390 1119 1390 1119 1210 c 2,26,-1
 1119 827 l 1,27,-1
 745 827 l 1,28,-1
 719 898 l 1,29,30
 674 864 674 864 600.5 839 c 128,-1,31
 527 814 527 814 438 814 c 0,0,1
616 1010 m 0,32,33
 640 1010 640 1010 667.5 1019 c 128,-1,34
 695 1028 695 1028 718 1045 c 1,35,-1
 718 1106 l 1,36,37
 695 1119 695 1119 670.5 1125.5 c 128,-1,38
 646 1132 646 1132 623 1132 c 0,39,40
 580 1132 580 1132 556.5 1114.5 c 128,-1,41
 533 1097 533 1097 533 1070 c 0,42,43
 533 1044 533 1044 552.5 1027 c 128,-1,44
 572 1010 572 1010 616 1010 c 0,32,33
EndSplineSet
EndChar

StartChar: ordmasculine
Encoding: 186 186 159
Width: 1285
Flags: W
LayerCount: 2
Fore
SplineSet
642 814 m 256,0,1
 519 814 519 814 422 840.5 c 128,-1,2
 325 867 325 867 258 916 c 128,-1,3
 191 965 191 965 155.5 1035 c 128,-1,4
 120 1105 120 1105 120 1191 c 256,5,6
 120 1277 120 1277 155.5 1347 c 128,-1,7
 191 1417 191 1417 258 1466 c 128,-1,8
 325 1515 325 1515 422 1541.5 c 128,-1,9
 519 1568 519 1568 642 1568 c 256,10,11
 765 1568 765 1568 862 1541.5 c 128,-1,12
 959 1515 959 1515 1026.5 1466 c 128,-1,13
 1094 1417 1094 1417 1129.5 1347 c 128,-1,14
 1165 1277 1165 1277 1165 1191 c 256,15,16
 1165 1105 1165 1105 1129.5 1035 c 128,-1,17
 1094 965 1094 965 1026.5 916 c 128,-1,18
 959 867 959 867 862 840.5 c 128,-1,19
 765 814 765 814 642 814 c 256,0,1
642 957 m 0,20,21
 669 957 669 957 690 967.5 c 128,-1,22
 711 978 711 978 725.5 1005 c 128,-1,23
 740 1032 740 1032 747 1077 c 128,-1,24
 754 1122 754 1122 754 1191 c 256,25,26
 754 1260 754 1260 747 1305.5 c 128,-1,27
 740 1351 740 1351 725.5 1377.5 c 128,-1,28
 711 1404 711 1404 690 1414.5 c 128,-1,29
 669 1425 669 1425 642 1425 c 0,30,31
 614 1425 614 1425 593 1414.5 c 128,-1,32
 572 1404 572 1404 558 1377.5 c 128,-1,33
 544 1351 544 1351 537 1305.5 c 128,-1,34
 530 1260 530 1260 530 1191 c 256,35,36
 530 1122 530 1122 537 1077 c 128,-1,37
 544 1032 544 1032 558 1005 c 128,-1,38
 572 978 572 978 593 967.5 c 128,-1,39
 614 957 614 957 642 957 c 0,20,21
EndSplineSet
EndChar

StartChar: Thorn
Encoding: 222 222 160
Width: 1714
Flags: W
LayerCount: 2
Fore
SplineSet
190 1486 m 1,0,-1
 768 1486 l 1,1,-1
 768 1266 l 1,2,-1
 905 1266 l 1,3,4
 1103 1267 1103 1267 1246.5 1231.5 c 128,-1,5
 1390 1196 1390 1196 1483 1130 c 128,-1,6
 1576 1064 1576 1064 1620.5 971.5 c 128,-1,7
 1665 879 1665 879 1665 766 c 0,8,9
 1665 667 1665 667 1623.5 576.5 c 128,-1,10
 1582 486 1582 486 1495.5 417 c 128,-1,11
 1409 348 1409 348 1275.5 307 c 128,-1,12
 1142 266 1142 266 958 266 c 2,13,-1
 768 266 l 1,14,-1
 768 0 l 1,15,-1
 190 0 l 1,16,-1
 190 1486 l 1,0,-1
768 484 m 1,17,18
 837 485 837 485 891 505.5 c 128,-1,19
 945 526 945 526 982 562.5 c 128,-1,20
 1019 599 1019 599 1038.5 650.5 c 128,-1,21
 1058 702 1058 702 1058 766 c 0,22,23
 1058 829 1058 829 1038 880 c 128,-1,24
 1018 931 1018 931 980.5 967.5 c 128,-1,25
 943 1004 943 1004 889.5 1025 c 128,-1,26
 836 1046 836 1046 768 1048 c 1,27,-1
 768 484 l 1,17,18
EndSplineSet
EndChar

StartChar: caron
Encoding: 711 711 161
Width: 1173
Flags: W
LayerCount: 2
Fore
SplineSet
587 1112 m 1,0,1
 490 1199 490 1199 377.5 1274 c 128,-1,2
 265 1349 265 1349 120 1412 c 1,3,-1
 186 1526 l 1,4,5
 234 1519 234 1519 285 1506.5 c 128,-1,6
 336 1494 336 1494 387.5 1477 c 128,-1,7
 439 1460 439 1460 489.5 1439.5 c 128,-1,8
 540 1419 540 1419 587 1395 c 1,9,10
 681 1443 681 1443 786.5 1477.5 c 128,-1,11
 892 1512 892 1512 988 1526 c 1,12,-1
 1053 1412 l 1,13,14
 909 1349 909 1349 796.5 1274 c 128,-1,15
 684 1199 684 1199 587 1112 c 1,0,1
EndSplineSet
EndChar

StartChar: ij
Encoding: 307 307 162
Width: 1657
Flags: W
LayerCount: 2
Fore
SplineSet
973 1364 m 0,0,1
 973 1407 973 1407 989 1445 c 128,-1,2
 1005 1483 1005 1483 1039.5 1511.5 c 128,-1,3
 1074 1540 1074 1540 1127.5 1556 c 128,-1,4
 1181 1572 1181 1572 1255 1572 c 0,5,6
 1330 1572 1330 1572 1383 1556 c 128,-1,7
 1436 1540 1436 1540 1470.5 1511.5 c 128,-1,8
 1505 1483 1505 1483 1521 1445 c 128,-1,9
 1537 1407 1537 1407 1537 1364 c 0,10,11
 1537 1320 1537 1320 1521 1282.5 c 128,-1,12
 1505 1245 1505 1245 1470.5 1216.5 c 128,-1,13
 1436 1188 1436 1188 1383 1172 c 128,-1,14
 1330 1156 1330 1156 1255 1156 c 0,15,16
 1181 1156 1181 1156 1127.5 1172 c 128,-1,17
 1074 1188 1074 1188 1039.5 1216.5 c 128,-1,18
 1005 1245 1005 1245 989 1282.5 c 128,-1,19
 973 1320 973 1320 973 1364 c 0,0,1
411 1156 m 0,20,21
 337 1156 337 1156 283.5 1172 c 128,-1,22
 230 1188 230 1188 196 1216.5 c 128,-1,23
 162 1245 162 1245 146 1282.5 c 128,-1,24
 130 1320 130 1320 130 1364 c 0,25,26
 130 1407 130 1407 146 1445 c 128,-1,27
 162 1483 162 1483 196 1511.5 c 128,-1,28
 230 1540 230 1540 283.5 1556 c 128,-1,29
 337 1572 337 1572 411 1572 c 0,30,31
 486 1572 486 1572 539 1556 c 128,-1,32
 592 1540 592 1540 626.5 1511.5 c 128,-1,33
 661 1483 661 1483 677 1445 c 128,-1,34
 693 1407 693 1407 693 1364 c 0,35,36
 693 1320 693 1320 677 1282.5 c 128,-1,37
 661 1245 661 1245 626.5 1216.5 c 128,-1,38
 592 1188 592 1188 539 1172 c 128,-1,39
 486 1156 486 1156 411 1156 c 0,20,21
875 -401 m 1,40,41
 906 -368 906 -368 927 -335.5 c 128,-1,42
 948 -303 948 -303 960.5 -266.5 c 128,-1,43
 973 -230 973 -230 978.5 -186 c 128,-1,44
 984 -142 984 -142 984 -86 c 2,45,-1
 984 991 l 1,46,-1
 1527 991 l 1,47,-1
 1527 165 l 2,48,49
 1527 27 1527 27 1487 -85.5 c 128,-1,50
 1447 -198 1447 -198 1370 -282 c 128,-1,51
 1293 -366 1293 -366 1179 -420 c 128,-1,52
 1065 -474 1065 -474 918 -495 c 1,53,-1
 875 -401 l 1,40,41
140 991 m 1,54,-1
 683 991 l 1,55,-1
 683 0 l 1,56,-1
 140 0 l 1,57,-1
 140 991 l 1,54,-1
EndSplineSet
EndChar

StartChar: IJ
Encoding: 306 306 163
Width: 1976
Flags: W
LayerCount: 2
Fore
SplineSet
1055 -369 m 1,0,1
 1095 -339 1095 -339 1123.5 -305 c 128,-1,2
 1152 -271 1152 -271 1170.5 -226.5 c 128,-1,3
 1189 -182 1189 -182 1198 -124.5 c 128,-1,4
 1207 -67 1207 -67 1207 10 c 2,5,-1
 1207 1486 l 1,6,-1
 1785 1486 l 1,7,-1
 1785 230 l 1,8,9
 1786 89 1786 89 1742.5 -33.5 c 128,-1,10
 1699 -156 1699 -156 1614 -250.5 c 128,-1,11
 1529 -345 1529 -345 1406 -407.5 c 128,-1,12
 1283 -470 1283 -470 1127 -490 c 1,13,-1
 1055 -369 l 1,0,1
190 1486 m 1,14,-1
 769 1486 l 1,15,-1
 768 0 l 1,16,-1
 190 0 l 1,17,-1
 190 1486 l 1,14,-1
EndSplineSet
EndChar

StartChar: onesuperior
Encoding: 185 185 164
Width: 1046
Flags: W
LayerCount: 2
Fore
SplineSet
446 1250 m 1,0,-1
 200 1250 l 1,1,-1
 200 1399 l 1,2,3
 254 1406 254 1406 301 1424 c 128,-1,4
 348 1442 348 1442 388 1467.5 c 128,-1,5
 428 1493 428 1493 459.5 1525.5 c 128,-1,6
 491 1558 491 1558 512 1594 c 1,7,-1
 846 1594 l 1,8,-1
 846 531 l 1,9,-1
 446 531 l 1,10,-1
 446 1250 l 1,0,-1
EndSplineSet
EndChar

StartChar: twosuperior
Encoding: 178 178 165
Width: 1319
Flags: W
LayerCount: 2
Fore
SplineSet
231 647 m 1,0,-1
 491 914 l 2,1,2
 546 971 546 971 584 1018.5 c 128,-1,3
 622 1066 622 1066 645 1106 c 128,-1,4
 668 1146 668 1146 678.5 1179.5 c 128,-1,5
 689 1213 689 1213 689 1240 c 0,6,7
 689 1273 689 1273 676.5 1297.5 c 128,-1,8
 664 1322 664 1322 643 1339 c 128,-1,9
 622 1356 622 1356 594 1364.5 c 128,-1,10
 566 1373 566 1373 535 1373 c 0,11,12
 485 1373 485 1373 431 1352.5 c 128,-1,13
 377 1332 377 1332 333 1297 c 1,14,-1
 210 1462 l 1,15,16
 246 1492 246 1492 294.5 1520 c 128,-1,17
 343 1548 343 1548 403 1569.5 c 128,-1,18
 463 1591 463 1591 534.5 1604.5 c 128,-1,19
 606 1618 606 1618 689 1618 c 0,20,21
 794 1618 794 1618 875.5 1596 c 128,-1,22
 957 1574 957 1574 1013.5 1535 c 128,-1,23
 1070 1496 1070 1496 1099.5 1441.5 c 128,-1,24
 1129 1387 1129 1387 1129 1322 c 0,25,26
 1129 1253 1129 1253 1100.5 1189 c 128,-1,27
 1072 1125 1072 1125 1011.5 1060 c 128,-1,28
 951 995 951 995 855.5 928 c 128,-1,29
 760 861 760 861 627 786 c 1,30,-1
 615 777 l 1,31,-1
 892 832 l 1,32,-1
 1117 832 l 1,33,-1
 1117 531 l 1,34,-1
 233 531 l 1,35,-1
 234 532 l 1,36,-1
 231 531 l 1,37,-1
 231 647 l 1,0,-1
EndSplineSet
EndChar

StartChar: threesuperior
Encoding: 179 179 166
Width: 1360
Flags: W
LayerCount: 2
Fore
SplineSet
298 774 m 1,0,1
 312 769 312 769 332.5 761.5 c 128,-1,2
 353 754 353 754 379.5 747 c 128,-1,3
 406 740 406 740 437.5 734.5 c 128,-1,4
 469 729 469 729 504 729 c 0,5,6
 556 729 556 729 596 741.5 c 128,-1,7
 636 754 636 754 663.5 775 c 128,-1,8
 691 796 691 796 705.5 824 c 128,-1,9
 720 852 720 852 720 883 c 0,10,11
 720 919 720 919 701 948.5 c 128,-1,12
 682 978 682 978 648.5 997.5 c 128,-1,13
 615 1017 615 1017 569.5 1025 c 128,-1,14
 524 1033 524 1033 471 1026 c 1,15,-1
 471 1127 l 1,16,-1
 700 1323 l 1,17,-1
 580 1305 l 1,18,-1
 289 1305 l 1,19,-1
 289 1594 l 1,20,-1
 1098 1594 l 1,21,-1
 1098 1471 l 1,22,-1
 766 1179 l 1,23,24
 862 1176 862 1176 935.5 1149.5 c 128,-1,25
 1009 1123 1009 1123 1059 1080 c 128,-1,26
 1109 1037 1109 1037 1134.5 981 c 128,-1,27
 1160 925 1160 925 1160 862 c 0,28,29
 1160 783 1160 783 1121.5 718.5 c 128,-1,30
 1083 654 1083 654 1015 608.5 c 128,-1,31
 947 563 947 563 855 538 c 128,-1,32
 763 513 763 513 655 513 c 0,33,34
 594 513 594 513 531.5 521 c 128,-1,35
 469 529 469 529 409.5 544.5 c 128,-1,36
 350 560 350 560 296.5 581.5 c 128,-1,37
 243 603 243 603 200 630 c 1,38,-1
 298 774 l 1,0,1
EndSplineSet
EndChar

StartChar: onequarter
Encoding: 188 188 167
Width: 2814
Flags: W
LayerCount: 2
Fore
SplineSet
1793 1770 m 1,0,-1
 1961 1670 l 1,1,-1
 910 -177 l 1,2,-1
 742 -78 l 1,3,-1
 1793 1770 l 1,0,-1
446 1250 m 1,4,-1
 200 1250 l 1,5,-1
 200 1399 l 1,6,7
 254 1406 254 1406 301 1424 c 128,-1,8
 348 1442 348 1442 388 1467.5 c 128,-1,9
 428 1493 428 1493 459.5 1525.5 c 128,-1,10
 491 1558 491 1558 512 1594 c 1,11,-1
 846 1594 l 1,12,-1
 846 531 l 1,13,-1
 446 531 l 1,14,-1
 446 1250 l 1,4,-1
1535 357 m 1,15,-1
 2046 1062 l 1,16,-1
 2463 1062 l 1,17,-1
 2463 407 l 1,18,-1
 2614 407 l 1,19,-1
 2614 202 l 1,20,-1
 2463 202 l 1,21,-1
 2463 0 l 1,22,-1
 2063 0 l 1,23,-1
 2063 202 l 1,24,-1
 1535 202 l 1,25,-1
 1535 357 l 1,15,-1
2063 407 m 1,26,-1
 2063 771 l 1,27,-1
 1814 407 l 1,28,-1
 2063 407 l 1,26,-1
EndSplineSet
EndChar

StartChar: onehalf
Encoding: 189 189 168
Width: 2870
Flags: W
LayerCount: 2
Fore
SplineSet
1793 1770 m 1,0,-1
 1961 1670 l 1,1,-1
 910 -177 l 1,2,-1
 742 -78 l 1,3,-1
 1793 1770 l 1,0,-1
446 1250 m 1,4,-1
 200 1250 l 1,5,-1
 200 1399 l 1,6,7
 254 1406 254 1406 301 1424 c 128,-1,8
 348 1442 348 1442 388 1467.5 c 128,-1,9
 428 1493 428 1493 459.5 1525.5 c 128,-1,10
 491 1558 491 1558 512 1594 c 1,11,-1
 846 1594 l 1,12,-1
 846 531 l 1,13,-1
 446 531 l 1,14,-1
 446 1250 l 1,4,-1
1772 117 m 1,15,-1
 2032 384 l 2,16,17
 2087 441 2087 441 2125 488.5 c 128,-1,18
 2163 536 2163 536 2186 576 c 128,-1,19
 2209 616 2209 616 2219.5 649.5 c 128,-1,20
 2230 683 2230 683 2230 710 c 0,21,22
 2230 743 2230 743 2217.5 767.5 c 128,-1,23
 2205 792 2205 792 2184 809 c 128,-1,24
 2163 826 2163 826 2135 834.5 c 128,-1,25
 2107 843 2107 843 2076 843 c 0,26,27
 2026 843 2026 843 1972 822.5 c 128,-1,28
 1918 802 1918 802 1874 767 c 1,29,-1
 1751 932 l 1,30,31
 1787 962 1787 962 1835.5 990 c 128,-1,32
 1884 1018 1884 1018 1944 1039.5 c 128,-1,33
 2004 1061 2004 1061 2075.5 1074.5 c 128,-1,34
 2147 1088 2147 1088 2230 1088 c 0,35,36
 2335 1088 2335 1088 2416.5 1066 c 128,-1,37
 2498 1044 2498 1044 2554.5 1005 c 128,-1,38
 2611 966 2611 966 2640.5 911.5 c 128,-1,39
 2670 857 2670 857 2670 792 c 0,40,41
 2670 723 2670 723 2641.5 659 c 128,-1,42
 2613 595 2613 595 2552.5 530 c 128,-1,43
 2492 465 2492 465 2396.5 398 c 128,-1,44
 2301 331 2301 331 2168 256 c 1,45,-1
 2156 247 l 1,46,-1
 2433 302 l 1,47,-1
 2658 302 l 1,48,-1
 2658 1 l 1,49,-1
 1774 1 l 1,50,-1
 1775 2 l 1,51,-1
 1772 1 l 1,52,-1
 1772 117 l 1,15,-1
EndSplineSet
EndChar

StartChar: threequarters
Encoding: 190 190 169
Width: 3016
Flags: W
LayerCount: 2
Fore
SplineSet
1995 1770 m 1,0,-1
 2163 1670 l 1,1,-1
 1112 -177 l 1,2,-1
 944 -78 l 1,3,-1
 1995 1770 l 1,0,-1
298 777 m 1,4,5
 312 772 312 772 332.5 764.5 c 128,-1,6
 353 757 353 757 379.5 750 c 128,-1,7
 406 743 406 743 437.5 737.5 c 128,-1,8
 469 732 469 732 504 732 c 0,9,10
 556 732 556 732 596 744.5 c 128,-1,11
 636 757 636 757 663.5 778 c 128,-1,12
 691 799 691 799 705.5 827 c 128,-1,13
 720 855 720 855 720 886 c 0,14,15
 720 922 720 922 701 951.5 c 128,-1,16
 682 981 682 981 648.5 1000.5 c 128,-1,17
 615 1020 615 1020 569.5 1028 c 128,-1,18
 524 1036 524 1036 471 1029 c 1,19,-1
 471 1130 l 1,20,-1
 700 1326 l 1,21,-1
 580 1308 l 1,22,-1
 289 1308 l 1,23,-1
 289 1597 l 1,24,-1
 1098 1597 l 1,25,-1
 1098 1474 l 1,26,-1
 766 1182 l 1,27,28
 862 1179 862 1179 935.5 1152.5 c 128,-1,29
 1009 1126 1009 1126 1059 1083 c 128,-1,30
 1109 1040 1109 1040 1134.5 984 c 128,-1,31
 1160 928 1160 928 1160 865 c 0,32,33
 1160 786 1160 786 1121.5 721.5 c 128,-1,34
 1083 657 1083 657 1015 611.5 c 128,-1,35
 947 566 947 566 855 541 c 128,-1,36
 763 516 763 516 655 516 c 0,37,38
 594 516 594 516 531.5 524 c 128,-1,39
 469 532 469 532 409.5 547.5 c 128,-1,40
 350 563 350 563 296.5 584.5 c 128,-1,41
 243 606 243 606 200 633 c 1,42,-1
 298 777 l 1,4,5
1737 357 m 1,43,-1
 2248 1062 l 1,44,-1
 2665 1062 l 1,45,-1
 2665 407 l 1,46,-1
 2816 407 l 1,47,-1
 2816 202 l 1,48,-1
 2665 202 l 1,49,-1
 2665 0 l 1,50,-1
 2265 0 l 1,51,-1
 2265 202 l 1,52,-1
 1737 202 l 1,53,-1
 1737 357 l 1,43,-1
2265 407 m 1,54,-1
 2265 771 l 1,55,-1
 2016 407 l 1,56,-1
 2265 407 l 1,54,-1
EndSplineSet
EndChar

StartChar: dotaccentcmb
Encoding: 775 775 170
Width: 804
Flags: W
LayerCount: 2
Fore
SplineSet
402 596 m 256,0,1
 327 596 327 596 274 612.5 c 128,-1,2
 221 629 221 629 186.5 657 c 128,-1,3
 152 685 152 685 136 723 c 128,-1,4
 120 761 120 761 120 804 c 256,5,6
 120 847 120 847 136 885 c 128,-1,7
 152 923 152 923 186.5 951.5 c 128,-1,8
 221 980 221 980 274 996 c 128,-1,9
 327 1012 327 1012 402 1012 c 256,10,11
 477 1012 477 1012 530 996 c 128,-1,12
 583 980 583 980 617.5 951.5 c 128,-1,13
 652 923 652 923 668 885 c 128,-1,14
 684 847 684 847 684 804 c 256,15,16
 684 761 684 761 668 723 c 128,-1,17
 652 685 652 685 617.5 657 c 128,-1,18
 583 629 583 629 530 612.5 c 128,-1,19
 477 596 477 596 402 596 c 256,0,1
EndSplineSet
EndChar

StartChar: macron.cap
Encoding: 65547 -1 171
Width: 1130
Flags: W
LayerCount: 2
Fore
SplineSet
120 1920 m 1,0,-1
 1010 1920 l 1,1,-1
 1010 1731 l 1,2,-1
 120 1731 l 1,3,-1
 120 1920 l 1,0,-1
EndSplineSet
EndChar

StartChar: OE
Encoding: 338 338 172
Width: 2570
Flags: W
LayerCount: 2
Fore
SplineSet
103 746 m 0,0,1
 103 915 103 915 157 1055.5 c 128,-1,2
 211 1196 211 1196 318 1297 c 128,-1,3
 425 1398 425 1398 585 1454 c 128,-1,4
 745 1510 745 1510 957 1510 c 0,5,6
 1026 1510 1026 1510 1089 1503.5 c 128,-1,7
 1152 1497 1152 1497 1210 1486 c 1,8,-1
 2463 1486 l 1,9,-1
 2463 1257 l 1,10,-1
 1786 1257 l 1,11,-1
 1785 856 l 1,12,-1
 2303 856 l 1,13,-1
 2303 627 l 1,14,-1
 1785 627 l 1,15,-1
 1785 229 l 1,16,-1
 2463 229 l 1,17,-1
 2463 -1 l 1,18,-1
 1701 -1 l 1,19,-1
 1701 0 l 1,20,-1
 1207 0 l 1,21,22
 1149 -11 1149 -11 1087 -17 c 128,-1,23
 1025 -23 1025 -23 957 -23 c 0,24,25
 745 -23 745 -23 585 33 c 128,-1,26
 425 89 425 89 318 190 c 128,-1,27
 211 291 211 291 157 433 c 128,-1,28
 103 575 103 575 103 746 c 0,0,1
957 184 m 256,29,30
 1017 184 1017 184 1063 205 c 128,-1,31
 1109 226 1109 226 1140 287 c 128,-1,32
 1171 348 1171 348 1187 458 c 128,-1,33
 1203 568 1203 568 1203 746 c 0,34,35
 1203 922 1203 922 1187 1031 c 128,-1,36
 1171 1140 1171 1140 1140 1200 c 128,-1,37
 1109 1260 1109 1260 1063 1281 c 128,-1,38
 1017 1302 1017 1302 957 1302 c 256,39,40
 897 1302 897 1302 850.5 1281 c 128,-1,41
 804 1260 804 1260 773 1200 c 128,-1,42
 742 1140 742 1140 726 1031 c 128,-1,43
 710 922 710 922 710 746 c 0,44,45
 710 568 710 568 726 458 c 128,-1,46
 742 348 742 348 773 287 c 128,-1,47
 804 226 804 226 850.5 205 c 128,-1,48
 897 184 897 184 957 184 c 256,29,30
EndSplineSet
EndChar

StartChar: agrave
Encoding: 224 224 173
Width: 1557
Flags: W
LayerCount: 2
Fore
SplineSet
574 1586 m 1,0,1
 689 1500 689 1500 825 1424.5 c 128,-1,2
 961 1349 961 1349 1133 1286 c 1,3,-1
 1068 1172 l 1,4,5
 986 1182 986 1182 896 1204 c 128,-1,6
 806 1226 806 1226 719.5 1256 c 128,-1,7
 633 1286 633 1286 555.5 1323 c 128,-1,8
 478 1360 478 1360 420 1399 c 1,9,-1
 574 1586 l 1,0,1
75 312 m 0,10,11
 75 384 75 384 107 446 c 128,-1,12
 139 508 139 508 199 554 c 128,-1,13
 259 600 259 600 344 626.5 c 128,-1,14
 429 653 429 653 534 653 c 256,15,16
 639 653 639 653 730.5 628.5 c 128,-1,17
 822 604 822 604 884 566 c 1,18,-1
 884 574 l 2,19,20
 884 644 884 644 868.5 693 c 128,-1,21
 853 742 853 742 821 773 c 128,-1,22
 789 804 789 804 739.5 818 c 128,-1,23
 690 832 690 832 623 832 c 0,24,25
 562 832 562 832 497 821.5 c 128,-1,26
 432 811 432 811 377 791 c 1,27,-1
 304 926 l 1,28,29
 413 971 413 971 529.5 990.5 c 128,-1,30
 646 1010 646 1010 770 1010 c 0,31,32
 929 1010 929 1010 1051.5 979.5 c 128,-1,33
 1174 949 1174 949 1257.5 888.5 c 128,-1,34
 1341 828 1341 828 1384 736.5 c 128,-1,35
 1427 645 1427 645 1427 522 c 2,36,-1
 1427 0 l 1,37,-1
 920 0 l 1,38,-1
 886 96 l 1,39,40
 856 73 856 73 815 52 c 128,-1,41
 774 31 774 31 725 15 c 128,-1,42
 676 -1 676 -1 621 -10 c 128,-1,43
 566 -19 566 -19 506 -19 c 0,44,45
 408 -19 408 -19 328.5 6.5 c 128,-1,46
 249 32 249 32 193 76 c 128,-1,47
 137 120 137 120 106 180.5 c 128,-1,48
 75 241 75 241 75 312 c 0,10,11
635 333 m 0,49,50
 635 279 635 279 670 245.5 c 128,-1,51
 705 212 705 212 764 212 c 0,52,53
 796 212 796 212 827 222.5 c 128,-1,54
 858 233 858 233 884 254 c 1,55,-1
 884 423 l 1,56,57
 834 453 834 453 774 453 c 0,58,59
 706 453 706 453 670.5 419.5 c 128,-1,60
 635 386 635 386 635 333 c 0,49,50
EndSplineSet
EndChar

StartChar: adieresis
Encoding: 228 228 174
Width: 1557
Flags: W
LayerCount: 2
Fore
SplineSet
891 1353 m 256,0,1
 891 1394 891 1394 906 1430 c 128,-1,2
 921 1466 921 1466 953.5 1492.5 c 128,-1,3
 986 1519 986 1519 1036 1534.5 c 128,-1,4
 1086 1550 1086 1550 1157 1550 c 0,5,6
 1227 1550 1227 1550 1278 1534.5 c 128,-1,7
 1329 1519 1329 1519 1361 1492.5 c 128,-1,8
 1393 1466 1393 1466 1408.5 1430 c 128,-1,9
 1424 1394 1424 1394 1424 1353 c 256,10,11
 1424 1312 1424 1312 1408.5 1276 c 128,-1,12
 1393 1240 1393 1240 1361 1213.5 c 128,-1,13
 1329 1187 1329 1187 1278 1171.5 c 128,-1,14
 1227 1156 1227 1156 1157 1156 c 0,15,16
 1086 1156 1086 1156 1036 1171.5 c 128,-1,17
 986 1187 986 1187 953.5 1213.5 c 128,-1,18
 921 1240 921 1240 906 1276 c 128,-1,19
 891 1312 891 1312 891 1353 c 256,0,1
394 1156 m 0,20,21
 323 1156 323 1156 273 1171.5 c 128,-1,22
 223 1187 223 1187 190.5 1213.5 c 128,-1,23
 158 1240 158 1240 143 1276 c 128,-1,24
 128 1312 128 1312 128 1353 c 256,25,26
 128 1394 128 1394 143 1430 c 128,-1,27
 158 1466 158 1466 190.5 1492.5 c 128,-1,28
 223 1519 223 1519 273 1534.5 c 128,-1,29
 323 1550 323 1550 394 1550 c 0,30,31
 464 1550 464 1550 515 1534.5 c 128,-1,32
 566 1519 566 1519 598 1492.5 c 128,-1,33
 630 1466 630 1466 645.5 1430 c 128,-1,34
 661 1394 661 1394 661 1353 c 256,35,36
 661 1312 661 1312 645.5 1276 c 128,-1,37
 630 1240 630 1240 598 1213.5 c 128,-1,38
 566 1187 566 1187 515 1171.5 c 128,-1,39
 464 1156 464 1156 394 1156 c 0,20,21
75 312 m 0,40,41
 75 384 75 384 107 446 c 128,-1,42
 139 508 139 508 199 554 c 128,-1,43
 259 600 259 600 344 626.5 c 128,-1,44
 429 653 429 653 534 653 c 256,45,46
 639 653 639 653 730.5 628.5 c 128,-1,47
 822 604 822 604 884 566 c 1,48,-1
 884 574 l 2,49,50
 884 644 884 644 868.5 693 c 128,-1,51
 853 742 853 742 821 773 c 128,-1,52
 789 804 789 804 739.5 818 c 128,-1,53
 690 832 690 832 623 832 c 0,54,55
 562 832 562 832 497 821.5 c 128,-1,56
 432 811 432 811 377 791 c 1,57,-1
 304 926 l 1,58,59
 413 971 413 971 529.5 990.5 c 128,-1,60
 646 1010 646 1010 770 1010 c 0,61,62
 929 1010 929 1010 1051.5 979.5 c 128,-1,63
 1174 949 1174 949 1257.5 888.5 c 128,-1,64
 1341 828 1341 828 1384 736.5 c 128,-1,65
 1427 645 1427 645 1427 522 c 2,66,-1
 1427 0 l 1,67,-1
 920 0 l 1,68,-1
 886 96 l 1,69,70
 856 73 856 73 815 52 c 128,-1,71
 774 31 774 31 725 15 c 128,-1,72
 676 -1 676 -1 621 -10 c 128,-1,73
 566 -19 566 -19 506 -19 c 0,74,75
 408 -19 408 -19 328.5 6.5 c 128,-1,76
 249 32 249 32 193 76 c 128,-1,77
 137 120 137 120 106 180.5 c 128,-1,78
 75 241 75 241 75 312 c 0,40,41
635 333 m 0,79,80
 635 279 635 279 670 245.5 c 128,-1,81
 705 212 705 212 764 212 c 0,82,83
 796 212 796 212 827 222.5 c 128,-1,84
 858 233 858 233 884 254 c 1,85,-1
 884 423 l 1,86,87
 834 453 834 453 774 453 c 0,88,89
 706 453 706 453 670.5 419.5 c 128,-1,90
 635 386 635 386 635 333 c 0,79,80
EndSplineSet
EndChar

StartChar: aacute
Encoding: 225 225 175
Width: 1557
Flags: W
LayerCount: 2
Fore
SplineSet
420 1286 m 1,0,1
 592 1349 592 1349 727.5 1424.5 c 128,-1,2
 863 1500 863 1500 979 1586 c 1,3,-1
 1133 1399 l 1,4,5
 1075 1360 1075 1360 997.5 1323 c 128,-1,6
 920 1286 920 1286 833.5 1256 c 128,-1,7
 747 1226 747 1226 657 1204 c 128,-1,8
 567 1182 567 1182 485 1172 c 1,9,-1
 420 1286 l 1,0,1
75 312 m 0,10,11
 75 384 75 384 107 446 c 128,-1,12
 139 508 139 508 199 554 c 128,-1,13
 259 600 259 600 344 626.5 c 128,-1,14
 429 653 429 653 534 653 c 256,15,16
 639 653 639 653 730.5 628.5 c 128,-1,17
 822 604 822 604 884 566 c 1,18,-1
 884 574 l 2,19,20
 884 644 884 644 868.5 693 c 128,-1,21
 853 742 853 742 821 773 c 128,-1,22
 789 804 789 804 739.5 818 c 128,-1,23
 690 832 690 832 623 832 c 0,24,25
 562 832 562 832 497 821.5 c 128,-1,26
 432 811 432 811 377 791 c 1,27,-1
 304 926 l 1,28,29
 413 971 413 971 529.5 990.5 c 128,-1,30
 646 1010 646 1010 770 1010 c 0,31,32
 929 1010 929 1010 1051.5 979.5 c 128,-1,33
 1174 949 1174 949 1257.5 888.5 c 128,-1,34
 1341 828 1341 828 1384 736.5 c 128,-1,35
 1427 645 1427 645 1427 522 c 2,36,-1
 1427 0 l 1,37,-1
 920 0 l 1,38,-1
 886 96 l 1,39,40
 856 73 856 73 815 52 c 128,-1,41
 774 31 774 31 725 15 c 128,-1,42
 676 -1 676 -1 621 -10 c 128,-1,43
 566 -19 566 -19 506 -19 c 0,44,45
 408 -19 408 -19 328.5 6.5 c 128,-1,46
 249 32 249 32 193 76 c 128,-1,47
 137 120 137 120 106 180.5 c 128,-1,48
 75 241 75 241 75 312 c 0,10,11
635 333 m 0,49,50
 635 279 635 279 670 245.5 c 128,-1,51
 705 212 705 212 764 212 c 0,52,53
 796 212 796 212 827 222.5 c 128,-1,54
 858 233 858 233 884 254 c 1,55,-1
 884 423 l 1,56,57
 834 453 834 453 774 453 c 0,58,59
 706 453 706 453 670.5 419.5 c 128,-1,60
 635 386 635 386 635 333 c 0,49,50
EndSplineSet
EndChar

StartChar: acircumflex
Encoding: 226 226 176
Width: 1557
Flags: W
LayerCount: 2
Fore
SplineSet
310 1286 m 1,0,1
 454 1349 454 1349 566.5 1424 c 128,-1,2
 679 1499 679 1499 776 1586 c 1,3,4
 873 1499 873 1499 985.5 1424 c 128,-1,5
 1098 1349 1098 1349 1243 1286 c 1,6,-1
 1177 1172 l 1,7,8
 1081 1185 1081 1185 975.5 1219.5 c 128,-1,9
 870 1254 870 1254 776 1302 c 1,10,11
 682 1254 682 1254 576.5 1219.5 c 128,-1,12
 471 1185 471 1185 375 1172 c 1,13,-1
 310 1286 l 1,0,1
75 312 m 0,14,15
 75 384 75 384 107 446 c 128,-1,16
 139 508 139 508 199 554 c 128,-1,17
 259 600 259 600 344 626.5 c 128,-1,18
 429 653 429 653 534 653 c 256,19,20
 639 653 639 653 730.5 628.5 c 128,-1,21
 822 604 822 604 884 566 c 1,22,-1
 884 574 l 2,23,24
 884 644 884 644 868.5 693 c 128,-1,25
 853 742 853 742 821 773 c 128,-1,26
 789 804 789 804 739.5 818 c 128,-1,27
 690 832 690 832 623 832 c 0,28,29
 562 832 562 832 497 821.5 c 128,-1,30
 432 811 432 811 377 791 c 1,31,-1
 304 926 l 1,32,33
 413 971 413 971 529.5 990.5 c 128,-1,34
 646 1010 646 1010 770 1010 c 0,35,36
 929 1010 929 1010 1051.5 979.5 c 128,-1,37
 1174 949 1174 949 1257.5 888.5 c 128,-1,38
 1341 828 1341 828 1384 736.5 c 128,-1,39
 1427 645 1427 645 1427 522 c 2,40,-1
 1427 0 l 1,41,-1
 920 0 l 1,42,-1
 886 96 l 1,43,44
 856 73 856 73 815 52 c 128,-1,45
 774 31 774 31 725 15 c 128,-1,46
 676 -1 676 -1 621 -10 c 128,-1,47
 566 -19 566 -19 506 -19 c 0,48,49
 408 -19 408 -19 328.5 6.5 c 128,-1,50
 249 32 249 32 193 76 c 128,-1,51
 137 120 137 120 106 180.5 c 128,-1,52
 75 241 75 241 75 312 c 0,14,15
635 333 m 0,53,54
 635 279 635 279 670 245.5 c 128,-1,55
 705 212 705 212 764 212 c 0,56,57
 796 212 796 212 827 222.5 c 128,-1,58
 858 233 858 233 884 254 c 1,59,-1
 884 423 l 1,60,61
 834 453 834 453 774 453 c 0,62,63
 706 453 706 453 670.5 419.5 c 128,-1,64
 635 386 635 386 635 333 c 0,53,54
EndSplineSet
EndChar

StartChar: atilde
Encoding: 227 227 177
Width: 1557
Flags: W
LayerCount: 2
Fore
SplineSet
307 1263 m 1,0,1
 346 1318 346 1318 381.5 1354 c 128,-1,2
 417 1390 417 1390 452.5 1411.5 c 128,-1,3
 488 1433 488 1433 525.5 1441.5 c 128,-1,4
 563 1450 563 1450 607 1450 c 0,5,6
 664 1450 664 1450 711.5 1438.5 c 128,-1,7
 759 1427 759 1427 803 1413.5 c 128,-1,8
 847 1400 847 1400 890 1389 c 128,-1,9
 933 1378 933 1378 981 1378 c 0,10,11
 1005 1378 1005 1378 1027 1381.5 c 128,-1,12
 1049 1385 1049 1385 1071.5 1393.5 c 128,-1,13
 1094 1402 1094 1402 1118 1416 c 128,-1,14
 1142 1430 1142 1430 1171 1450 c 1,15,-1
 1246 1355 l 1,16,17
 1207 1300 1207 1300 1171 1264 c 128,-1,18
 1135 1228 1135 1228 1099.5 1206.5 c 128,-1,19
 1064 1185 1064 1185 1026.5 1176.5 c 128,-1,20
 989 1168 989 1168 946 1168 c 0,21,22
 889 1168 889 1168 841 1179 c 128,-1,23
 793 1190 793 1190 749.5 1203.5 c 128,-1,24
 706 1217 706 1217 663 1228 c 128,-1,25
 620 1239 620 1239 572 1239 c 0,26,27
 548 1239 548 1239 526 1235.5 c 128,-1,28
 504 1232 504 1232 481.5 1223.5 c 128,-1,29
 459 1215 459 1215 435 1201.5 c 128,-1,30
 411 1188 411 1188 382 1168 c 1,31,-1
 307 1263 l 1,0,1
75 312 m 0,32,33
 75 384 75 384 107 446 c 128,-1,34
 139 508 139 508 199 554 c 128,-1,35
 259 600 259 600 344 626.5 c 128,-1,36
 429 653 429 653 534 653 c 256,37,38
 639 653 639 653 730.5 628.5 c 128,-1,39
 822 604 822 604 884 566 c 1,40,-1
 884 574 l 2,41,42
 884 644 884 644 868.5 693 c 128,-1,43
 853 742 853 742 821 773 c 128,-1,44
 789 804 789 804 739.5 818 c 128,-1,45
 690 832 690 832 623 832 c 0,46,47
 562 832 562 832 497 821.5 c 128,-1,48
 432 811 432 811 377 791 c 1,49,-1
 304 926 l 1,50,51
 413 971 413 971 529.5 990.5 c 128,-1,52
 646 1010 646 1010 770 1010 c 0,53,54
 929 1010 929 1010 1051.5 979.5 c 128,-1,55
 1174 949 1174 949 1257.5 888.5 c 128,-1,56
 1341 828 1341 828 1384 736.5 c 128,-1,57
 1427 645 1427 645 1427 522 c 2,58,-1
 1427 0 l 1,59,-1
 920 0 l 1,60,-1
 886 96 l 1,61,62
 856 73 856 73 815 52 c 128,-1,63
 774 31 774 31 725 15 c 128,-1,64
 676 -1 676 -1 621 -10 c 128,-1,65
 566 -19 566 -19 506 -19 c 0,66,67
 408 -19 408 -19 328.5 6.5 c 128,-1,68
 249 32 249 32 193 76 c 128,-1,69
 137 120 137 120 106 180.5 c 128,-1,70
 75 241 75 241 75 312 c 0,32,33
635 333 m 0,71,72
 635 279 635 279 670 245.5 c 128,-1,73
 705 212 705 212 764 212 c 0,74,75
 796 212 796 212 827 222.5 c 128,-1,76
 858 233 858 233 884 254 c 1,77,-1
 884 423 l 1,78,79
 834 453 834 453 774 453 c 0,80,81
 706 453 706 453 670.5 419.5 c 128,-1,82
 635 386 635 386 635 333 c 0,71,72
EndSplineSet
EndChar

StartChar: aring
Encoding: 229 229 178
Width: 1557
Flags: W
LayerCount: 2
Fore
SplineSet
774 1182 m 256,0,1
 693 1182 693 1182 634 1197 c 128,-1,2
 575 1212 575 1212 537.5 1237 c 128,-1,3
 500 1262 500 1262 482 1295 c 128,-1,4
 464 1328 464 1328 464 1365 c 256,5,6
 464 1402 464 1402 482 1435 c 128,-1,7
 500 1468 500 1468 537.5 1493 c 128,-1,8
 575 1518 575 1518 634 1533 c 128,-1,9
 693 1548 693 1548 774 1548 c 256,10,11
 855 1548 855 1548 914 1533 c 128,-1,12
 973 1518 973 1518 1010.5 1493 c 128,-1,13
 1048 1468 1048 1468 1066 1435 c 128,-1,14
 1084 1402 1084 1402 1084 1365 c 256,15,16
 1084 1328 1084 1328 1066 1295 c 128,-1,17
 1048 1262 1048 1262 1010.5 1237 c 128,-1,18
 973 1212 973 1212 914 1197 c 128,-1,19
 855 1182 855 1182 774 1182 c 256,0,1
774 1282 m 256,20,21
 837 1282 837 1282 869 1307.5 c 128,-1,22
 901 1333 901 1333 901 1365 c 256,23,24
 901 1397 901 1397 869 1422.5 c 128,-1,25
 837 1448 837 1448 774 1448 c 256,26,27
 711 1448 711 1448 679 1422.5 c 128,-1,28
 647 1397 647 1397 647 1365 c 256,29,30
 647 1333 647 1333 679 1307.5 c 128,-1,31
 711 1282 711 1282 774 1282 c 256,20,21
75 312 m 0,32,33
 75 384 75 384 107 446 c 128,-1,34
 139 508 139 508 199 554 c 128,-1,35
 259 600 259 600 344 626.5 c 128,-1,36
 429 653 429 653 534 653 c 256,37,38
 639 653 639 653 730.5 628.5 c 128,-1,39
 822 604 822 604 884 566 c 1,40,-1
 884 574 l 2,41,42
 884 644 884 644 868.5 693 c 128,-1,43
 853 742 853 742 821 773 c 128,-1,44
 789 804 789 804 739.5 818 c 128,-1,45
 690 832 690 832 623 832 c 0,46,47
 562 832 562 832 497 821.5 c 128,-1,48
 432 811 432 811 377 791 c 1,49,-1
 304 926 l 1,50,51
 413 971 413 971 529.5 990.5 c 128,-1,52
 646 1010 646 1010 770 1010 c 0,53,54
 929 1010 929 1010 1051.5 979.5 c 128,-1,55
 1174 949 1174 949 1257.5 888.5 c 128,-1,56
 1341 828 1341 828 1384 736.5 c 128,-1,57
 1427 645 1427 645 1427 522 c 2,58,-1
 1427 0 l 1,59,-1
 920 0 l 1,60,-1
 886 96 l 1,61,62
 856 73 856 73 815 52 c 128,-1,63
 774 31 774 31 725 15 c 128,-1,64
 676 -1 676 -1 621 -10 c 128,-1,65
 566 -19 566 -19 506 -19 c 0,66,67
 408 -19 408 -19 328.5 6.5 c 128,-1,68
 249 32 249 32 193 76 c 128,-1,69
 137 120 137 120 106 180.5 c 128,-1,70
 75 241 75 241 75 312 c 0,32,33
635 333 m 0,71,72
 635 279 635 279 670 245.5 c 128,-1,73
 705 212 705 212 764 212 c 0,74,75
 796 212 796 212 827 222.5 c 128,-1,76
 858 233 858 233 884 254 c 1,77,-1
 884 423 l 1,78,79
 834 453 834 453 774 453 c 0,80,81
 706 453 706 453 670.5 419.5 c 128,-1,82
 635 386 635 386 635 333 c 0,71,72
EndSplineSet
EndChar

StartChar: ccedilla
Encoding: 231 231 179
Width: 1302
Flags: W
LayerCount: 2
Fore
SplineSet
74 496 m 0,0,1
 74 597 74 597 116.5 690 c 128,-1,2
 159 783 159 783 245 854 c 128,-1,3
 331 925 331 925 462.5 967.5 c 128,-1,4
 594 1010 594 1010 772 1010 c 0,5,6
 900 1010 900 1010 991 985.5 c 128,-1,7
 1082 961 1082 961 1140 921 c 128,-1,8
 1198 881 1198 881 1225 830 c 128,-1,9
 1252 779 1252 779 1252 726 c 0,10,11
 1252 685 1252 685 1233 648 c 128,-1,12
 1214 611 1214 611 1182 582.5 c 128,-1,13
 1150 554 1150 554 1107 537 c 128,-1,14
 1064 520 1064 520 1016 520 c 1,15,-1
 762 867 l 1,16,17
 734 842 734 842 710.5 808 c 128,-1,18
 687 774 687 774 669.5 730.5 c 128,-1,19
 652 687 652 687 642.5 633.5 c 128,-1,20
 633 580 633 580 633 516 c 0,21,22
 633 427 633 427 655 360 c 128,-1,23
 677 293 677 293 715 248.5 c 128,-1,24
 753 204 753 204 805.5 181.5 c 128,-1,25
 858 159 858 159 920 159 c 0,26,27
 950 159 950 159 980.5 163.5 c 128,-1,28
 1011 168 1011 168 1038.5 175.5 c 128,-1,29
 1066 183 1066 183 1089 193 c 128,-1,30
 1112 203 1112 203 1128 214 c 1,31,-1
 1208 74 l 1,32,33
 1171 55 1171 55 1127.5 38 c 128,-1,34
 1084 21 1084 21 1031.5 8.5 c 128,-1,35
 979 -4 979 -4 916 -11.5 c 128,-1,36
 853 -19 853 -19 778 -19 c 0,37,38
 772 -19 772 -19 766 -18.5 c 128,-1,39
 760 -18 760 -18 754 -18 c 1,40,-1
 728 -121 l 1,41,-1
 751 -121 l 2,42,43
 835 -121 835 -121 894 -131.5 c 128,-1,44
 953 -142 953 -142 990 -162.5 c 128,-1,45
 1027 -183 1027 -183 1043.5 -213 c 128,-1,46
 1060 -243 1060 -243 1060 -282 c 0,47,48
 1060 -328 1060 -328 1030.5 -370 c 128,-1,49
 1001 -412 1001 -412 943.5 -444 c 128,-1,50
 886 -476 886 -476 800 -495 c 128,-1,51
 714 -514 714 -514 600 -514 c 0,52,53
 575 -514 575 -514 555.5 -513.5 c 128,-1,54
 536 -513 536 -513 519.5 -512 c 128,-1,55
 503 -511 503 -511 487.5 -509.5 c 128,-1,56
 472 -508 472 -508 456 -505 c 1,57,-1
 482 -392 l 1,58,59
 498 -394 498 -394 510.5 -395.5 c 128,-1,60
 523 -397 523 -397 534 -398 c 128,-1,61
 545 -399 545 -399 555.5 -399 c 128,-1,62
 566 -399 566 -399 579 -399 c 0,63,64
 669 -399 669 -399 713.5 -369 c 128,-1,65
 758 -339 758 -339 758 -298 c 0,66,67
 758 -266 758 -266 727.5 -245.5 c 128,-1,68
 697 -225 697 -225 623 -225 c 2,69,-1
 521 -225 l 1,70,-1
 580 -3 l 1,71,72
 451 18 451 18 356 66.5 c 128,-1,73
 261 115 261 115 198 181.5 c 128,-1,74
 135 248 135 248 104.5 328.5 c 128,-1,75
 74 409 74 409 74 496 c 0,0,1
EndSplineSet
EndChar

StartChar: egrave
Encoding: 232 232 180
Width: 1449
Flags: W
LayerCount: 2
Fore
SplineSet
535 1586 m 1,0,1
 650 1500 650 1500 786 1424.5 c 128,-1,2
 922 1349 922 1349 1094 1286 c 1,3,-1
 1029 1172 l 1,4,5
 947 1182 947 1182 857 1204 c 128,-1,6
 767 1226 767 1226 680.5 1256 c 128,-1,7
 594 1286 594 1286 516.5 1323 c 128,-1,8
 439 1360 439 1360 381 1399 c 1,9,-1
 535 1586 l 1,0,1
75 501 m 0,10,11
 75 587 75 587 102 658 c 128,-1,12
 129 729 129 729 176.5 785.5 c 128,-1,13
 224 842 224 842 289 884 c 128,-1,14
 354 926 354 926 430 954 c 128,-1,15
 506 982 506 982 589 996 c 128,-1,16
 672 1010 672 1010 757 1010 c 0,17,18
 869 1010 869 1010 960.5 987.5 c 128,-1,19
 1052 965 1052 965 1123.5 926 c 128,-1,20
 1195 887 1195 887 1247.5 835 c 128,-1,21
 1300 783 1300 783 1334.5 724.5 c 128,-1,22
 1369 666 1369 666 1385.5 604 c 128,-1,23
 1402 542 1402 542 1402 483 c 1,24,-1
 646 392 l 1,25,26
 668 281 668 281 734 220 c 128,-1,27
 800 159 800 159 919 159 c 0,28,29
 984 159 984 159 1040.5 175 c 128,-1,30
 1097 191 1097 191 1129 214 c 1,31,-1
 1209 74 l 1,32,33
 1172 55 1172 55 1128.5 38 c 128,-1,34
 1085 21 1085 21 1032.5 8.5 c 128,-1,35
 980 -4 980 -4 916.5 -11.5 c 128,-1,36
 853 -19 853 -19 777 -19 c 0,37,38
 595 -19 595 -19 463 23.5 c 128,-1,39
 331 66 331 66 244.5 137.5 c 128,-1,40
 158 209 158 209 116.5 303 c 128,-1,41
 75 397 75 397 75 501 c 0,10,11
917 585 m 1,42,43
 917 715 917 715 884.5 774 c 128,-1,44
 852 833 852 833 788 833 c 0,45,46
 755 833 755 833 727 817 c 128,-1,47
 699 801 699 801 679 767 c 128,-1,48
 659 733 659 733 647 679.5 c 128,-1,49
 635 626 635 626 634 550 c 1,50,-1
 917 585 l 1,42,43
EndSplineSet
EndChar

StartChar: edieresis
Encoding: 235 235 181
Width: 1449
Flags: W
LayerCount: 2
Fore
SplineSet
852 1353 m 256,0,1
 852 1394 852 1394 867 1430 c 128,-1,2
 882 1466 882 1466 914.5 1492.5 c 128,-1,3
 947 1519 947 1519 997 1534.5 c 128,-1,4
 1047 1550 1047 1550 1118 1550 c 0,5,6
 1188 1550 1188 1550 1239 1534.5 c 128,-1,7
 1290 1519 1290 1519 1322 1492.5 c 128,-1,8
 1354 1466 1354 1466 1369.5 1430 c 128,-1,9
 1385 1394 1385 1394 1385 1353 c 256,10,11
 1385 1312 1385 1312 1369.5 1276 c 128,-1,12
 1354 1240 1354 1240 1322 1213.5 c 128,-1,13
 1290 1187 1290 1187 1239 1171.5 c 128,-1,14
 1188 1156 1188 1156 1118 1156 c 0,15,16
 1047 1156 1047 1156 997 1171.5 c 128,-1,17
 947 1187 947 1187 914.5 1213.5 c 128,-1,18
 882 1240 882 1240 867 1276 c 128,-1,19
 852 1312 852 1312 852 1353 c 256,0,1
355 1156 m 0,20,21
 284 1156 284 1156 234 1171.5 c 128,-1,22
 184 1187 184 1187 151.5 1213.5 c 128,-1,23
 119 1240 119 1240 104 1276 c 128,-1,24
 89 1312 89 1312 89 1353 c 256,25,26
 89 1394 89 1394 104 1430 c 128,-1,27
 119 1466 119 1466 151.5 1492.5 c 128,-1,28
 184 1519 184 1519 234 1534.5 c 128,-1,29
 284 1550 284 1550 355 1550 c 0,30,31
 425 1550 425 1550 476 1534.5 c 128,-1,32
 527 1519 527 1519 559 1492.5 c 128,-1,33
 591 1466 591 1466 606.5 1430 c 128,-1,34
 622 1394 622 1394 622 1353 c 256,35,36
 622 1312 622 1312 606.5 1276 c 128,-1,37
 591 1240 591 1240 559 1213.5 c 128,-1,38
 527 1187 527 1187 476 1171.5 c 128,-1,39
 425 1156 425 1156 355 1156 c 0,20,21
75 501 m 0,40,41
 75 587 75 587 102 658 c 128,-1,42
 129 729 129 729 176.5 785.5 c 128,-1,43
 224 842 224 842 289 884 c 128,-1,44
 354 926 354 926 430 954 c 128,-1,45
 506 982 506 982 589 996 c 128,-1,46
 672 1010 672 1010 757 1010 c 0,47,48
 869 1010 869 1010 960.5 987.5 c 128,-1,49
 1052 965 1052 965 1123.5 926 c 128,-1,50
 1195 887 1195 887 1247.5 835 c 128,-1,51
 1300 783 1300 783 1334.5 724.5 c 128,-1,52
 1369 666 1369 666 1385.5 604 c 128,-1,53
 1402 542 1402 542 1402 483 c 1,54,-1
 646 392 l 1,55,56
 668 281 668 281 734 220 c 128,-1,57
 800 159 800 159 919 159 c 0,58,59
 984 159 984 159 1040.5 175 c 128,-1,60
 1097 191 1097 191 1129 214 c 1,61,-1
 1209 74 l 1,62,63
 1172 55 1172 55 1128.5 38 c 128,-1,64
 1085 21 1085 21 1032.5 8.5 c 128,-1,65
 980 -4 980 -4 916.5 -11.5 c 128,-1,66
 853 -19 853 -19 777 -19 c 0,67,68
 595 -19 595 -19 463 23.5 c 128,-1,69
 331 66 331 66 244.5 137.5 c 128,-1,70
 158 209 158 209 116.5 303 c 128,-1,71
 75 397 75 397 75 501 c 0,40,41
917 585 m 1,72,73
 917 715 917 715 884.5 774 c 128,-1,74
 852 833 852 833 788 833 c 0,75,76
 755 833 755 833 727 817 c 128,-1,77
 699 801 699 801 679 767 c 128,-1,78
 659 733 659 733 647 679.5 c 128,-1,79
 635 626 635 626 634 550 c 1,80,-1
 917 585 l 1,72,73
EndSplineSet
EndChar

StartChar: eacute
Encoding: 233 233 182
Width: 1449
Flags: W
LayerCount: 2
Fore
SplineSet
381 1286 m 1,0,1
 553 1349 553 1349 688.5 1424.5 c 128,-1,2
 824 1500 824 1500 940 1586 c 1,3,-1
 1094 1399 l 1,4,5
 1036 1360 1036 1360 958.5 1323 c 128,-1,6
 881 1286 881 1286 794.5 1256 c 128,-1,7
 708 1226 708 1226 618 1204 c 128,-1,8
 528 1182 528 1182 446 1172 c 1,9,-1
 381 1286 l 1,0,1
75 501 m 0,10,11
 75 587 75 587 102 658 c 128,-1,12
 129 729 129 729 176.5 785.5 c 128,-1,13
 224 842 224 842 289 884 c 128,-1,14
 354 926 354 926 430 954 c 128,-1,15
 506 982 506 982 589 996 c 128,-1,16
 672 1010 672 1010 757 1010 c 0,17,18
 869 1010 869 1010 960.5 987.5 c 128,-1,19
 1052 965 1052 965 1123.5 926 c 128,-1,20
 1195 887 1195 887 1247.5 835 c 128,-1,21
 1300 783 1300 783 1334.5 724.5 c 128,-1,22
 1369 666 1369 666 1385.5 604 c 128,-1,23
 1402 542 1402 542 1402 483 c 1,24,-1
 646 392 l 1,25,26
 668 281 668 281 734 220 c 128,-1,27
 800 159 800 159 919 159 c 0,28,29
 984 159 984 159 1040.5 175 c 128,-1,30
 1097 191 1097 191 1129 214 c 1,31,-1
 1209 74 l 1,32,33
 1172 55 1172 55 1128.5 38 c 128,-1,34
 1085 21 1085 21 1032.5 8.5 c 128,-1,35
 980 -4 980 -4 916.5 -11.5 c 128,-1,36
 853 -19 853 -19 777 -19 c 0,37,38
 595 -19 595 -19 463 23.5 c 128,-1,39
 331 66 331 66 244.5 137.5 c 128,-1,40
 158 209 158 209 116.5 303 c 128,-1,41
 75 397 75 397 75 501 c 0,10,11
917 585 m 1,42,43
 917 715 917 715 884.5 774 c 128,-1,44
 852 833 852 833 788 833 c 0,45,46
 755 833 755 833 727 817 c 128,-1,47
 699 801 699 801 679 767 c 128,-1,48
 659 733 659 733 647 679.5 c 128,-1,49
 635 626 635 626 634 550 c 1,50,-1
 917 585 l 1,42,43
EndSplineSet
EndChar

StartChar: ecircumflex
Encoding: 234 234 183
Width: 1449
Flags: W
LayerCount: 2
Fore
SplineSet
271 1286 m 1,0,1
 415 1349 415 1349 527.5 1424 c 128,-1,2
 640 1499 640 1499 737 1586 c 1,3,4
 834 1499 834 1499 946.5 1424 c 128,-1,5
 1059 1349 1059 1349 1204 1286 c 1,6,-1
 1138 1172 l 1,7,8
 1042 1185 1042 1185 936.5 1219.5 c 128,-1,9
 831 1254 831 1254 737 1302 c 1,10,11
 643 1254 643 1254 537.5 1219.5 c 128,-1,12
 432 1185 432 1185 336 1172 c 1,13,-1
 271 1286 l 1,0,1
75 501 m 0,14,15
 75 587 75 587 102 658 c 128,-1,16
 129 729 129 729 176.5 785.5 c 128,-1,17
 224 842 224 842 289 884 c 128,-1,18
 354 926 354 926 430 954 c 128,-1,19
 506 982 506 982 589 996 c 128,-1,20
 672 1010 672 1010 757 1010 c 0,21,22
 869 1010 869 1010 960.5 987.5 c 128,-1,23
 1052 965 1052 965 1123.5 926 c 128,-1,24
 1195 887 1195 887 1247.5 835 c 128,-1,25
 1300 783 1300 783 1334.5 724.5 c 128,-1,26
 1369 666 1369 666 1385.5 604 c 128,-1,27
 1402 542 1402 542 1402 483 c 1,28,-1
 646 392 l 1,29,30
 668 281 668 281 734 220 c 128,-1,31
 800 159 800 159 919 159 c 0,32,33
 984 159 984 159 1040.5 175 c 128,-1,34
 1097 191 1097 191 1129 214 c 1,35,-1
 1209 74 l 1,36,37
 1172 55 1172 55 1128.5 38 c 128,-1,38
 1085 21 1085 21 1032.5 8.5 c 128,-1,39
 980 -4 980 -4 916.5 -11.5 c 128,-1,40
 853 -19 853 -19 777 -19 c 0,41,42
 595 -19 595 -19 463 23.5 c 128,-1,43
 331 66 331 66 244.5 137.5 c 128,-1,44
 158 209 158 209 116.5 303 c 128,-1,45
 75 397 75 397 75 501 c 0,14,15
917 585 m 1,46,47
 917 715 917 715 884.5 774 c 128,-1,48
 852 833 852 833 788 833 c 0,49,50
 755 833 755 833 727 817 c 128,-1,51
 699 801 699 801 679 767 c 128,-1,52
 659 733 659 733 647 679.5 c 128,-1,53
 635 626 635 626 634 550 c 1,54,-1
 917 585 l 1,46,47
EndSplineSet
EndChar

StartChar: igrave
Encoding: 236 236 184
Width: 823
Flags: W
LayerCount: 2
Fore
SplineSet
702 1172 m 1,0,1
 620 1182 620 1182 530 1204 c 128,-1,2
 440 1226 440 1226 353.5 1256 c 128,-1,3
 267 1286 267 1286 189.5 1323 c 128,-1,4
 112 1360 112 1360 54 1399 c 1,5,-1
 208 1586 l 1,6,7
 323 1500 323 1500 459 1424.5 c 128,-1,8
 595 1349 595 1349 767 1286 c 1,9,-1
 702 1172 l 1,0,1
140 991 m 1,10,-1
 683 991 l 1,11,-1
 683 0 l 1,12,-1
 140 0 l 1,13,-1
 140 991 l 1,10,-1
EndSplineSet
EndChar

StartChar: idieresis
Encoding: 239 239 185
Width: 1116
Flags: W
LayerCount: 2
Fore
SplineSet
939 1156 m 0,0,1
 868 1156 868 1156 818 1171.5 c 128,-1,2
 768 1187 768 1187 735.5 1213.5 c 128,-1,3
 703 1240 703 1240 688 1276 c 128,-1,4
 673 1312 673 1312 673 1353 c 256,5,6
 673 1394 673 1394 688 1430 c 128,-1,7
 703 1466 703 1466 735.5 1492.5 c 128,-1,8
 768 1519 768 1519 818 1534.5 c 128,-1,9
 868 1550 868 1550 939 1550 c 0,10,11
 1009 1550 1009 1550 1060 1534.5 c 128,-1,12
 1111 1519 1111 1519 1143 1492.5 c 128,-1,13
 1175 1466 1175 1466 1190.5 1430 c 128,-1,14
 1206 1394 1206 1394 1206 1353 c 256,15,16
 1206 1312 1206 1312 1190.5 1276 c 128,-1,17
 1175 1240 1175 1240 1143 1213.5 c 128,-1,18
 1111 1187 1111 1187 1060 1171.5 c 128,-1,19
 1009 1156 1009 1156 939 1156 c 0,0,1
176 1156 m 0,20,21
 105 1156 105 1156 55 1171.5 c 128,-1,22
 5 1187 5 1187 -27.5 1213.5 c 128,-1,23
 -60 1240 -60 1240 -75 1276 c 128,-1,24
 -90 1312 -90 1312 -90 1353 c 256,25,26
 -90 1394 -90 1394 -75 1430 c 128,-1,27
 -60 1466 -60 1466 -27.5 1492.5 c 128,-1,28
 5 1519 5 1519 55 1534.5 c 128,-1,29
 105 1550 105 1550 176 1550 c 0,30,31
 246 1550 246 1550 297 1534.5 c 128,-1,32
 348 1519 348 1519 380 1492.5 c 128,-1,33
 412 1466 412 1466 427.5 1430 c 128,-1,34
 443 1394 443 1394 443 1353 c 256,35,36
 443 1312 443 1312 427.5 1276 c 128,-1,37
 412 1240 412 1240 380 1213.5 c 128,-1,38
 348 1187 348 1187 297 1171.5 c 128,-1,39
 246 1156 246 1156 176 1156 c 0,20,21
288 991 m 1,40,-1
 831 991 l 1,41,-1
 831 0 l 1,42,-1
 288 0 l 1,43,-1
 288 991 l 1,40,-1
EndSplineSet
EndChar

StartChar: iacute
Encoding: 237 237 186
Width: 823
Flags: W
LayerCount: 2
Fore
SplineSet
54 1286 m 1,0,1
 226 1349 226 1349 361.5 1424.5 c 128,-1,2
 497 1500 497 1500 613 1586 c 1,3,-1
 767 1399 l 1,4,5
 709 1360 709 1360 631.5 1323 c 128,-1,6
 554 1286 554 1286 467.5 1256 c 128,-1,7
 381 1226 381 1226 291 1204 c 128,-1,8
 201 1182 201 1182 119 1172 c 1,9,-1
 54 1286 l 1,0,1
140 991 m 1,10,-1
 683 991 l 1,11,-1
 683 0 l 1,12,-1
 140 0 l 1,13,-1
 140 991 l 1,10,-1
EndSplineSet
EndChar

StartChar: icircumflex
Encoding: 238 238 187
Width: 863
Flags: W
LayerCount: 2
Fore
SplineSet
-36 1286 m 1,0,1
 108 1349 108 1349 220.5 1424 c 128,-1,2
 333 1499 333 1499 430 1586 c 1,3,4
 527 1499 527 1499 639.5 1424 c 128,-1,5
 752 1349 752 1349 897 1286 c 1,6,-1
 831 1172 l 1,7,8
 735 1185 735 1185 629.5 1219.5 c 128,-1,9
 524 1254 524 1254 430 1302 c 1,10,11
 336 1254 336 1254 230.5 1219.5 c 128,-1,12
 125 1185 125 1185 29 1172 c 1,13,-1
 -36 1286 l 1,0,1
160 991 m 1,14,-1
 703 991 l 1,15,-1
 703 0 l 1,16,-1
 160 0 l 1,17,-1
 160 991 l 1,14,-1
EndSplineSet
EndChar

StartChar: itilde
Encoding: 297 297 188
Width: 919
Flags: W
LayerCount: 2
Fore
SplineSet
-10 1263 m 1,0,1
 29 1318 29 1318 64.5 1354 c 128,-1,2
 100 1390 100 1390 135.5 1411.5 c 128,-1,3
 171 1433 171 1433 208.5 1441.5 c 128,-1,4
 246 1450 246 1450 290 1450 c 0,5,6
 347 1450 347 1450 394.5 1438.5 c 128,-1,7
 442 1427 442 1427 486 1413.5 c 128,-1,8
 530 1400 530 1400 573 1389 c 128,-1,9
 616 1378 616 1378 664 1378 c 0,10,11
 688 1378 688 1378 710 1381.5 c 128,-1,12
 732 1385 732 1385 754.5 1393.5 c 128,-1,13
 777 1402 777 1402 801 1416 c 128,-1,14
 825 1430 825 1430 854 1450 c 1,15,-1
 929 1355 l 1,16,17
 890 1300 890 1300 854 1264 c 128,-1,18
 818 1228 818 1228 782.5 1206.5 c 128,-1,19
 747 1185 747 1185 709.5 1176.5 c 128,-1,20
 672 1168 672 1168 629 1168 c 0,21,22
 572 1168 572 1168 524 1179 c 128,-1,23
 476 1190 476 1190 432.5 1203.5 c 128,-1,24
 389 1217 389 1217 346 1228 c 128,-1,25
 303 1239 303 1239 255 1239 c 0,26,27
 231 1239 231 1239 209 1235.5 c 128,-1,28
 187 1232 187 1232 164.5 1223.5 c 128,-1,29
 142 1215 142 1215 118 1201.5 c 128,-1,30
 94 1188 94 1188 65 1168 c 1,31,-1
 -10 1263 l 1,0,1
189 991 m 1,32,-1
 732 991 l 1,33,-1
 732 0 l 1,34,-1
 189 0 l 1,35,-1
 189 991 l 1,32,-1
EndSplineSet
EndChar

StartChar: jcircumflex
Encoding: 309 309 189
Width: 828
Flags: W
LayerCount: 2
Fore
SplineSet
-59 1286 m 1,0,1
 85 1349 85 1349 197.5 1424 c 128,-1,2
 310 1499 310 1499 407 1586 c 1,3,4
 504 1499 504 1499 616.5 1424 c 128,-1,5
 729 1349 729 1349 874 1286 c 1,6,-1
 808 1172 l 1,7,8
 712 1185 712 1185 606.5 1219.5 c 128,-1,9
 501 1254 501 1254 407 1302 c 1,10,11
 313 1254 313 1254 207.5 1219.5 c 128,-1,12
 102 1185 102 1185 6 1172 c 1,13,-1
 -59 1286 l 1,0,1
151 991 m 1,14,-1
 698 991 l 1,15,-1
 698 165 l 2,16,17
 698 27 698 27 658 -85.5 c 128,-1,18
 618 -198 618 -198 540.5 -282 c 128,-1,19
 463 -366 463 -366 348.5 -420 c 128,-1,20
 234 -474 234 -474 85 -495 c 1,21,-1
 42 -401 l 1,22,23
 73 -368 73 -368 94 -335.5 c 128,-1,24
 115 -303 115 -303 127.5 -266.5 c 128,-1,25
 140 -230 140 -230 145.5 -186 c 128,-1,26
 151 -142 151 -142 151 -86 c 2,27,-1
 151 991 l 1,14,-1
EndSplineSet
EndChar

StartChar: kcommaaccent
Encoding: 311 311 190
Width: 1562
Flags: W
LayerCount: 2
Fore
SplineSet
140 1651 m 1,0,-1
 683 1651 l 1,1,-1
 683 574 l 1,2,-1
 1086 991 l 1,3,-1
 1386 991 l 1,4,-1
 1068 668 l 1,5,-1
 1559 0 l 1,6,-1
 951 1 l 1,7,-1
 683 385 l 1,8,-1
 683 0 l 1,9,-1
 140 0 l 1,10,-1
 140 1651 l 1,0,-1
673 -204 m 0,11,12
 673 -180 673 -180 685 -156.5 c 128,-1,13
 697 -133 697 -133 719.5 -114.5 c 128,-1,14
 742 -96 742 -96 775 -85 c 128,-1,15
 808 -74 808 -74 850 -74 c 0,16,17
 890 -74 890 -74 922.5 -85.5 c 128,-1,18
 955 -97 955 -97 978.5 -117.5 c 128,-1,19
 1002 -138 1002 -138 1014.5 -167.5 c 128,-1,20
 1027 -197 1027 -197 1027 -233 c 0,21,22
 1027 -296 1027 -296 987.5 -371 c 128,-1,23
 948 -446 948 -446 873 -514 c 1,24,-1
 784 -445 l 1,25,26
 837 -389 837 -389 850 -334 c 1,27,28
 762 -334 762 -334 717.5 -296.5 c 128,-1,29
 673 -259 673 -259 673 -204 c 0,11,12
EndSplineSet
EndChar

StartChar: ldot
Encoding: 320 320 191
Width: 1406
Flags: W
LayerCount: 2
Fore
SplineSet
140 1651 m 1,0,-1
 683 1651 l 1,1,-1
 683 0 l 1,2,-1
 140 0 l 1,3,-1
 140 1651 l 1,0,-1
832 803 m 256,4,5
 832 846 832 846 848 884 c 128,-1,6
 864 922 864 922 898.5 950.5 c 128,-1,7
 933 979 933 979 986 995 c 128,-1,8
 1039 1011 1039 1011 1114 1011 c 256,9,10
 1189 1011 1189 1011 1242 995 c 128,-1,11
 1295 979 1295 979 1329.5 950.5 c 128,-1,12
 1364 922 1364 922 1380 884 c 128,-1,13
 1396 846 1396 846 1396 803 c 256,14,15
 1396 760 1396 760 1380 722 c 128,-1,16
 1364 684 1364 684 1329.5 656 c 128,-1,17
 1295 628 1295 628 1242 611.5 c 128,-1,18
 1189 595 1189 595 1114 595 c 256,19,20
 1039 595 1039 595 986 611.5 c 128,-1,21
 933 628 933 628 898.5 656 c 128,-1,22
 864 684 864 684 848 722 c 128,-1,23
 832 760 832 760 832 803 c 256,4,5
EndSplineSet
EndChar

StartChar: nacute
Encoding: 324 324 192
Width: 1569
Flags: W
LayerCount: 2
Fore
SplineSet
415 1286 m 1,0,1
 587 1349 587 1349 722.5 1424.5 c 128,-1,2
 858 1500 858 1500 974 1586 c 1,3,-1
 1128 1399 l 1,4,5
 1070 1360 1070 1360 992.5 1323 c 128,-1,6
 915 1286 915 1286 828.5 1256 c 128,-1,7
 742 1226 742 1226 652 1204 c 128,-1,8
 562 1182 562 1182 480 1172 c 1,9,-1
 415 1286 l 1,0,1
140 991 m 1,10,-1
 619 991 l 1,11,-1
 667 847 l 1,12,13
 773 928 773 928 882.5 969 c 128,-1,14
 992 1010 992 1010 1113 1010 c 0,15,16
 1182 1010 1182 1010 1241.5 987 c 128,-1,17
 1301 964 1301 964 1345 916 c 128,-1,18
 1389 868 1389 868 1414 792.5 c 128,-1,19
 1439 717 1439 717 1439 612 c 2,20,-1
 1439 0 l 1,21,-1
 896 0 l 1,22,-1
 896 646 l 2,23,24
 896 698 896 698 873 722 c 128,-1,25
 850 746 850 746 806 746 c 0,26,27
 777 746 777 746 742 734 c 128,-1,28
 707 722 707 722 683 696 c 1,29,-1
 683 0 l 1,30,-1
 140 0 l 1,31,-1
 140 991 l 1,10,-1
EndSplineSet
EndChar

StartChar: ntilde
Encoding: 241 241 193
Width: 1569
Flags: W
LayerCount: 2
Fore
SplineSet
302 1263 m 1,0,1
 341 1318 341 1318 376.5 1354 c 128,-1,2
 412 1390 412 1390 447.5 1411.5 c 128,-1,3
 483 1433 483 1433 520.5 1441.5 c 128,-1,4
 558 1450 558 1450 602 1450 c 0,5,6
 659 1450 659 1450 706.5 1438.5 c 128,-1,7
 754 1427 754 1427 798 1413.5 c 128,-1,8
 842 1400 842 1400 885 1389 c 128,-1,9
 928 1378 928 1378 976 1378 c 0,10,11
 1000 1378 1000 1378 1022 1381.5 c 128,-1,12
 1044 1385 1044 1385 1066.5 1393.5 c 128,-1,13
 1089 1402 1089 1402 1113 1416 c 128,-1,14
 1137 1430 1137 1430 1166 1450 c 1,15,-1
 1241 1355 l 1,16,17
 1202 1300 1202 1300 1166 1264 c 128,-1,18
 1130 1228 1130 1228 1094.5 1206.5 c 128,-1,19
 1059 1185 1059 1185 1021.5 1176.5 c 128,-1,20
 984 1168 984 1168 941 1168 c 0,21,22
 884 1168 884 1168 836 1179 c 128,-1,23
 788 1190 788 1190 744.5 1203.5 c 128,-1,24
 701 1217 701 1217 658 1228 c 128,-1,25
 615 1239 615 1239 567 1239 c 0,26,27
 543 1239 543 1239 521 1235.5 c 128,-1,28
 499 1232 499 1232 476.5 1223.5 c 128,-1,29
 454 1215 454 1215 430 1201.5 c 128,-1,30
 406 1188 406 1188 377 1168 c 1,31,-1
 302 1263 l 1,0,1
140 991 m 1,32,-1
 619 991 l 1,33,-1
 667 847 l 1,34,35
 773 928 773 928 882.5 969 c 128,-1,36
 992 1010 992 1010 1113 1010 c 0,37,38
 1182 1010 1182 1010 1241.5 987 c 128,-1,39
 1301 964 1301 964 1345 916 c 128,-1,40
 1389 868 1389 868 1414 792.5 c 128,-1,41
 1439 717 1439 717 1439 612 c 2,42,-1
 1439 0 l 1,43,-1
 896 0 l 1,44,-1
 896 646 l 2,45,46
 896 698 896 698 873 722 c 128,-1,47
 850 746 850 746 806 746 c 0,48,49
 777 746 777 746 742 734 c 128,-1,50
 707 722 707 722 683 696 c 1,51,-1
 683 0 l 1,52,-1
 140 0 l 1,53,-1
 140 991 l 1,32,-1
EndSplineSet
EndChar

StartChar: ograve
Encoding: 242 242 194
Width: 1574
Flags: W
LayerCount: 2
Fore
SplineSet
585 1586 m 1,0,1
 700 1500 700 1500 836 1424.5 c 128,-1,2
 972 1349 972 1349 1144 1286 c 1,3,-1
 1079 1172 l 1,4,5
 997 1182 997 1182 907 1204 c 128,-1,6
 817 1226 817 1226 730.5 1256 c 128,-1,7
 644 1286 644 1286 566.5 1323 c 128,-1,8
 489 1360 489 1360 431 1399 c 1,9,-1
 585 1586 l 1,0,1
75 495 m 0,10,11
 75 613 75 613 123.5 708 c 128,-1,12
 172 803 172 803 263.5 870 c 128,-1,13
 355 937 355 937 487 973.5 c 128,-1,14
 619 1010 619 1010 787 1010 c 256,15,16
 955 1010 955 1010 1087 973.5 c 128,-1,17
 1219 937 1219 937 1310.5 870 c 128,-1,18
 1402 803 1402 803 1450.5 708 c 128,-1,19
 1499 613 1499 613 1499 495 c 0,20,21
 1499 378 1499 378 1450.5 283 c 128,-1,22
 1402 188 1402 188 1310.5 121 c 128,-1,23
 1219 54 1219 54 1087 17.5 c 128,-1,24
 955 -19 955 -19 787 -19 c 256,25,26
 619 -19 619 -19 487 17.5 c 128,-1,27
 355 54 355 54 263.5 121 c 128,-1,28
 172 188 172 188 123.5 283 c 128,-1,29
 75 378 75 378 75 495 c 0,10,11
787 164 m 0,30,31
 824 164 824 164 853 179 c 128,-1,32
 882 194 882 194 901 231.5 c 128,-1,33
 920 269 920 269 930 333 c 128,-1,34
 940 397 940 397 940 495 c 0,35,36
 940 594 940 594 930 658 c 128,-1,37
 920 722 920 722 901 759.5 c 128,-1,38
 882 797 882 797 853 812 c 128,-1,39
 824 827 824 827 787 827 c 0,40,41
 749 827 749 827 720.5 812 c 128,-1,42
 692 797 692 797 673 759.5 c 128,-1,43
 654 722 654 722 644 658 c 128,-1,44
 634 594 634 594 634 495 c 0,45,46
 634 397 634 397 644 333 c 128,-1,47
 654 269 654 269 673 231.5 c 128,-1,48
 692 194 692 194 720.5 179 c 128,-1,49
 749 164 749 164 787 164 c 0,30,31
EndSplineSet
EndChar

